M48
;Layer_Color=9474304
;FILE_FORMAT=4:4
METRIC,LZ
;TYPE=PLATED
T1F00S00C0.3000
%
T01
X000625Y-000955
X00062142Y-00083358
X000615Y-000725
X00061665Y-00063262
X0006075Y-00045152
X0007625Y-00044
Y-00038
X00076565Y-00031934
X00076793Y-00049975
X00091Y-00056
X00101Y-0006775
X00096Y-00076
Y-00085
X00109
X00121
X001235Y-0006
X00110098Y-0006025
X0011825Y-00046
X00123476Y-00039524
X001165Y-0002975
X00115Y-0002
X00124
Y-0001
X00115
Y0
X00124
Y0001
X00115
Y0002
X00124
Y0003
X00115
Y0004
X00124
Y0005
X00115
Y0006
X00124
Y00085
X00115
X00105
Y00075
X00095
Y00085
X0009175Y0006025
X00092Y00036
Y0002
Y00004
X0009206Y-00012
X00059738Y-00014442
X000625Y0001075
X00062562Y0005025
Y00064
X00062312Y0007975
X00061812Y000935
X00075935Y00046684
X00110098Y-00036
X00043Y-00033087
X0003375Y-0004725
X00013Y-00073
X00012Y-0008
X-00005938Y-00078597
X-00006Y-00089
X-00019Y-00086
X-0001975Y-000795
X-0001775Y-00073
X-00029551Y-000755
X-00027648Y-00086752
X-000335Y-0009625
X-000425Y-000955
X-0007325Y-00095
X-0011425Y-000935
X-0012025Y-0009375
X-0011325Y-000805
X-00131Y-000575
X-0012925Y-0002125
X-001375Y0
X-0015
X-001625
X-00175
X-001785Y-00018
Y-00024
X-0017225Y-0003425
X-001715Y-000405
X-0016775Y-000465
X-00161Y-0004725
X-001525Y-0003925
X-001535Y-00033
Y-000815
X-00152Y-0009
X-00156Y-00094
X-0014825Y-000945
X-00176Y-00096
X-00175938Y-0008925
X-00176188Y-000805
X-0019075Y-0006775
X-00185188Y-00062
X-0019325Y-0005725
X-0019275Y-00043058
X-00198606Y-0004175
X-00204702Y-00042209
X-00210081Y-0003955
X-00209971Y-00023971
X-002012Y-00009954
X-00221965Y-00008924
X-0023875Y-000075
X-00232899Y00002149
X-00237924Y00013756
X-0021575Y0001775
X-00211Y0002075
X-00202Y000135
X-0020525Y000085
X-00197933Y0002792
X-0019155Y0003145
X-00184Y0004
X-00197881Y00045
X-002Y000715
Y0007825
X-00181Y00077
X-0018075Y00060262
X-0018225Y0009425
X-00176289Y00094198
X-00165Y00096
X-00152
X-00120575Y00094641
X-00120494Y00074989
X-00114423Y00075423
X-00127666Y00075867
X-00135031Y000775
X-0013045Y000581
X-00118773Y0005782
X-0010875Y000575
X-00114951Y00042426
X-00122Y00042798
X-00132199Y00038058
X-00143381Y00039512
X-00136438Y00018
X-00123Y00005
X-0011725Y00004488
X-00103Y00016762
X-00090344Y00016844
X-00088627Y000235
X-000835Y0003525
X-00076281Y00036116
X-00071004Y00039141
X-00080048Y00054298
Y00060232
X-00086057Y00060306
X-00086355Y0005441
X-00083193Y00078493
X-0009625Y000735
X-0010025Y000905
X-00089Y00095
X-0007375Y00096
X-00075933Y00090411
X-000615Y0008225
X-00068064Y00073881
X-000545Y0005325
X-00043833Y0004421
X-0003775Y0005925
X-0003575Y00067
X-00025854Y00079641
X-0001975Y0007475
X-0001175Y00074
X-00012988Y0008815
X-0002317Y0008821
X-00034Y0009625
X-00046Y00096
X-000025Y0008775
X00004752Y00076652
X00013535Y0007125
X0002925Y0008375
X000505Y000845
Y0007275
X0003675Y0005725
X0003041Y0001741
X00021285Y00014535
X00004729Y-00012589
X-00002214Y-00012855
X00008Y-0002625
X-00021Y-00031
X-000305Y-000175
X-0002875Y-00008
X-00027722Y-00002089
X-00021Y00003
X-00031Y00016
X-00054Y000305
X-00061Y00006
X-0006875Y0001325
X-00080117Y00012827
X-00082Y-0000325
X-0008925Y-000035
X-0008541Y-00008486
X-0007725Y-00008
X-00069Y-00005
X-00055Y-000065
X-0005575Y-0001675
X-0006075Y-00029056
X-00071755Y-00033495
X-0007475Y-0002375
X-0008125Y-00045479
X-0009125
Y-00055479
X-0008125
X-0006312Y-0005325
X-000565Y-00053
X-0004725Y-0003325
X-00030888Y-00060362
X-00004Y-00057
X-0011025Y0003
X-001185
X-0010075Y0004125
X-0022075Y000305
X-00241667Y0004533
X-00248262Y00045778
X-00254267Y0004675
X-00261011Y00047657
X-00267756Y0004821
X-00273927Y00048421
X-002865Y0003925
X-0029025Y00034086
X-00291125Y00026875
X-002885Y0001425
X-00291695Y00003239
X-00292729Y-00002671
X-00297812Y-00005878
X-00296568Y-00011747
X-00284049Y-00012881
X-00284388Y-00018872
X-00283661Y-0002525
X-00296843Y-00027159
X-00296339Y-00034022
X-00296462Y-00044085
X-00264304Y-00042
X-0025926Y-00038524
X-00254774Y-00043064
X-00245592Y-0003955
X-00238
X-002418Y-000442
X-00228026Y-00042449
X-00229751Y-00055833
X-00229509Y-00062316
X-00224483Y-00058704
X-00225504Y-00066949
X-00216479Y-00069531
X-0021075Y-0006775
X-002025Y-0008375
X-0020275Y-0009475
X-00228297Y-00087451
X-00232815Y-00091685
X-00230067Y-00076172
X-0023953Y-0006419
X-00238Y-0003
X-00266283Y-00025805
X-0026255Y-00005319
X-00264036Y000015
X-0026426Y00007496
X-0026255Y00018548
X-0026275Y00026224
X-00254575Y00023575
X-00255762Y000005
X-00296934Y00006219
X-00295258Y000381
X-0029675Y000445
X-003Y00052022
X-00302Y00059
X-00293Y00069
Y0007475
Y000845
Y0009025
X-00307Y00092097
X-00261Y00089
Y00075
Y00064
X-00236772Y00057
X-00226512Y0006575
X-002265Y00081
X-00219Y00096
X-0027Y-0005875
X-00288Y-0007875
X-0028775Y-000925
X-0026275Y-00093
X-00252136Y-00094583
M30
