G04*
G04 #@! TF.GenerationSoftware,Altium Limited,Altium Designer,23.3.1 (30)*
G04*
G04 Layer_Physical_Order=1*
G04 Layer_Color=255*
%FSLAX44Y44*%
%MOMM*%
G71*
G04*
G04 #@! TF.SameCoordinates,9951316E-5AA8-40CD-BDAD-E2DC54E6BB6D*
G04*
G04*
G04 #@! TF.FilePolarity,Positive*
G04*
G01*
G75*
%ADD15C,0.2000*%
%ADD16C,0.1524*%
%ADD28R,1.6510X0.9398*%
%ADD29R,1.0414X0.5334*%
%ADD30R,0.6000X0.4000*%
%ADD31R,0.4000X0.6000*%
%ADD32C,1.0000*%
%ADD33R,0.9000X1.0000*%
%ADD34R,0.5121X0.5811*%
%ADD35R,0.5200X0.5600*%
%ADD36R,0.5000X0.6000*%
%ADD37R,0.6725X0.7154*%
%ADD38R,0.8000X0.7000*%
%ADD39R,0.2500X0.4000*%
%ADD40R,0.7000X0.4000*%
%ADD41R,0.5725X0.5654*%
%ADD42R,0.9000X0.6500*%
%ADD43R,0.5500X0.6000*%
%ADD44O,0.5800X0.3000*%
%ADD45O,0.3500X0.6300*%
%ADD46O,0.5800X0.2500*%
%ADD47R,3.1000X2.6000*%
%ADD48R,0.4500X1.2000*%
G04:AMPARAMS|DCode=49|XSize=0.55mm|YSize=0.8mm|CornerRadius=0.0495mm|HoleSize=0mm|Usage=FLASHONLY|Rotation=0.000|XOffset=0mm|YOffset=0mm|HoleType=Round|Shape=RoundedRectangle|*
%AMROUNDEDRECTD49*
21,1,0.5500,0.7010,0,0,0.0*
21,1,0.4510,0.8000,0,0,0.0*
1,1,0.0990,0.2255,-0.3505*
1,1,0.0990,-0.2255,-0.3505*
1,1,0.0990,-0.2255,0.3505*
1,1,0.0990,0.2255,0.3505*
%
%ADD49ROUNDEDRECTD49*%
%ADD50R,1.6000X1.2500*%
%ADD51R,1.4986X3.0988*%
%ADD52R,0.7112X3.0988*%
%ADD53R,0.5000X1.0000*%
%ADD54R,1.4620X0.2794*%
%ADD55R,0.2794X1.4620*%
%ADD56R,1.0000X1.1500*%
%ADD57R,0.6153X0.5725*%
%ADD58R,0.2400X0.6000*%
%ADD59R,0.6000X0.2400*%
%ADD60R,0.6500X0.6500*%
%ADD61R,0.5000X0.4000*%
%ADD62R,0.4000X0.5000*%
%ADD63R,0.7154X0.6725*%
%ADD64R,0.5725X0.5682*%
%ADD65C,0.2260*%
%ADD66R,0.5600X0.5200*%
%ADD67R,0.4682X0.4725*%
%ADD68R,0.4725X0.4682*%
%ADD69R,1.1051X1.0062*%
%ADD70R,0.6500X0.7000*%
%ADD71R,1.0062X1.1051*%
%ADD72R,1.0000X0.9000*%
%ADD73R,0.6000X0.5500*%
%ADD74R,0.5682X0.5725*%
%ADD75R,0.5153X0.4725*%
%ADD76R,0.9000X0.7500*%
%ADD77R,0.5725X0.6153*%
%ADD78R,0.7500X0.9000*%
%ADD81R,1.0500X1.0000*%
%ADD82R,2.2000X1.0500*%
%ADD85R,1.0500X2.2000*%
%ADD86R,1.0000X1.0500*%
%ADD98R,6.0000X6.0000*%
%ADD99R,0.2000X0.7000*%
%ADD105C,0.2030*%
%ADD106C,0.2032*%
%ADD107C,0.2400*%
%ADD108C,0.1600*%
%ADD109C,0.4000*%
%ADD110C,0.3000*%
%ADD111C,0.4500*%
G36*
X-73754Y100500D02*
X-73754Y100417D01*
Y95217D01*
X-75188Y94161D01*
X-76679D01*
X-78058Y93590D01*
X-78570Y93078D01*
X-80144Y93500D01*
X-81856D01*
X-83509Y93057D01*
X-84991Y92201D01*
X-86201Y90991D01*
X-87057Y89509D01*
X-87500Y87856D01*
Y86500D01*
X-93294Y86500D01*
X-93527Y86856D01*
X-94229Y87929D01*
X-94193Y87991D01*
X-93750Y89644D01*
Y91356D01*
X-94193Y93009D01*
X-95049Y94491D01*
X-96259Y95701D01*
X-97741Y96557D01*
X-99394Y97000D01*
X-101106D01*
X-102759Y96557D01*
X-104241Y95701D01*
X-105451Y94491D01*
X-106307Y93009D01*
X-106750Y91356D01*
Y89644D01*
X-106307Y87991D01*
X-105451Y86509D01*
X-104241Y85299D01*
X-102759Y84443D01*
X-101106Y84000D01*
X-99394D01*
X-97741Y84443D01*
X-96259Y85299D01*
X-95905Y85653D01*
X-94467Y85596D01*
X-94000Y85402D01*
X-94000Y85277D01*
X-94000Y85277D01*
X-94000Y85268D01*
Y80317D01*
X-94500Y79000D01*
X-94500Y78358D01*
X-95746Y77250D01*
X-96996D01*
X-98374Y76679D01*
X-99429Y75624D01*
X-100000Y74246D01*
Y72754D01*
X-99930Y72585D01*
X-100561Y71061D01*
X-100561D01*
Y67155D01*
X-96000D01*
X-91439D01*
Y71000D01*
X-91000D01*
Y75000D01*
X-89000D01*
Y71000D01*
X-86939D01*
X-85500Y70856D01*
X-85500Y69144D01*
X-85057Y67491D01*
X-84201Y66009D01*
X-82991Y64799D01*
X-81509Y63943D01*
X-79856Y63500D01*
X-78144D01*
X-76491Y63943D01*
X-75278Y64643D01*
X-74349Y64325D01*
X-73754Y63898D01*
Y58000D01*
X-74500D01*
Y55000D01*
X-70000D01*
Y53000D01*
X-74500D01*
Y50269D01*
X-75632Y49591D01*
X-75823Y49516D01*
X-77009Y50701D01*
X-78491Y51557D01*
X-80144Y52000D01*
X-81856D01*
X-83509Y51557D01*
X-84991Y50701D01*
X-86201Y49491D01*
X-87057Y48009D01*
X-87111Y47806D01*
X-89252D01*
X-89638Y48192D01*
Y53612D01*
X-90758D01*
X-91939Y54439D01*
Y61250D01*
X-91439D01*
Y65155D01*
X-96000D01*
X-100561D01*
Y61250D01*
X-100061D01*
Y54439D01*
X-99544D01*
X-98362Y53612D01*
Y45970D01*
X-99886Y44951D01*
X-100004Y45000D01*
X-101496D01*
X-102874Y44429D01*
X-103929Y43374D01*
X-104500Y41996D01*
Y40504D01*
X-103929Y39126D01*
X-102874Y38071D01*
X-101496Y37500D01*
X-100004D01*
X-99136Y36308D01*
X-99132Y36250D01*
X-100450Y34862D01*
X-100862D01*
Y27315D01*
X-100862Y26209D01*
X-100862D01*
Y25791D01*
X-100862D01*
Y21585D01*
X-102254Y20512D01*
X-103746D01*
X-104711Y21157D01*
Y27005D01*
X-104866Y27783D01*
X-105307Y28443D01*
X-105967Y28884D01*
X-106342Y28959D01*
X-106500Y29254D01*
Y30746D01*
X-107071Y32124D01*
X-108126Y33179D01*
X-108595Y33373D01*
X-108966Y35158D01*
X-107187Y36937D01*
X-106631Y37769D01*
X-106436Y38750D01*
Y43523D01*
X-105967Y43616D01*
X-105307Y44057D01*
X-104866Y44717D01*
X-104711Y45495D01*
Y52505D01*
X-104866Y53283D01*
X-105307Y53943D01*
X-105570Y55369D01*
X-105429Y55718D01*
X-105000Y56754D01*
Y58246D01*
X-105571Y59624D01*
X-106626Y60679D01*
X-108004Y61250D01*
X-109496D01*
X-110874Y60679D01*
X-111929Y59624D01*
X-112500Y58246D01*
Y56754D01*
X-112152Y55915D01*
X-112097Y55201D01*
X-112938Y54221D01*
X-114446Y54304D01*
X-114676Y54458D01*
X-115278Y55270D01*
X-115296Y56414D01*
X-115023Y57074D01*
Y58566D01*
X-115531Y59792D01*
X-115545Y60119D01*
X-115101Y61606D01*
X-114009Y62236D01*
X-112799Y63447D01*
X-111943Y64929D01*
X-111500Y66582D01*
Y68293D01*
X-111943Y69947D01*
X-112799Y71429D01*
X-114009Y72639D01*
X-115491Y73495D01*
X-116510Y73768D01*
X-116744Y74243D01*
Y75735D01*
X-117315Y77113D01*
X-118370Y78168D01*
X-119748Y78739D01*
X-121240D01*
X-122619Y78168D01*
X-122825Y77962D01*
X-124487Y77991D01*
X-125143Y78647D01*
X-125189Y79236D01*
X-125038Y80116D01*
X-124904Y80400D01*
X-123780Y81049D01*
X-122570Y82259D01*
X-121714Y83741D01*
X-121321Y85211D01*
X-120213D01*
X-119636Y85326D01*
X-118460Y84658D01*
X-118112Y84321D01*
Y80638D01*
X-114250D01*
Y85478D01*
X-113250D01*
Y86479D01*
X-108388D01*
Y90319D01*
X-108888D01*
Y98862D01*
X-117612D01*
Y93807D01*
X-118378Y93041D01*
X-118967Y92648D01*
X-121276Y90339D01*
X-122668D01*
X-123780Y91451D01*
X-125263Y92307D01*
X-126916Y92750D01*
X-128627D01*
X-130280Y92307D01*
X-131763Y91451D01*
X-132973Y90241D01*
X-133828Y88759D01*
X-134271Y87106D01*
Y85394D01*
X-133845Y83803D01*
X-135864Y81784D01*
X-137388Y82416D01*
Y91112D01*
X-146459D01*
Y91612D01*
X-151036D01*
Y86250D01*
X-153036D01*
Y91612D01*
X-157612D01*
Y91612D01*
X-158888Y91862D01*
X-158888Y91862D01*
X-159033Y91862D01*
X-163464D01*
Y86500D01*
X-165464D01*
Y91862D01*
X-170041D01*
Y91862D01*
X-171154Y91915D01*
X-172126Y93000D01*
Y95750D01*
X-172602Y96898D01*
X-174852Y99148D01*
X-176000Y99624D01*
X-195500D01*
X-195798Y99500D01*
X-197000D01*
Y98298D01*
X-197124Y98000D01*
Y86500D01*
X-197000Y86202D01*
Y85000D01*
X-195798D01*
X-195500Y84876D01*
X-185500D01*
X-185202Y85000D01*
X-184000D01*
Y86202D01*
X-183876Y86500D01*
Y89578D01*
X-183328Y90126D01*
X-179112D01*
Y81638D01*
X-175564D01*
Y77994D01*
X-178056D01*
Y58542D01*
X-178064Y58500D01*
Y41600D01*
X-178613Y41464D01*
X-179040Y41682D01*
X-180000Y42668D01*
Y45500D01*
X-184000D01*
Y47500D01*
X-180000D01*
Y51000D01*
X-180650D01*
Y54500D01*
X-185450D01*
Y56500D01*
X-180650D01*
Y60100D01*
X-183701D01*
X-184000Y61500D01*
X-184000D01*
Y76000D01*
X-195224D01*
X-196250Y77504D01*
Y78996D01*
X-196821Y80374D01*
X-197876Y81429D01*
X-199254Y82000D01*
X-200746D01*
X-202124Y81429D01*
X-202441Y81112D01*
X-206500D01*
Y75536D01*
X-208500D01*
Y81112D01*
X-212862D01*
Y81112D01*
X-214038Y81162D01*
Y81162D01*
X-214366Y81162D01*
X-218400D01*
Y75586D01*
X-220400D01*
Y81162D01*
X-222345D01*
X-222906Y82622D01*
X-222143Y83938D01*
X-215191D01*
Y83438D01*
X-210614D01*
Y88800D01*
Y94162D01*
X-215191D01*
Y93662D01*
X-224262D01*
Y91349D01*
X-233000D01*
Y97250D01*
X-252000D01*
Y81750D01*
X-236626D01*
X-234049Y79173D01*
Y75750D01*
X-241500D01*
Y67500D01*
X-242500D01*
Y66500D01*
X-252500D01*
Y59250D01*
X-242998D01*
X-242079Y57726D01*
X-242199Y57500D01*
X-257000D01*
Y55814D01*
X-276638D01*
Y57112D01*
X-279150D01*
Y59750D01*
X-270000D01*
Y75250D01*
X-287842D01*
X-289119Y75473D01*
X-289665Y76498D01*
X-289821Y76874D01*
X-290876Y77929D01*
X-292254Y78500D01*
X-293746D01*
X-295124Y77929D01*
X-296179Y76874D01*
X-296421Y76291D01*
X-296476Y76157D01*
X-298000Y76460D01*
X-298000Y76557D01*
Y77922D01*
X-298477Y79702D01*
X-299399Y81298D01*
X-300702Y82601D01*
X-302298Y83523D01*
X-304000Y83979D01*
Y77000D01*
Y70021D01*
X-302298Y70477D01*
X-300702Y71399D01*
X-299399Y72702D01*
X-298477Y74298D01*
X-298298Y74966D01*
X-298274Y75056D01*
X-296750Y74855D01*
X-296750Y74667D01*
Y74004D01*
X-296179Y72626D01*
X-295428Y71875D01*
X-296179Y71124D01*
X-296750Y69746D01*
Y68254D01*
X-296179Y66876D01*
X-295124Y65821D01*
X-293746Y65250D01*
X-292254D01*
X-290876Y65821D01*
X-290524Y66173D01*
X-289000Y65542D01*
Y59750D01*
X-284279D01*
Y57839D01*
X-285709Y57612D01*
Y57612D01*
X-290286D01*
Y52250D01*
Y46888D01*
X-285709D01*
Y47388D01*
X-277558D01*
X-277106Y46297D01*
X-276051Y45242D01*
X-274673Y44671D01*
X-274582D01*
X-271543Y41632D01*
X-270711Y41076D01*
X-269730Y40881D01*
X-269592D01*
X-269049Y40338D01*
Y38385D01*
X-269000Y38137D01*
Y34910D01*
X-271800D01*
Y32709D01*
X-267800D01*
Y33700D01*
X-229500D01*
Y33200D01*
X-227300D01*
Y38200D01*
X-225300D01*
Y33140D01*
X-224322Y31676D01*
X-224500Y31246D01*
Y29754D01*
X-223929Y28376D01*
X-223277Y27724D01*
X-223847Y26200D01*
X-227800D01*
Y-4800D01*
X-196800D01*
Y24330D01*
X-195809Y24741D01*
X-194754Y25796D01*
X-194259Y26989D01*
X-194173Y27178D01*
X-192659Y27850D01*
X-192296Y27700D01*
X-190804D01*
X-189300Y26674D01*
Y19906D01*
X-189800D01*
Y17706D01*
X-184800D01*
X-179800D01*
Y19143D01*
X-172236D01*
X-171255Y19338D01*
X-170423Y19894D01*
X-153631Y36686D01*
X-151500D01*
X-150519Y36881D01*
X-149687Y37437D01*
X-148539Y38585D01*
X-146859Y38110D01*
X-146560Y37388D01*
X-145505Y36333D01*
X-144127Y35762D01*
X-142635D01*
X-141257Y36333D01*
X-140202Y37388D01*
X-139631Y38766D01*
Y40258D01*
X-140202Y41636D01*
X-141047Y42482D01*
X-140856Y43470D01*
X-140580Y44006D01*
X-137944D01*
Y73118D01*
X-136544Y73943D01*
X-135100Y73429D01*
Y67750D01*
X-135600D01*
Y63950D01*
X-131000D01*
Y62950D01*
X-130000D01*
Y58150D01*
X-128079D01*
Y54721D01*
X-128201Y54539D01*
X-130255D01*
X-131033Y54384D01*
X-131693Y53943D01*
X-132134Y53283D01*
X-132289Y52505D01*
Y45495D01*
X-132134Y44717D01*
X-131693Y44057D01*
X-131033Y43616D01*
X-130255Y43461D01*
X-125745D01*
X-124967Y43616D01*
X-124432Y43973D01*
X-124249Y44049D01*
X-122634Y43817D01*
X-122554Y43696D01*
X-121728Y43145D01*
X-120755Y42951D01*
X-119500D01*
Y49000D01*
X-117500D01*
Y42951D01*
X-116245D01*
X-115272Y43145D01*
X-114446Y43696D01*
X-114366Y43817D01*
X-112878Y44030D01*
X-111564Y43115D01*
Y39812D01*
X-114015Y37362D01*
X-121191D01*
X-122172Y37167D01*
X-123004Y36611D01*
X-128704Y30911D01*
X-129260Y30079D01*
X-129455Y29097D01*
Y29039D01*
X-130255D01*
X-131033Y28884D01*
X-131693Y28443D01*
X-132134Y27783D01*
X-132227Y27314D01*
X-141000D01*
X-141981Y27119D01*
X-142813Y26563D01*
X-144328Y25048D01*
X-144527Y24750D01*
X-149000Y24750D01*
X-149250Y26170D01*
Y28500D01*
X-152750D01*
Y23500D01*
X-153750D01*
Y22500D01*
X-158250D01*
Y18872D01*
X-158558Y18263D01*
X-159406Y17612D01*
X-176612D01*
Y14011D01*
X-179800D01*
Y15706D01*
X-184800D01*
X-189800D01*
Y13506D01*
X-189300D01*
Y4902D01*
X-189800D01*
Y2702D01*
X-184800D01*
X-179800D01*
Y3950D01*
X-134094D01*
X-124753Y-5390D01*
X-124753Y-5390D01*
X-123860Y-5987D01*
X-122807Y-6196D01*
X-122190D01*
X-121112Y-7274D01*
Y-7362D01*
X-120862Y-8783D01*
Y-11000D01*
X-116522D01*
Y-12000D01*
X-115521D01*
Y-16362D01*
X-112181D01*
Y-15862D01*
X-106136D01*
X-104638Y-15862D01*
Y-15862D01*
X-104612D01*
Y-15862D01*
X-101815D01*
Y-20000D01*
X-103000D01*
X-103000Y-33555D01*
X-104000Y-34186D01*
X-105000Y-33555D01*
Y-20000D01*
X-112500D01*
Y-24436D01*
X-117638D01*
Y-23138D01*
X-124323D01*
X-125456Y-22038D01*
X-125500Y-21688D01*
Y-20504D01*
X-126071Y-19126D01*
X-127126Y-18071D01*
X-128504Y-17500D01*
X-129996D01*
X-131374Y-18071D01*
X-132429Y-19126D01*
X-133000Y-20504D01*
Y-21996D01*
X-132847Y-22366D01*
X-133362Y-23138D01*
X-133362D01*
Y-30862D01*
X-131828D01*
Y-37500D01*
X-133000D01*
Y-47987D01*
X-133049Y-48235D01*
Y-50745D01*
X-133369Y-51224D01*
X-133564Y-52205D01*
Y-54761D01*
X-134179Y-55376D01*
X-134750Y-56754D01*
Y-57688D01*
X-134826Y-58299D01*
X-136030Y-59138D01*
X-138771D01*
Y-64000D01*
X-139771D01*
Y-65000D01*
X-144612D01*
Y-68445D01*
X-144612Y-68862D01*
X-145620Y-69969D01*
X-147781D01*
Y-76000D01*
X-140256D01*
Y-77000D01*
X-139256D01*
Y-84031D01*
X-133101D01*
X-132500Y-88674D01*
Y-97250D01*
X-131394D01*
X-130333Y-97784D01*
X-129954Y-97812D01*
X-129603Y-97958D01*
X-99853D01*
X-98770Y-98281D01*
Y-98281D01*
X-92244D01*
Y-91250D01*
Y-84219D01*
X-95999D01*
X-96884Y-82978D01*
X-95856Y-80000D01*
X-95500D01*
X-94000Y-80058D01*
Y-80500D01*
X-90750D01*
Y-72500D01*
X-88750D01*
Y-80500D01*
X-85500D01*
Y-80058D01*
X-84000Y-80000D01*
X-83976Y-80000D01*
X-81819D01*
Y-83138D01*
X-82112D01*
Y-90819D01*
X-82112D01*
Y-91181D01*
X-82112D01*
Y-98862D01*
X-74388D01*
Y-98862D01*
X-74134Y-98693D01*
X-73996Y-98750D01*
X-72504D01*
X-72124Y-98593D01*
X-70600Y-98700D01*
X-70600Y-98700D01*
X-70600Y-98700D01*
X-67000D01*
Y-93900D01*
X-65000D01*
Y-98700D01*
X-62770D01*
X-61350Y-98950D01*
X-59980Y-98950D01*
X-57750D01*
Y-94150D01*
X-55750D01*
Y-98950D01*
X-52500D01*
Y-99000D01*
X-49000D01*
Y-94000D01*
X-48000D01*
Y-93000D01*
X-43500D01*
Y-89000D01*
X-43942D01*
X-44000Y-87500D01*
X-44000D01*
Y-78500D01*
X-47453D01*
X-51217Y-74736D01*
Y-72612D01*
X-43138D01*
Y-64888D01*
X-43138D01*
Y-64112D01*
X-43138D01*
Y-61456D01*
X-38000Y-56319D01*
X-32800D01*
X-31435Y-56047D01*
X-30277Y-55273D01*
X-28227Y-53223D01*
X-27664Y-52380D01*
X-26690Y-51407D01*
X-25166Y-52020D01*
Y-52408D01*
X-24991Y-53291D01*
X-24491Y-54039D01*
X-20454Y-58076D01*
X-21085Y-59600D01*
X-28000D01*
Y-66762D01*
X-28064Y-67085D01*
Y-71255D01*
X-28805Y-71750D01*
X-30297D01*
X-31675Y-72321D01*
X-32730Y-73376D01*
X-33301Y-74754D01*
Y-76246D01*
X-32730Y-77624D01*
X-31675Y-78679D01*
X-30297Y-79250D01*
X-28805D01*
X-27427Y-78679D01*
X-26386Y-77638D01*
X-25410Y-78614D01*
X-24578Y-79170D01*
X-24324Y-79221D01*
X-23500Y-80045D01*
Y-80246D01*
X-22929Y-81624D01*
X-21874Y-82679D01*
X-22294Y-84155D01*
X-22655Y-85024D01*
X-23456Y-85213D01*
X-24354Y-84904D01*
X-24469Y-84628D01*
X-25524Y-83573D01*
X-26902Y-83002D01*
X-28394D01*
X-29772Y-83573D01*
X-30827Y-84628D01*
X-31398Y-86006D01*
Y-87498D01*
X-30827Y-88876D01*
X-29772Y-89931D01*
X-28394Y-90502D01*
X-28049Y-91328D01*
Y-95324D01*
X-28064Y-95400D01*
X-28000Y-95723D01*
Y-100400D01*
X-17209D01*
X-17185Y-100417D01*
X-17286Y-101088D01*
X-17962Y-101941D01*
X-313941D01*
Y-57699D01*
X-312500Y-57500D01*
X-312417Y-57500D01*
X-299500D01*
Y-48626D01*
X-298269Y-47395D01*
X-297208Y-47835D01*
X-295716D01*
X-294306Y-48900D01*
Y-60367D01*
X-295250Y-61500D01*
X-296274Y-61500D01*
X-304750D01*
Y-71000D01*
X-304750Y-71000D01*
X-305250Y-72250D01*
X-305250D01*
X-305250Y-72317D01*
Y-82250D01*
X-294250D01*
Y-72524D01*
X-294250Y-72250D01*
X-293589Y-71000D01*
X-285250D01*
Y-62020D01*
X-283804Y-61311D01*
X-273639Y-71476D01*
X-274250Y-72951D01*
Y-85000D01*
X-268000D01*
Y-78610D01*
X-267000Y-77500D01*
X-254000D01*
X-253000Y-78610D01*
Y-85000D01*
X-238500D01*
Y-78466D01*
X-237371Y-77136D01*
X-233726D01*
X-233246Y-78296D01*
X-232191Y-79351D01*
X-230813Y-79922D01*
X-229321D01*
X-229023Y-79798D01*
X-227700Y-80682D01*
X-227607Y-82230D01*
X-229102Y-83726D01*
X-230421Y-84272D01*
X-231476Y-85327D01*
X-232046Y-86705D01*
Y-87919D01*
X-232070Y-87935D01*
X-233561D01*
X-234940Y-88505D01*
X-235994Y-89560D01*
X-236565Y-90939D01*
Y-92430D01*
X-235994Y-93809D01*
X-234940Y-94864D01*
X-233561Y-95435D01*
X-232070D01*
X-230691Y-94864D01*
X-229636Y-93809D01*
X-229065Y-92430D01*
Y-91216D01*
X-229042Y-91201D01*
X-227551D01*
X-226172Y-90630D01*
X-225524Y-89982D01*
X-224000Y-90557D01*
Y-99000D01*
X-217750D01*
Y-86000D01*
X-216750D01*
Y-85000D01*
X-209500D01*
Y-78610D01*
X-208500Y-77500D01*
X-196024D01*
X-195500Y-77500D01*
X-194500Y-78610D01*
Y-85000D01*
X-188250D01*
Y-73000D01*
X-193976D01*
X-194500Y-73000D01*
X-195500Y-71890D01*
Y-64000D01*
X-197750D01*
Y-60044D01*
X-197185Y-59758D01*
X-196226Y-59577D01*
X-195374Y-60429D01*
X-193996Y-61000D01*
X-192504D01*
X-191126Y-60429D01*
X-190071Y-59374D01*
X-189500Y-57996D01*
Y-56504D01*
X-189575Y-56324D01*
X-188556Y-54800D01*
X-188100D01*
Y-50800D01*
X-191300D01*
Y-48800D01*
X-188100D01*
Y-46009D01*
X-185066D01*
X-184800Y-46062D01*
X-183331D01*
X-181053Y-48340D01*
Y-51200D01*
X-181000Y-51466D01*
Y-54683D01*
X-181500Y-56000D01*
X-181500D01*
X-181500Y-56000D01*
Y-59000D01*
X-177000D01*
Y-60000D01*
X-176000D01*
Y-64000D01*
X-172600D01*
Y-64850D01*
X-169000D01*
Y-60050D01*
X-167000D01*
Y-64850D01*
X-163400D01*
X-162600Y-65850D01*
Y-65850D01*
X-159000D01*
Y-61050D01*
X-158000D01*
Y-60050D01*
X-153400D01*
Y-56250D01*
X-152061Y-55803D01*
X-147300D01*
X-147034Y-55750D01*
X-137000D01*
Y-41250D01*
X-150000D01*
Y-50297D01*
X-153900D01*
Y-49150D01*
X-156700D01*
X-156857Y-48365D01*
X-157250Y-47776D01*
Y-46504D01*
X-157345Y-46274D01*
X-156327Y-44750D01*
X-153500D01*
Y-40000D01*
X-160000D01*
Y-39000D01*
X-161000D01*
Y-33250D01*
X-166500D01*
Y-38790D01*
X-168024Y-39093D01*
X-168321Y-38376D01*
X-169376Y-37321D01*
X-169482Y-36786D01*
X-169071Y-36374D01*
X-168500Y-34996D01*
Y-33504D01*
X-168652Y-33136D01*
X-167634Y-31612D01*
X-166638D01*
Y-30010D01*
X-166000Y-28750D01*
X-164693D01*
X-164333Y-28899D01*
X-155812D01*
X-150000Y-31773D01*
Y-32250D01*
X-148750D01*
X-148705Y-32253D01*
X-148359Y-32396D01*
X-138376D01*
X-138023Y-32250D01*
X-137000D01*
Y-31371D01*
X-136752Y-30773D01*
Y-19292D01*
X-136858Y-19035D01*
X-136842Y-18758D01*
X-137000Y-17750D01*
X-137000D01*
X-137180Y-17524D01*
X-136446Y-16000D01*
X-132000D01*
Y-10500D01*
X-137750D01*
X-143500D01*
Y-13575D01*
X-144791Y-14385D01*
X-147915Y-12874D01*
Y-5088D01*
X-148000Y-4884D01*
Y-3500D01*
X-149325D01*
X-149630Y-3374D01*
X-157027D01*
X-157114Y-3410D01*
X-158638Y-3138D01*
Y-3138D01*
X-162714D01*
Y-8000D01*
X-164714D01*
Y-3138D01*
X-168791D01*
Y-3138D01*
X-169279Y-3464D01*
X-175050D01*
X-179800Y-1239D01*
Y702D01*
X-184800D01*
X-189800D01*
Y-1498D01*
X-189800Y-1498D01*
X-189332Y-3022D01*
X-189363Y-8013D01*
X-189359Y-8022D01*
X-189363Y-8030D01*
X-189300Y-8179D01*
Y-10102D01*
X-189800D01*
Y-12302D01*
X-184800D01*
Y-14302D01*
X-189800D01*
Y-16502D01*
X-189300D01*
Y-25936D01*
X-190221Y-26120D01*
X-191054Y-26676D01*
X-195036Y-30658D01*
X-195276Y-31017D01*
X-196800Y-30555D01*
Y-6800D01*
X-228800D01*
Y-5800D01*
X-229800D01*
Y26200D01*
X-259000D01*
Y26970D01*
X-259571Y28348D01*
X-260626Y29403D01*
X-262004Y29974D01*
X-263496D01*
X-264874Y29403D01*
X-265929Y28348D01*
X-266500Y26970D01*
Y26848D01*
X-266776Y26663D01*
X-268300Y27478D01*
Y28510D01*
X-267800D01*
Y30709D01*
X-272800D01*
X-277800D01*
Y29461D01*
X-282818D01*
X-286558Y33201D01*
X-286500Y33340D01*
Y34832D01*
X-287071Y36210D01*
X-288126Y37265D01*
X-289504Y37836D01*
X-290996D01*
X-291508Y38178D01*
Y38846D01*
X-292079Y40224D01*
X-293134Y41279D01*
X-293311Y43002D01*
X-293000Y43754D01*
Y45246D01*
X-293049Y45364D01*
X-292286Y46506D01*
Y51250D01*
X-296862D01*
Y48250D01*
X-297496D01*
X-298874Y47679D01*
X-299929Y46624D01*
X-300500Y45246D01*
Y43754D01*
X-299929Y42376D01*
X-298874Y41321D01*
X-298696Y39598D01*
X-299008Y38846D01*
Y37463D01*
X-299362Y37066D01*
X-300241Y36350D01*
X-303800D01*
Y31750D01*
X-304800D01*
Y30750D01*
X-309600D01*
Y27150D01*
X-306431D01*
X-305616Y25626D01*
X-305700Y25500D01*
X-307500D01*
Y17500D01*
X-301317D01*
X-300000Y17000D01*
Y17000D01*
X-300000Y17000D01*
X-297000D01*
Y21500D01*
X-296000D01*
Y22500D01*
X-292000D01*
Y26000D01*
X-293284D01*
X-294328Y27524D01*
X-294279Y27650D01*
X-292900D01*
Y30194D01*
X-291957D01*
X-291354Y30314D01*
X-291147Y30003D01*
X-285905Y24762D01*
X-285012Y24165D01*
X-283958Y23955D01*
X-277300D01*
Y19007D01*
Y9004D01*
Y-735D01*
X-281206D01*
X-282187Y-930D01*
X-283019Y-1486D01*
X-291569Y-10036D01*
X-292608Y-10022D01*
X-293319Y-9791D01*
X-293389Y-9623D01*
X-294444Y-8568D01*
X-294055Y-7126D01*
X-293475Y-6421D01*
X-291984D01*
X-290605Y-5850D01*
X-289550Y-4795D01*
X-288979Y-3417D01*
Y-1925D01*
X-289185Y-1430D01*
X-289571Y60D01*
X-288516Y1115D01*
X-287945Y2493D01*
Y3985D01*
X-288516Y5363D01*
X-289571Y6418D01*
X-290949Y6989D01*
X-292441D01*
X-293667Y8131D01*
X-293755Y8343D01*
X-294810Y9398D01*
X-296188Y9969D01*
X-297680D01*
X-299058Y9398D01*
X-300113Y8343D01*
X-300684Y6965D01*
Y5473D01*
X-300113Y4095D01*
X-299058Y3040D01*
X-297680Y2469D01*
X-296188D01*
X-295452Y1784D01*
X-295325Y37D01*
X-295909Y-547D01*
X-296054Y-898D01*
X-297066Y-2128D01*
X-298558D01*
X-299937Y-2699D01*
X-300991Y-3754D01*
X-301562Y-5132D01*
Y-6624D01*
X-300991Y-8002D01*
X-299937Y-9057D01*
X-299853Y-9092D01*
X-299747Y-9623D01*
X-300318Y-11001D01*
Y-11616D01*
X-301632Y-13000D01*
X-305000D01*
Y-18500D01*
X-299000D01*
Y-16448D01*
X-297476Y-15430D01*
X-297314Y-15497D01*
X-295822D01*
X-294444Y-14926D01*
X-294088Y-14571D01*
X-292564Y-15202D01*
Y-25239D01*
X-292369Y-26220D01*
X-291813Y-27052D01*
X-290549Y-28316D01*
Y-30015D01*
X-290500Y-30263D01*
Y-32956D01*
X-291107D01*
X-291990Y-33131D01*
X-293100Y-32041D01*
X-293160Y-31897D01*
X-294215Y-30843D01*
X-295593Y-30272D01*
X-297085D01*
X-297976Y-30641D01*
X-299500Y-29888D01*
Y-29500D01*
X-312417D01*
X-312500Y-29500D01*
X-313941Y-29301D01*
Y-27134D01*
X-313000Y-26000D01*
X-312417Y-26000D01*
X-307000D01*
Y-19500D01*
Y-13000D01*
X-312417D01*
X-313000Y-13000D01*
X-313941Y-11866D01*
Y101941D01*
X-73954D01*
X-73754Y100500D01*
D02*
G37*
G36*
X-173750Y95750D02*
Y93000D01*
X-175000Y91750D01*
X-184000D01*
X-185500Y90250D01*
Y86500D01*
X-195500D01*
Y98000D01*
X-176000D01*
X-173750Y95750D01*
D02*
G37*
G36*
X68894Y74000D02*
X68894Y73043D01*
X68972Y72650D01*
X68998Y72251D01*
X69493Y70401D01*
X69670Y70042D01*
X69799Y69663D01*
X70757Y68004D01*
X71020Y67704D01*
X71243Y67371D01*
X72597Y66017D01*
X72930Y65794D01*
X73230Y65531D01*
X74889Y64573D01*
X75268Y64444D01*
X75627Y64267D01*
X77477Y63771D01*
X77876Y63745D01*
X78268Y63667D01*
X80184Y63667D01*
X80576Y63745D01*
X80975Y63771D01*
X82825Y64267D01*
X83184Y64444D01*
X83563Y64573D01*
X85222Y65530D01*
X85523Y65794D01*
X85855Y66017D01*
X87210Y67371D01*
X87432Y67703D01*
X87696Y68004D01*
X88653Y69663D01*
X88782Y70042D01*
X88959Y70401D01*
X89455Y72251D01*
X89481Y72650D01*
X89559Y73042D01*
X89559Y74000D01*
X89559Y74000D01*
X89559Y74000D01*
Y91894D01*
X128941Y91894D01*
Y78699D01*
X110586D01*
Y66301D01*
X128941D01*
Y-66301D01*
X110586D01*
Y-78699D01*
X128941D01*
Y-91441D01*
X89559Y-91441D01*
Y-73997D01*
X89559Y-73281D01*
X89500Y-72986D01*
X89500Y-72685D01*
X89221Y-71280D01*
X89106Y-71002D01*
X89047Y-70707D01*
X88500Y-69384D01*
X88333Y-69134D01*
X88217Y-68856D01*
X87423Y-67665D01*
X87210Y-67452D01*
X87043Y-67201D01*
X86031Y-66189D01*
X85781Y-66021D01*
X85568Y-65808D01*
X84378Y-65012D01*
X84100Y-64896D01*
X83850Y-64729D01*
X82528Y-64180D01*
X82233Y-64121D01*
X81955Y-64005D01*
X80551Y-63724D01*
X80250Y-63724D01*
X79955Y-63665D01*
X79244Y-63664D01*
X79244Y-63664D01*
X79235Y-63664D01*
X79234Y-63664D01*
X79227D01*
X79226Y-63664D01*
X78510D01*
X78214Y-63723D01*
X77913D01*
X76508Y-64002D01*
X76229Y-64118D01*
X75934Y-64177D01*
X74610Y-64725D01*
X74360Y-64892D01*
X74081Y-65008D01*
X72890Y-65804D01*
X72677Y-66017D01*
X72427Y-66184D01*
X71413Y-67197D01*
X71246Y-67448D01*
X71033Y-67661D01*
X70237Y-68852D01*
X70122Y-69130D01*
X69954Y-69381D01*
X69406Y-70705D01*
X69347Y-71000D01*
X69232Y-71278D01*
X68952Y-72684D01*
Y-72985D01*
X68894Y-73280D01*
X68894Y-101941D01*
X10374D01*
X9677Y-101043D01*
X9596Y-100417D01*
X9620Y-100400D01*
X53000D01*
Y-94056D01*
X60373Y-86684D01*
X61396Y-87108D01*
X62888D01*
X64267Y-86537D01*
X65321Y-85482D01*
X65892Y-84104D01*
Y-82612D01*
X65321Y-81234D01*
X64267Y-80179D01*
X62888Y-79608D01*
X61396D01*
X60018Y-80179D01*
X58963Y-81234D01*
X58891Y-81407D01*
X58618Y-81461D01*
X57786Y-82017D01*
X49404Y-90400D01*
X44806D01*
Y-69600D01*
X49404D01*
X54117Y-74313D01*
X54949Y-74869D01*
X55930Y-75064D01*
X58761D01*
X59376Y-75679D01*
X60754Y-76250D01*
X62246D01*
X63624Y-75679D01*
X64679Y-74624D01*
X65250Y-73246D01*
Y-71754D01*
X64679Y-70376D01*
X63624Y-69321D01*
X62246Y-68750D01*
X60754D01*
X59376Y-69321D01*
X58761Y-69936D01*
X56992D01*
X53064Y-66008D01*
Y-64600D01*
X53000Y-64277D01*
Y-59600D01*
X44806D01*
Y-57755D01*
X65881Y-36681D01*
X66381Y-35933D01*
X66556Y-35050D01*
Y-11000D01*
X66381Y-10117D01*
X65881Y-9369D01*
X62837Y-6325D01*
X63338Y-4672D01*
X63343Y-4671D01*
X64091Y-4171D01*
X77381Y9119D01*
X77881Y9867D01*
X78056Y10750D01*
Y43505D01*
X78059Y43506D01*
X79114Y44560D01*
X79685Y45939D01*
Y47430D01*
X79114Y48809D01*
X78059Y49864D01*
X76680Y50434D01*
X75189D01*
X73810Y49864D01*
X72755Y48809D01*
X72185Y47430D01*
Y45939D01*
X72755Y44560D01*
X73444Y43872D01*
Y11705D01*
X61505Y-234D01*
X50974D01*
Y5444D01*
X51750D01*
X52633Y5619D01*
X53381Y6119D01*
X61405Y14143D01*
X61905Y14891D01*
X62080Y15774D01*
Y40777D01*
X61905Y41660D01*
X61405Y42408D01*
X54231Y49582D01*
X53483Y50082D01*
X52600Y50257D01*
X52504D01*
X51351Y51411D01*
X51934Y52819D01*
X85670D01*
X87869Y50619D01*
X88617Y50119D01*
X89500Y49944D01*
X93337D01*
X93934Y48667D01*
Y45000D01*
X101141D01*
X108348D01*
Y48667D01*
X107848D01*
Y55333D01*
X108348D01*
Y59000D01*
X101141D01*
Y60000D01*
X100141D01*
Y64667D01*
X93934D01*
Y64667D01*
X92496Y64000D01*
X91004D01*
X89626Y63429D01*
X88571Y62374D01*
X88000Y60996D01*
Y59504D01*
X88426Y58475D01*
X87724Y57542D01*
X87590Y57416D01*
X87398Y57277D01*
X86625Y57431D01*
X45330D01*
X44806Y57955D01*
Y59600D01*
X53000D01*
Y64277D01*
X53064Y64600D01*
Y70011D01*
X53679Y70626D01*
X54250Y72004D01*
Y73496D01*
X53679Y74874D01*
X52624Y75929D01*
X51246Y76500D01*
X49754D01*
X48376Y75929D01*
X47321Y74874D01*
X46750Y73496D01*
Y72004D01*
X47115Y71124D01*
X46472Y69833D01*
X46330Y69701D01*
X44806Y69889D01*
Y90400D01*
X47936D01*
Y87239D01*
X47321Y86624D01*
X46750Y85246D01*
Y83754D01*
X47321Y82376D01*
X48376Y81321D01*
X49754Y80750D01*
X51246D01*
X52624Y81321D01*
X53679Y82376D01*
X54250Y83754D01*
Y85246D01*
X53679Y86624D01*
X53064Y87239D01*
Y95400D01*
X53000Y95723D01*
Y100400D01*
X-28000D01*
Y95723D01*
X-28064Y95400D01*
X-28049Y95324D01*
Y91235D01*
X-28000Y90987D01*
Y90400D01*
X-27883D01*
X-27854Y90254D01*
X-27298Y89422D01*
X-26894Y89018D01*
X-26920Y88956D01*
Y87464D01*
X-26349Y86086D01*
X-25294Y85031D01*
X-24734Y84799D01*
X-25108Y83392D01*
X-26600D01*
X-27978Y82821D01*
X-29033Y81766D01*
X-29604Y80387D01*
Y79153D01*
X-30312Y78649D01*
X-31012Y78405D01*
X-33053Y80447D01*
X-33946Y81043D01*
X-35000Y81253D01*
X-38754D01*
Y85000D01*
X-46644D01*
X-47754Y86000D01*
X-47754Y86524D01*
Y92250D01*
X-60754D01*
Y94250D01*
X-47754D01*
Y100417D01*
X-47754Y100500D01*
X-47554Y101941D01*
X68894D01*
X68894Y74000D01*
D02*
G37*
G36*
X-52254Y85000D02*
X-52254Y84476D01*
Y72000D01*
X-53364Y71000D01*
X-59754D01*
Y64750D01*
X-47754D01*
Y71000D01*
X-46644Y72000D01*
X-38754D01*
Y75747D01*
X-36140D01*
X-33053Y72660D01*
Y54113D01*
X-33984Y53182D01*
X-34072Y53049D01*
X-35746Y52993D01*
X-35863Y53056D01*
X-37009Y54201D01*
X-38491Y55057D01*
X-40144Y55500D01*
X-41856D01*
X-43509Y55057D01*
X-44991Y54201D01*
X-46201Y52991D01*
X-47057Y51509D01*
X-47500Y49856D01*
Y48144D01*
X-47057Y46491D01*
X-46983Y46363D01*
X-47012Y46335D01*
X-47583Y44956D01*
Y43464D01*
X-47012Y42086D01*
X-45957Y41031D01*
X-44579Y40460D01*
X-43087D01*
X-41709Y41031D01*
X-40654Y42086D01*
X-40482Y42500D01*
X-40144D01*
X-38491Y42943D01*
X-37009Y43799D01*
X-36314Y44494D01*
X-34790Y43863D01*
Y33736D01*
X-34616Y32861D01*
X-34721Y32480D01*
X-35515Y31337D01*
X-41164D01*
Y28940D01*
X-32475D01*
X-31711Y29470D01*
X-31330Y29575D01*
X-30455Y29401D01*
X-30455Y29401D01*
X-23050D01*
X-22419Y27877D01*
X-22648Y27648D01*
X-23124Y26500D01*
X-23124Y21250D01*
X-22648Y20102D01*
X-14874Y12327D01*
Y-8077D01*
X-25342Y-18546D01*
X-25407Y-18532D01*
X-26750Y-17799D01*
Y-16754D01*
X-27321Y-15376D01*
X-28376Y-14321D01*
X-29754Y-13750D01*
X-31246D01*
X-31830Y-13992D01*
X-33354Y-13060D01*
Y-10374D01*
X-31679D01*
X-30874Y-11179D01*
X-29496Y-11750D01*
X-28004D01*
X-26626Y-11179D01*
X-25571Y-10124D01*
X-25000Y-8746D01*
Y-7254D01*
X-25207Y-6755D01*
X-25598Y-5268D01*
X-24543Y-4213D01*
X-23972Y-2835D01*
Y-1343D01*
X-24543Y35D01*
X-25598Y1090D01*
X-26976Y1661D01*
X-28468D01*
X-29846Y1090D01*
X-30687Y250D01*
X-33354D01*
Y4223D01*
X-32854D01*
Y6620D01*
X-42164D01*
Y8620D01*
X-32854D01*
Y11017D01*
X-31985Y12181D01*
X-31830Y12285D01*
X-31746Y12250D01*
X-30254D01*
X-28876Y12821D01*
X-27821Y13876D01*
X-27250Y15254D01*
Y16746D01*
X-27821Y18124D01*
X-28876Y19179D01*
X-30254Y19750D01*
X-31746D01*
X-31830Y19715D01*
X-32073Y19755D01*
X-33354Y20733D01*
Y24543D01*
X-32854D01*
Y26940D01*
X-42164D01*
Y27940D01*
X-43164D01*
Y31337D01*
X-48731D01*
X-50042Y32563D01*
Y34606D01*
X-50237Y35587D01*
X-50793Y36419D01*
X-52455Y38081D01*
X-52520Y38240D01*
X-52677Y38396D01*
X-52097Y38977D01*
X-51776Y39750D01*
X-54750D01*
Y40750D01*
X-55750D01*
Y44132D01*
X-56186Y44423D01*
Y47938D01*
X-54624Y49500D01*
X-53754D01*
X-52376Y50071D01*
X-51321Y51126D01*
X-50750Y52504D01*
Y53996D01*
X-51156Y54976D01*
X-50621Y56139D01*
X-50292Y56500D01*
X-47754D01*
Y62750D01*
X-60754D01*
Y63750D01*
X-61754D01*
Y71000D01*
X-63650D01*
X-64567Y72524D01*
X-64314Y73135D01*
Y74627D01*
X-64885Y76005D01*
X-65940Y77060D01*
X-67318Y77631D01*
X-68810D01*
X-70188Y77060D01*
X-70803Y76445D01*
X-73576D01*
X-74557Y76250D01*
X-75389Y75694D01*
X-75562Y75521D01*
X-76491Y76057D01*
X-78144Y76500D01*
X-79856D01*
X-81509Y76057D01*
X-82991Y75201D01*
X-83976Y74216D01*
X-84899Y74409D01*
X-85500Y74769D01*
X-85500Y79000D01*
X-86000Y80317D01*
Y80866D01*
X-84536Y81536D01*
X-83509Y80943D01*
X-81856Y80500D01*
X-80144D01*
X-78491Y80943D01*
X-77009Y81799D01*
X-75799Y83009D01*
X-74943Y84491D01*
X-74828Y84921D01*
X-73754Y86000D01*
X-65209D01*
X-64577Y84476D01*
X-64679Y84374D01*
X-65250Y82996D01*
Y81504D01*
X-64679Y80126D01*
X-63624Y79071D01*
X-62246Y78500D01*
X-60754D01*
X-59376Y79071D01*
X-58321Y80126D01*
X-57750Y81504D01*
Y82996D01*
X-58321Y84374D01*
X-58423Y84476D01*
X-57792Y86000D01*
X-53364D01*
X-52254Y85000D01*
D02*
G37*
G36*
X-74750Y13875D02*
X-74586Y13908D01*
X-73428Y13273D01*
X-73062Y12978D01*
X-72971Y12377D01*
X-74030Y11100D01*
X-77600D01*
Y8564D01*
X-84318D01*
X-84477Y8630D01*
X-85523D01*
X-86490Y8230D01*
X-86646Y8073D01*
X-87227Y8654D01*
X-88000Y8974D01*
Y6000D01*
X-89000D01*
Y5000D01*
X-91974D01*
X-91653Y4227D01*
X-91073Y3646D01*
X-91230Y3490D01*
X-91489Y2864D01*
X-91619Y2669D01*
X-91814Y1688D01*
Y-761D01*
X-92429Y-1376D01*
X-93000Y-2754D01*
Y-4202D01*
X-93127Y-4322D01*
X-94323Y-5034D01*
X-96138Y-3219D01*
Y1431D01*
X-95638D01*
Y5271D01*
X-100500D01*
Y6271D01*
X-101500D01*
Y11112D01*
X-105083D01*
X-105362Y11112D01*
X-106698Y11429D01*
X-106750Y11567D01*
Y13053D01*
X-105226Y13685D01*
X-105124Y13583D01*
X-103746Y13012D01*
X-102254D01*
X-100876Y13583D01*
X-99821Y14638D01*
X-99693Y14946D01*
X-98957Y15438D01*
X-97258Y17138D01*
X-94094D01*
Y16098D01*
X-93523Y14720D01*
X-92468Y13665D01*
X-91090Y13094D01*
X-89598D01*
X-88220Y13665D01*
X-87347Y14538D01*
X-85181D01*
X-84298Y14713D01*
X-83575Y15196D01*
X-83550Y15191D01*
X-80750D01*
X-79579Y15424D01*
X-79091Y15750D01*
X-78454Y14796D01*
X-77213Y13968D01*
X-76750Y13875D01*
Y18900D01*
X-74750D01*
Y13875D01*
D02*
G37*
G36*
X-73350Y-9000D02*
X-68550D01*
Y-10000D01*
X-67550D01*
Y-14600D01*
X-63750D01*
Y-14100D01*
X-60361D01*
X-59343Y-15624D01*
X-59500Y-16004D01*
Y-17496D01*
X-58929Y-18874D01*
X-57874Y-19929D01*
X-57542Y-20067D01*
X-57184Y-21864D01*
X-60626Y-25306D01*
X-61496D01*
X-62874Y-25877D01*
X-63929Y-26932D01*
X-64500Y-28311D01*
Y-29802D01*
X-63929Y-31181D01*
X-62874Y-32236D01*
X-61496Y-32806D01*
X-60004D01*
X-58838Y-32324D01*
X-57958Y-32666D01*
X-57314Y-33079D01*
Y-37750D01*
X-60750D01*
Y-48523D01*
X-62274Y-49542D01*
X-62374Y-49500D01*
X-63866D01*
X-64750Y-48910D01*
Y-37750D01*
X-69172D01*
X-69183Y-36226D01*
X-68576Y-35619D01*
X-68005Y-34241D01*
Y-32749D01*
X-68576Y-31371D01*
X-69631Y-30316D01*
X-71009Y-29745D01*
X-72501D01*
X-73879Y-30316D01*
X-74934Y-31371D01*
X-74976Y-31472D01*
X-76500Y-31168D01*
Y-28171D01*
X-75496Y-27500D01*
X-74004D01*
X-72626Y-26929D01*
X-71571Y-25874D01*
X-71000Y-24496D01*
Y-23004D01*
X-71571Y-21626D01*
X-72626Y-20571D01*
X-74004Y-20000D01*
X-75496D01*
X-76116Y-20257D01*
X-76500Y-20000D01*
Y-20000D01*
X-84000D01*
X-84000Y-33555D01*
X-85000Y-34186D01*
X-86000Y-33555D01*
Y-20000D01*
X-86997D01*
Y-15000D01*
X-86997Y-15000D01*
X-87207Y-13946D01*
X-87803Y-13053D01*
X-87803Y-13053D01*
X-88888Y-11969D01*
Y-8658D01*
X-88679Y-7893D01*
X-87928Y-7011D01*
X-87126Y-6679D01*
X-86496Y-6049D01*
X-85795Y-5690D01*
X-84570Y-5983D01*
X-84124Y-6429D01*
X-82746Y-7000D01*
X-81254D01*
X-79876Y-6429D01*
X-79455Y-6008D01*
X-78100Y-5600D01*
X-78100Y-5600D01*
Y-5600D01*
X-78100Y-5600D01*
X-73350D01*
Y-9000D01*
D02*
G37*
G36*
X-175314Y-5134D02*
X-175269Y-5088D01*
X-169279D01*
Y-10897D01*
X-168291Y-11884D01*
Y-12362D01*
X-167813D01*
X-165648Y-14527D01*
X-159431D01*
X-157027Y-12122D01*
Y-4997D01*
X-149630D01*
X-149539Y-5088D01*
Y-13892D01*
X-138376Y-19292D01*
Y-30773D01*
X-148359D01*
X-155432Y-27276D01*
X-164333D01*
X-167138Y-24471D01*
Y-21959D01*
X-169649D01*
X-170701Y-20908D01*
X-174392D01*
X-175269Y-10897D01*
X-182169Y-9439D01*
X-186246Y-9502D01*
X-187739Y-8023D01*
X-187703Y-2093D01*
X-181803D01*
X-175314Y-5134D01*
D02*
G37*
G36*
X30169Y22831D02*
Y21160D01*
X29664D01*
X28286Y20589D01*
X27231Y19534D01*
X26660Y18156D01*
Y16664D01*
X27231Y15286D01*
X28286Y14231D01*
X29664Y13660D01*
X30169D01*
Y-22831D01*
X21500Y-31500D01*
X9926D01*
Y-29511D01*
X10124Y-29429D01*
X11179Y-28374D01*
X11750Y-26996D01*
Y-25504D01*
X11179Y-24126D01*
X10124Y-23071D01*
X8746Y-22500D01*
X7254D01*
X5876Y-23071D01*
X4821Y-24126D01*
X4250Y-25504D01*
Y-26996D01*
X4821Y-28374D01*
X5314Y-28867D01*
Y-31500D01*
X-17250D01*
Y-30254D01*
X-17821Y-28876D01*
X-18876Y-27821D01*
X-20254Y-27250D01*
X-21746D01*
X-23124Y-27821D01*
X-24179Y-28876D01*
X-25700Y-28565D01*
X-27000Y-27308D01*
Y-22500D01*
X-13250Y-8750D01*
Y13000D01*
X-21500Y21250D01*
X-21500Y26500D01*
X-15000Y33000D01*
X20000Y33000D01*
X30169Y22831D01*
D02*
G37*
G36*
X-265926Y-2203D02*
X-265729Y-3195D01*
X-266300Y-4573D01*
Y-6065D01*
X-265729Y-7443D01*
X-264674Y-8498D01*
X-263296Y-9069D01*
X-261804D01*
X-260800Y-9740D01*
Y-37800D01*
X-255544D01*
X-255520Y-39314D01*
X-256898Y-39885D01*
X-257953Y-40940D01*
X-258524Y-42318D01*
Y-43478D01*
X-259739Y-44489D01*
X-260601Y-42859D01*
X-260554Y-42746D01*
Y-41254D01*
X-261125Y-39876D01*
X-262180Y-38821D01*
X-263558Y-38250D01*
X-264598D01*
X-266168Y-36680D01*
X-267000Y-36124D01*
X-267981Y-35929D01*
X-268300D01*
Y-31006D01*
Y-21003D01*
Y-11001D01*
Y-2422D01*
X-266782Y-1670D01*
X-265926Y-2203D01*
D02*
G37*
G36*
X-32104Y-31500D02*
Y-35786D01*
X-32214Y-36883D01*
X-33580Y-37250D01*
X-37750D01*
Y-44250D01*
X-38750D01*
Y-45250D01*
X-45250D01*
Y-51250D01*
X-45016D01*
X-44433Y-52658D01*
X-48163Y-56388D01*
X-50819D01*
Y-56388D01*
X-51181D01*
X-52515Y-56157D01*
X-53200Y-54833D01*
X-52750Y-53746D01*
Y-52254D01*
X-51723Y-50750D01*
X-48750D01*
Y-37750D01*
X-52186D01*
Y-31591D01*
X-50974Y-30837D01*
X-33354D01*
X-32104Y-31500D01*
D02*
G37*
G36*
X-112500Y-35000D02*
X-112000Y-36317D01*
Y-49000D01*
X-94500D01*
Y-51000D01*
X-112000D01*
Y-63683D01*
X-112500Y-65000D01*
X-112500Y-66317D01*
Y-74953D01*
X-114509Y-76963D01*
X-115374Y-77321D01*
X-116429Y-78376D01*
X-117000Y-79754D01*
Y-81246D01*
X-116429Y-82624D01*
X-115400Y-83653D01*
X-115401Y-83832D01*
X-115644Y-85217D01*
X-117591Y-85449D01*
X-119157Y-83839D01*
Y-72288D01*
X-119219Y-72138D01*
Y-70469D01*
X-120973D01*
X-120978Y-70467D01*
X-131398D01*
X-132430Y-70081D01*
X-133137Y-69171D01*
X-133066Y-68362D01*
X-126388D01*
Y-59638D01*
X-126388D01*
X-127250Y-58246D01*
Y-56754D01*
X-127821Y-55376D01*
X-128436Y-54761D01*
Y-53150D01*
X-128116Y-52671D01*
X-127982Y-52000D01*
X-126750D01*
Y-48000D01*
X-125750D01*
Y-47000D01*
X-122500D01*
Y-44000D01*
X-123000D01*
Y-37500D01*
X-127215D01*
Y-31940D01*
X-126138Y-30862D01*
X-124157Y-30862D01*
X-117638D01*
Y-29564D01*
X-112500D01*
X-112500Y-35000D01*
D02*
G37*
G36*
X-277300Y-35916D02*
Y-46009D01*
X-269500D01*
Y-48800D01*
X-266300D01*
Y-49800D01*
X-265300D01*
Y-54800D01*
X-263679D01*
Y-54885D01*
X-263484Y-55866D01*
X-262928Y-56698D01*
X-257034Y-62592D01*
X-257618Y-64000D01*
X-267000D01*
Y-68186D01*
X-269676D01*
X-283436Y-54426D01*
Y-43500D01*
X-281500D01*
Y-37456D01*
X-281180Y-37393D01*
X-280432Y-36893D01*
X-278824Y-35285D01*
X-277300Y-35916D01*
D02*
G37*
G36*
X-97122Y-78302D02*
X-97022Y-78403D01*
X-99687Y-86120D01*
X-99740Y-86111D01*
X-99902Y-86274D01*
X-99827Y-86349D01*
X-99853Y-86420D01*
X-99853Y-87604D01*
Y-96334D01*
X-129603D01*
X-130864Y-95699D01*
Y-88667D01*
X-131725Y-82016D01*
X-131472Y-72091D01*
X-120978D01*
X-120780Y-72288D01*
Y-84497D01*
X-118196Y-87156D01*
X-110792Y-86274D01*
X-107289D01*
X-101501Y-78403D01*
Y-66776D01*
X-101249Y-66524D01*
X-97122D01*
Y-78302D01*
D02*
G37*
%LPC*%
G36*
X-280500Y97750D02*
X-289500D01*
Y94208D01*
X-290308Y93751D01*
X-291024Y93490D01*
X-292254Y94000D01*
X-293746D01*
X-295124Y93429D01*
X-296179Y92374D01*
X-296750Y90996D01*
Y89504D01*
X-296179Y88126D01*
X-295428Y87375D01*
X-296179Y86624D01*
X-296750Y85246D01*
Y83754D01*
X-296179Y82376D01*
X-295124Y81321D01*
X-293746Y80750D01*
X-292254D01*
X-291024Y81260D01*
X-289500Y81250D01*
X-289500Y81250D01*
X-289500Y81250D01*
X-280500D01*
Y89500D01*
Y97750D01*
D02*
G37*
G36*
X-269500D02*
X-278500D01*
Y90500D01*
X-269500D01*
Y97750D01*
D02*
G37*
G36*
X-204038Y94162D02*
X-208614D01*
Y89800D01*
X-204038D01*
Y94162D01*
D02*
G37*
G36*
Y87800D02*
X-208614D01*
Y83438D01*
X-204038D01*
Y87800D01*
D02*
G37*
G36*
X-269500Y88500D02*
X-278500D01*
Y81250D01*
X-269500D01*
Y88500D01*
D02*
G37*
G36*
X-108388Y84479D02*
X-112250D01*
Y80638D01*
X-108388D01*
Y84479D01*
D02*
G37*
G36*
X-306000Y83979D02*
X-307702Y83523D01*
X-309298Y82601D01*
X-310601Y81298D01*
X-311523Y79702D01*
X-311979Y78000D01*
X-306000D01*
Y83979D01*
D02*
G37*
G36*
Y76000D02*
X-311979D01*
X-311523Y74298D01*
X-310601Y72702D01*
X-309298Y71399D01*
X-307702Y70477D01*
X-306000Y70021D01*
Y76000D01*
D02*
G37*
G36*
X-243500Y75750D02*
X-252500D01*
Y68500D01*
X-243500D01*
Y75750D01*
D02*
G37*
G36*
X-132000Y61950D02*
X-135600D01*
Y58150D01*
X-132000D01*
Y61950D01*
D02*
G37*
G36*
X-292286Y57612D02*
X-296862D01*
Y53250D01*
X-292286D01*
Y57612D01*
D02*
G37*
G36*
X-305800Y36350D02*
X-309600D01*
Y32750D01*
X-305800D01*
Y36350D01*
D02*
G37*
G36*
X-273800Y34910D02*
X-277800D01*
Y32709D01*
X-273800D01*
Y34910D01*
D02*
G37*
G36*
X-154750Y28500D02*
X-158250D01*
Y24500D01*
X-154750D01*
Y28500D01*
D02*
G37*
G36*
X-292000Y20500D02*
X-295000D01*
Y17000D01*
X-293044D01*
X-292051Y15476D01*
X-292250Y14996D01*
Y13504D01*
X-291679Y12126D01*
X-290624Y11071D01*
X-289246Y10500D01*
X-287754D01*
X-286376Y11071D01*
X-285321Y12126D01*
X-284750Y13504D01*
Y14996D01*
X-285321Y16374D01*
X-286376Y17429D01*
X-287754Y18000D01*
X-289246D01*
X-290476Y17490D01*
X-291192Y17751D01*
X-292000Y18209D01*
Y20500D01*
D02*
G37*
G36*
X-132000Y-3000D02*
X-136750D01*
Y-8500D01*
X-132000D01*
Y-3000D01*
D02*
G37*
G36*
X-138750D02*
X-143500D01*
Y-8500D01*
X-138750D01*
Y-3000D01*
D02*
G37*
G36*
X-117521Y-13000D02*
X-120862D01*
Y-16362D01*
X-117521D01*
Y-13000D01*
D02*
G37*
G36*
X-299000Y-20500D02*
X-305000D01*
Y-26000D01*
X-299000D01*
Y-20500D01*
D02*
G37*
G36*
X-153500Y-33250D02*
X-159000D01*
Y-38000D01*
X-153500D01*
Y-33250D01*
D02*
G37*
G36*
X-140772Y-59138D02*
X-144612D01*
Y-63000D01*
X-140772D01*
Y-59138D01*
D02*
G37*
G36*
X-178000Y-61000D02*
X-181500D01*
Y-64000D01*
X-178000D01*
Y-61000D01*
D02*
G37*
G36*
X-153400Y-62050D02*
X-157000D01*
Y-65850D01*
X-153400D01*
Y-62050D01*
D02*
G37*
G36*
X-157969Y-69969D02*
X-164000D01*
Y-76494D01*
X-157969D01*
Y-69969D01*
D02*
G37*
G36*
X-166000D02*
X-172031D01*
Y-76494D01*
X-166000D01*
Y-69969D01*
D02*
G37*
G36*
X-141256Y-78000D02*
X-147781D01*
Y-84031D01*
X-141256D01*
Y-78000D01*
D02*
G37*
G36*
X-186250Y-73000D02*
Y-85000D01*
X-180000D01*
Y-73000D01*
X-186250D01*
D02*
G37*
G36*
X-276250Y-73000D02*
X-282500D01*
Y-85000D01*
X-276250D01*
Y-73000D01*
D02*
G37*
G36*
X-83719Y-84219D02*
X-90244D01*
Y-90250D01*
X-83719D01*
Y-84219D01*
D02*
G37*
G36*
X-293750Y-86750D02*
X-298750D01*
Y-91250D01*
X-293750D01*
Y-86750D01*
D02*
G37*
G36*
X-300750D02*
X-305750D01*
Y-91250D01*
X-300750D01*
Y-86750D01*
D02*
G37*
G36*
X-268000Y-87000D02*
X-274250D01*
Y-99000D01*
X-268000D01*
Y-94844D01*
X-266931Y-93763D01*
X-266931Y-93763D01*
Y-93763D01*
X-266500Y-93746D01*
X-265929Y-95124D01*
X-264874Y-96179D01*
X-263496Y-96750D01*
X-262004D01*
X-260626Y-96179D01*
X-259571Y-95124D01*
X-259000Y-93746D01*
Y-92254D01*
X-259571Y-90876D01*
X-260626Y-89821D01*
X-262004Y-89250D01*
X-263496D01*
X-264874Y-89821D01*
X-265929Y-90876D01*
X-266500Y-92254D01*
X-266931Y-92237D01*
Y-92237D01*
X-266931Y-92237D01*
X-268000Y-91156D01*
Y-87000D01*
D02*
G37*
G36*
X-293750Y-93250D02*
X-298750D01*
Y-97750D01*
X-293750D01*
Y-93250D01*
D02*
G37*
G36*
X-300750D02*
X-305750D01*
Y-97750D01*
X-300750D01*
Y-93250D01*
D02*
G37*
G36*
X-83719Y-92250D02*
X-90244D01*
Y-98281D01*
X-83719D01*
Y-92250D01*
D02*
G37*
G36*
X-157969Y-78494D02*
X-165000D01*
X-172031D01*
Y-85020D01*
X-171531D01*
Y-87232D01*
X-171641Y-87478D01*
X-171632Y-87502D01*
X-171642Y-87526D01*
Y-97112D01*
X-171531Y-97381D01*
Y-98531D01*
X-170513D01*
X-170019Y-98736D01*
X-147000D01*
X-146882Y-98687D01*
X-146757Y-98717D01*
X-137959Y-97386D01*
X-137734Y-97250D01*
X-136500D01*
Y-94629D01*
X-136377Y-88744D01*
X-136500Y-88428D01*
Y-87250D01*
X-137527D01*
X-137785Y-87100D01*
X-147823Y-85762D01*
X-147882Y-85778D01*
X-147936Y-85751D01*
X-156526Y-85215D01*
X-157969Y-85020D01*
Y-78494D01*
D02*
G37*
G36*
X-43500Y-95000D02*
X-47000D01*
Y-99000D01*
X-43500D01*
Y-95000D01*
D02*
G37*
G36*
X-180000Y-87000D02*
X-186250D01*
Y-99000D01*
X-180000D01*
Y-87000D01*
D02*
G37*
G36*
X-188250D02*
X-194500D01*
Y-99000D01*
X-188250D01*
Y-87000D01*
D02*
G37*
G36*
X-209500D02*
X-215750D01*
Y-99000D01*
X-209500D01*
Y-87000D01*
D02*
G37*
G36*
X-238500Y-87000D02*
X-244750D01*
Y-99000D01*
X-238500D01*
Y-87000D01*
D02*
G37*
G36*
X-246750D02*
X-253000D01*
Y-99000D01*
X-246750D01*
Y-87000D01*
D02*
G37*
G36*
X-276250D02*
X-282500D01*
Y-99000D01*
X-276250D01*
Y-87000D01*
D02*
G37*
%LPD*%
G36*
X-148038Y-87371D02*
X-138000Y-88710D01*
X-138144Y-95606D01*
X-138202Y-95781D01*
X-147000Y-97112D01*
X-170019D01*
Y-87526D01*
X-168499Y-86094D01*
X-148038Y-87371D01*
D02*
G37*
%LPC*%
G36*
X108348Y64667D02*
X102141D01*
Y61000D01*
X108348D01*
Y64667D01*
D02*
G37*
G36*
Y43000D02*
X101141D01*
X93934D01*
Y40907D01*
X92746Y39750D01*
X92583Y39750D01*
X91254D01*
X89876Y39179D01*
X88821Y38124D01*
X88250Y36746D01*
Y35254D01*
X88821Y33876D01*
X89876Y32821D01*
X91254Y32250D01*
X92583D01*
X92746Y32250D01*
X93934Y31093D01*
Y29000D01*
X101141D01*
X108348D01*
Y32667D01*
X107848D01*
Y39333D01*
X108348D01*
Y43000D01*
D02*
G37*
G36*
Y27000D02*
X101141D01*
X93934D01*
Y24907D01*
X92746Y23750D01*
X92583Y23750D01*
X91254D01*
X89876Y23179D01*
X88821Y22124D01*
X88250Y20746D01*
Y19254D01*
X88821Y17876D01*
X89876Y16821D01*
X91254Y16250D01*
X92583D01*
X92746Y16250D01*
X93934Y15093D01*
Y13000D01*
X101141D01*
X108348D01*
Y16667D01*
X107848D01*
Y23333D01*
X108348D01*
Y27000D01*
D02*
G37*
G36*
Y11000D02*
X101141D01*
X93934D01*
Y8907D01*
X92746Y7750D01*
X92583Y7750D01*
X91254D01*
X89876Y7179D01*
X88821Y6124D01*
X88250Y4746D01*
Y3254D01*
X88821Y1876D01*
X89876Y821D01*
X91254Y250D01*
X92583D01*
X92746Y250D01*
X93934Y-907D01*
Y-3000D01*
X101141D01*
X108348D01*
Y667D01*
X107848D01*
Y7333D01*
X108348D01*
Y11000D01*
D02*
G37*
G36*
Y-5000D02*
X101141D01*
X93934D01*
Y-7068D01*
X92806Y-8250D01*
X92583Y-8250D01*
X91314D01*
X89936Y-8821D01*
X88881Y-9876D01*
X88310Y-11254D01*
Y-12746D01*
X88881Y-14124D01*
X89936Y-15179D01*
X91314Y-15750D01*
X92583D01*
X92806Y-15750D01*
X93934Y-16932D01*
Y-19000D01*
X101141D01*
X108348D01*
Y-15333D01*
X107848D01*
Y-8667D01*
X108348D01*
Y-5000D01*
D02*
G37*
G36*
Y-21000D02*
X101141D01*
X93934D01*
Y-24667D01*
X94434D01*
Y-31333D01*
X93934D01*
Y-35000D01*
X101141D01*
Y-37000D01*
X93934D01*
Y-40667D01*
X94434D01*
Y-47333D01*
X93934D01*
Y-51639D01*
X92410Y-52525D01*
X91746Y-52250D01*
X90254D01*
X88876Y-52821D01*
X87821Y-53876D01*
X87250Y-55254D01*
Y-56746D01*
X87821Y-58124D01*
X88876Y-59179D01*
X90254Y-59750D01*
X91746D01*
X92910Y-59268D01*
X93794Y-59612D01*
X94434Y-60024D01*
Y-64167D01*
X97125D01*
X97821Y-65626D01*
X97250Y-67004D01*
Y-68496D01*
X97821Y-69874D01*
X98876Y-70929D01*
X100254Y-71500D01*
X101746D01*
X103124Y-70929D01*
X104179Y-69874D01*
X104750Y-68496D01*
Y-67004D01*
X104179Y-65626D01*
X104875Y-64167D01*
X107848D01*
X107848Y-64167D01*
Y-64167D01*
X109352Y-64000D01*
X110844D01*
X112222Y-63429D01*
X113277Y-62374D01*
X113848Y-60996D01*
Y-59504D01*
X113277Y-58126D01*
X112222Y-57071D01*
X110844Y-56500D01*
X109803D01*
X109352Y-56500D01*
X108348Y-55266D01*
Y-53000D01*
X101141D01*
Y-51000D01*
X108348D01*
Y-48211D01*
X115158D01*
X116126Y-49179D01*
X117504Y-49750D01*
X118996D01*
X120374Y-49179D01*
X121429Y-48124D01*
X122000Y-46746D01*
Y-45254D01*
X121429Y-43876D01*
X120374Y-42821D01*
X118996Y-42250D01*
X117504D01*
X116126Y-42821D01*
X115348Y-43599D01*
X107848D01*
Y-40667D01*
X108348D01*
Y-40421D01*
X109352Y-39750D01*
X110844D01*
X112222Y-39179D01*
X113277Y-38124D01*
X113848Y-36746D01*
Y-35254D01*
X113277Y-33876D01*
X114376Y-32929D01*
X115754Y-33500D01*
X117246D01*
X118624Y-32929D01*
X119679Y-31874D01*
X120250Y-30496D01*
Y-29004D01*
X119679Y-27626D01*
X118624Y-26571D01*
X117246Y-26000D01*
X115754D01*
X115303Y-26187D01*
X114827Y-25869D01*
X113945Y-25694D01*
X109447D01*
X108348Y-24667D01*
Y-21000D01*
D02*
G37*
G36*
X77311Y-28185D02*
X75820D01*
X74441Y-28756D01*
X73386Y-29810D01*
X72815Y-31189D01*
Y-32680D01*
X73243Y-33712D01*
X73386Y-34059D01*
X73101Y-35846D01*
X73071Y-35876D01*
X72500Y-37254D01*
Y-38746D01*
X73071Y-40124D01*
X73947Y-41000D01*
X73071Y-41876D01*
X72500Y-43254D01*
Y-44746D01*
X73071Y-46124D01*
X73262Y-46315D01*
X73614Y-47851D01*
X73378Y-48422D01*
X73043Y-49229D01*
Y-50721D01*
X73614Y-52099D01*
X74669Y-53154D01*
X76047Y-53725D01*
X77539D01*
X78917Y-53154D01*
X79972Y-52099D01*
X80543Y-50721D01*
Y-49229D01*
X79972Y-47851D01*
X79781Y-47660D01*
X79429Y-46124D01*
X79666Y-45553D01*
X80000Y-44746D01*
Y-43254D01*
X79429Y-41876D01*
X78553Y-41000D01*
X79429Y-40124D01*
X80000Y-38746D01*
Y-37254D01*
X79573Y-36222D01*
X79429Y-35876D01*
X79714Y-34089D01*
X79745Y-34059D01*
X80316Y-32680D01*
Y-31189D01*
X79745Y-29810D01*
X78690Y-28756D01*
X77311Y-28185D01*
D02*
G37*
G36*
X-53750Y43724D02*
Y41750D01*
X-51776D01*
X-52097Y42523D01*
X-52977Y43404D01*
X-53750Y43724D01*
D02*
G37*
G36*
X-99500Y11112D02*
Y7272D01*
X-95638D01*
Y11112D01*
X-99500D01*
D02*
G37*
G36*
X-90000Y8974D02*
X-90773Y8654D01*
X-91653Y7773D01*
X-91974Y7000D01*
X-90000D01*
Y8974D01*
D02*
G37*
G36*
X-69550Y-11000D02*
X-73350D01*
Y-14600D01*
X-69550D01*
Y-11000D01*
D02*
G37*
G36*
X22031Y18285D02*
X20539D01*
X19161Y17714D01*
X18106Y16659D01*
X17535Y15281D01*
Y13789D01*
X18106Y12411D01*
X19161Y11356D01*
X20539Y10785D01*
X22031D01*
X23409Y11356D01*
X24464Y12411D01*
X25035Y13789D01*
Y15281D01*
X24464Y16659D01*
X23409Y17714D01*
X22031Y18285D01*
D02*
G37*
G36*
X-39750Y-37250D02*
X-45250D01*
Y-43250D01*
X-39750D01*
Y-37250D01*
D02*
G37*
G36*
X-122500Y-49000D02*
X-124750D01*
Y-52000D01*
X-122500D01*
Y-49000D01*
D02*
G37*
G36*
X-267300Y-50800D02*
X-269500D01*
Y-54800D01*
X-267300D01*
Y-50800D01*
D02*
G37*
%LPD*%
D15*
X-103000Y16762D02*
X-102522Y17240D01*
X-100760D01*
X-197881Y45000D02*
X-197750Y44869D01*
X-197773Y44846D02*
X-196500Y43573D01*
X-197773Y44846D02*
X-197750Y44869D01*
X-196500Y38400D02*
Y43573D01*
X-240050Y88800D02*
X-219186D01*
X-241800D02*
X-240050D01*
X-242500Y89500D02*
X-241800Y88800D01*
X-96500Y30536D02*
X-96464D01*
X-94179Y28250D02*
X-82150D01*
X-96464Y30536D02*
X-94179Y28250D01*
X-96536Y21464D02*
X-96500D01*
X-100760Y17240D02*
X-96536Y21464D01*
X-100272Y40772D02*
X-94543D01*
X-100750Y41250D02*
X-100272Y40772D01*
X-94543D02*
X-94000Y40229D01*
X-196500Y38400D02*
X-196300Y38200D01*
D16*
X-17681Y76319D02*
Y87318D01*
X-17500Y87499D01*
X-11750Y74000D02*
Y74805D01*
X-10204Y76351D01*
Y77546D01*
X-19250Y74750D02*
X-17681Y76319D01*
X-19750Y74750D02*
X-19250D01*
X-17512Y71985D02*
Y76488D01*
X-17500Y87499D02*
Y95400D01*
X-5500Y91131D02*
Y95400D01*
X-7012Y89619D02*
X-5500Y91131D01*
X2321Y95579D02*
X2500Y95400D01*
X-2500Y87750D02*
X-1500D01*
X-2500D02*
X-1931Y87181D01*
Y83280D02*
X-1500Y82849D01*
X-1931Y83280D02*
Y87181D01*
X-7012Y80738D02*
Y89619D01*
X-10204Y77546D02*
X-7012Y80738D01*
X-1500Y82849D02*
Y87750D01*
Y95400D01*
X103046Y-45905D02*
X118155D01*
X118250Y-46000D01*
X101141Y-44000D02*
X103046Y-45905D01*
X101141Y-28000D02*
X113945D01*
X115695Y-29750D02*
X116500D01*
X113945Y-28000D02*
X115695Y-29750D01*
X92000Y36000D02*
X101141D01*
X92000Y20000D02*
X101141D01*
X92000Y4000D02*
X101141D01*
X92060Y-12000D02*
X101141D01*
X43000Y-37686D02*
X44451Y-39137D01*
X43000Y-37686D02*
Y-34175D01*
Y-33087D02*
X43087D01*
X43587Y-33588D01*
X44451Y-42930D02*
Y-39137D01*
X43000Y-34175D02*
X43587Y-33588D01*
X49587D01*
X7620Y-42164D02*
Y-26630D01*
X8000Y-26250D01*
X34500Y-57750D02*
X58250Y-34000D01*
X33750Y-48055D02*
Y-47250D01*
X101141Y-60000D02*
X101391Y-60250D01*
X110098D01*
X-17357Y-69142D02*
X-15625Y-70875D01*
X-14250Y-72250D01*
X-6569Y-88431D02*
X-6000Y-89000D01*
X-8069Y-88431D02*
X-6569D01*
X54200Y-12700D02*
X58250Y-16750D01*
X17780Y-53500D02*
Y-42164D01*
Y-61380D02*
Y-53500D01*
X19530Y-55250D02*
X26760D01*
X31599Y-50411D01*
Y-50206D01*
X33750Y-48055D01*
X26738Y-60643D02*
X44451Y-42930D01*
X26738Y-64362D02*
Y-60643D01*
X17780Y-53500D02*
X19530Y-55250D01*
X26500Y-64600D02*
X26738Y-64362D01*
X34500Y-64600D02*
Y-57750D01*
X58250Y-34000D02*
Y-16750D01*
X-2000Y-52250D02*
Y-42704D01*
Y-52250D02*
X2500Y-56750D01*
Y-64600D02*
Y-56750D01*
X49587Y-33588D02*
X52750Y-30425D01*
X58250Y-16736D02*
X59738Y-15247D01*
X58250Y-16750D02*
Y-16736D01*
X59738Y-15247D02*
Y-14442D01*
X-17750Y-73000D02*
X-15625Y-70875D01*
X-14250Y-87631D02*
Y-72250D01*
X-9500Y-87000D02*
Y-81416D01*
Y-95400D02*
Y-87000D01*
X-8069Y-88431D01*
X3000Y-78500D02*
Y-69175D01*
Y-93000D02*
Y-78500D01*
X-5842D02*
X3000D01*
X-10450Y-80466D02*
Y-74377D01*
X-5938Y-78597D02*
X-5842Y-78500D01*
X-9500Y-73427D02*
Y-64600D01*
X-10450Y-74377D02*
X-9500Y-73427D01*
X-10450Y-80466D02*
X-9500Y-81416D01*
X-17262Y-90643D02*
X-14250Y-87631D01*
X-17262Y-95162D02*
Y-90643D01*
X100891Y52250D02*
X101141Y52000D01*
X89500Y52250D02*
X100891D01*
X86625Y55125D02*
X89500Y52250D01*
X75750Y46500D02*
X75935Y46684D01*
X75750Y10750D02*
Y46500D01*
X62460Y-2540D02*
X75750Y10750D01*
X44375Y55125D02*
X86625D01*
X55790Y-2540D02*
X62460D01*
X6500Y64600D02*
Y77884D01*
X14500Y64600D02*
Y73021D01*
X34500Y55675D02*
X56750Y33425D01*
X34500Y57009D02*
Y64600D01*
Y55675D02*
Y57009D01*
X36509D01*
X36750Y57250D01*
X26500Y80195D02*
Y95400D01*
Y64600D02*
Y80195D01*
X29250Y82945D01*
Y83750D01*
X34500Y64600D02*
Y95400D01*
X34738Y95638D01*
X14500Y73021D02*
Y95400D01*
Y73021D02*
Y73500D01*
X18500Y95400D02*
X18738Y95638D01*
X13535Y71250D02*
Y72055D01*
X14500Y73021D01*
X6500Y77884D02*
Y95400D01*
X4752Y76652D02*
X5267D01*
X6500Y77884D01*
X-1500Y64600D02*
Y82849D01*
X-9500Y64600D02*
Y77546D01*
X-10204D02*
X-9500D01*
X-17512Y71985D02*
X-17500Y71972D01*
X-17681Y76319D02*
X-17512Y76488D01*
X-17500Y64600D02*
Y71972D01*
X56750Y25540D02*
Y33425D01*
X14500Y56306D02*
Y64600D01*
X44375Y55125D02*
X51549Y47951D01*
X59774Y15774D02*
Y40777D01*
X51549Y47951D02*
X52600D01*
X59774Y40777D01*
X49625Y18415D02*
X56750Y25540D01*
X51750Y7750D02*
X59774Y15774D01*
X42500Y57000D02*
X44375Y55125D01*
X2500Y-64600D02*
X2738Y-64838D01*
X-2540Y-42164D02*
X-2000Y-42704D01*
X2738Y-68913D02*
Y-64838D01*
Y-68913D02*
X3000Y-69175D01*
X-1500Y-66971D02*
Y-64600D01*
Y-95400D02*
Y-93029D01*
X-1262Y-92791D01*
X-1500Y-66971D02*
X-1262Y-67209D01*
X6500Y-95400D02*
Y-64600D01*
X-17500D02*
X-17357Y-64742D01*
Y-69142D02*
Y-64742D01*
X-17500Y-95400D02*
X-17262Y-95162D01*
X-279902Y-33101D02*
Y-30467D01*
X-291107Y-35262D02*
X-282063D01*
X-279902Y-30467D02*
X-277741Y-28306D01*
X-272800D01*
X-282063Y-35262D02*
X-279902Y-33101D01*
X-90207Y45500D02*
X-81000D01*
X-93979Y49271D02*
X-90207Y45500D01*
X-94000Y49271D02*
X-93979D01*
X-81341Y38214D02*
Y45159D01*
X-83500Y35250D02*
Y36055D01*
X-81341Y45159D02*
X-81000Y45500D01*
X-83500Y36055D02*
X-81341Y38214D01*
X-96000Y51272D02*
X-94000Y49271D01*
X-96000Y51272D02*
Y58845D01*
X-83500Y35250D02*
X-83250Y35500D01*
X6262Y95638D02*
X6500Y95400D01*
X-1500D02*
X2500D01*
X22500D02*
X26500D01*
X-17500D02*
X-13500D01*
X38500Y-95400D02*
X42250D01*
X6238Y-99031D02*
X6262Y-99007D01*
X-13829Y-99031D02*
X-13738Y-98940D01*
X-246058Y-86308D02*
X-245750Y-86000D01*
X-208563Y-44000D02*
X-207299D01*
X-205508Y-42209D01*
X-210862Y-46300D02*
X-208563Y-44000D01*
X-205508Y-42209D02*
X-204702D01*
X-210862Y-49362D02*
Y-46300D01*
X-216750Y-91750D02*
Y-86000D01*
X-129250Y-26728D02*
Y-21250D01*
X-129522Y-27000D02*
X-129250Y-26728D01*
X-210244Y-39550D02*
Y-39500D01*
X-227859Y-42741D02*
X-224618Y-39500D01*
X-228030Y-42741D02*
X-227859D01*
X-228030Y-42450D02*
X-228027D01*
Y-42449D02*
X-228026D01*
X-228030Y-42741D02*
Y-42450D01*
X-228027D02*
Y-42449D01*
X-210244Y-39550D02*
X-210081D01*
X-224618Y-39500D02*
X-210244D01*
X-129522Y-39762D02*
Y-27000D01*
X-128284Y-41000D02*
X-128000D01*
X-129522Y-39762D02*
X-128284Y-41000D01*
X-243225Y-56067D02*
X-235898D01*
X-229649Y-62316D01*
X-229509D01*
X-245862Y-53430D02*
X-245688Y-53604D01*
Y-53604D02*
Y-53604D01*
X-245862Y-53430D02*
Y-50238D01*
X-245688Y-53604D02*
X-243225Y-56067D01*
X-246300Y-49800D02*
X-245862Y-50238D01*
X-211300Y-49800D02*
X-210862Y-49362D01*
X-292000Y-64250D02*
Y-46004D01*
Y-42166D02*
X-291950Y-42216D01*
X-292000Y-42166D02*
Y-36155D01*
X-291950Y-45954D02*
Y-42216D01*
X-292000Y-46004D02*
X-291950Y-45954D01*
X-292000Y-64250D02*
X-290000Y-66250D01*
X-292000Y-36155D02*
X-291107Y-35262D01*
X18500Y-64600D02*
Y-62100D01*
X17780Y-61380D02*
X18500Y-62100D01*
X42164Y7620D02*
X42294Y7750D01*
X51750D01*
X42164Y-22860D02*
X42171Y-22867D01*
X50867D02*
X52750Y-24750D01*
X42171Y-22867D02*
X50867D01*
X52750Y-30425D02*
Y-24750D01*
X38500Y-64600D02*
X42500D01*
Y-95400D02*
Y-64600D01*
Y-56800D01*
X64250Y-35050D01*
Y-11000D01*
X55790Y-2540D02*
X64250Y-11000D01*
X42164Y-2540D02*
X55790D01*
X30500Y-95400D02*
X34500D01*
Y-64600D01*
X30500D02*
X34500D01*
X42164Y-12700D02*
X54200D01*
X22500Y-64600D02*
X26500D01*
X22500Y-95400D02*
X26500D01*
Y-64600D01*
X18500Y-95400D02*
Y-64600D01*
X14500Y-95400D02*
X18500D01*
X14500Y-64600D02*
X18500D01*
X6500Y-95400D02*
X10500D01*
X6500Y-64600D02*
X10500D01*
X6500Y-62100D02*
X7620Y-60980D01*
X6500Y-64600D02*
Y-62100D01*
X7620Y-60980D02*
Y-42164D01*
X-1500Y-64600D02*
X2500D01*
X-1500Y-95400D02*
X2500D01*
X-9500D02*
X-5500D01*
X-9500Y-64600D02*
X-5500D01*
X-12700Y-53806D02*
Y-42164D01*
Y-53806D02*
X-9500Y-57006D01*
Y-64600D02*
Y-57006D01*
X-17500Y-64600D02*
X-13500D01*
X-17500Y-95400D02*
X-13500D01*
X-17500Y-64600D02*
Y-57769D01*
X-22860Y-52408D02*
Y-42164D01*
Y-52408D02*
X-17500Y-57769D01*
X38500Y95400D02*
X42500D01*
Y64600D02*
Y95400D01*
X30500D02*
X34500D01*
X14500D02*
X18500D01*
X6500D02*
X10500D01*
X-9500D02*
X-5500D01*
X42500Y57000D02*
Y64600D01*
X38500D02*
X42500D01*
X42164Y17780D02*
X42799Y18415D01*
X49625D01*
X30500Y64600D02*
X34500D01*
X42164Y27940D02*
Y39846D01*
X26500Y55510D02*
X42164Y39846D01*
X22500Y64600D02*
X26500D01*
Y55510D02*
Y64600D01*
X14500D02*
X18500D01*
X12700Y54506D02*
X14500Y56306D01*
X12700Y42164D02*
Y54506D01*
X6500Y64600D02*
X10500D01*
X2540Y53426D02*
X6500Y57386D01*
X2540Y42164D02*
Y53426D01*
X6500Y57386D02*
Y64600D01*
X-1500D02*
X2500D01*
X-17780Y51760D02*
X-10644Y58896D01*
X-1500Y58466D02*
Y64600D01*
X-7620Y52346D02*
X-1500Y58466D01*
X-7620Y42164D02*
Y52346D01*
X-10644Y59733D02*
X-9738Y60639D01*
X-10644Y58896D02*
Y59733D01*
X-9738Y60639D02*
Y64362D01*
X-27940Y42164D02*
X-27630Y42474D01*
Y50746D01*
X-17738Y60639D01*
X-9500Y64600D02*
X-5500D01*
X-9738Y64362D02*
X-9500Y64600D01*
X-17738Y60639D02*
Y64362D01*
X-17780Y42164D02*
Y51760D01*
X-17738Y64362D02*
X-17500Y64600D01*
X-13500D01*
X-184800Y11704D02*
X-173581D01*
X-172036Y13250D01*
X-163464D02*
X-162714Y12500D01*
X-153750D01*
X-153500Y12250D01*
X-144500D01*
X-90344Y16844D02*
X-85181D01*
X-83775Y18250D01*
X-82150D01*
X-81431Y34681D02*
X-75750Y29000D01*
Y27600D02*
Y29000D01*
Y26250D02*
Y27600D01*
Y26250D02*
X-73745Y24245D01*
X-72937Y23437D01*
X-69537D01*
X-69350Y23250D01*
D28*
X120341Y72500D02*
D03*
Y-72500D02*
D03*
D29*
X101141Y4000D02*
D03*
Y-28000D02*
D03*
Y28000D02*
D03*
Y20000D02*
D03*
Y-4000D02*
D03*
Y12000D02*
D03*
Y52000D02*
D03*
Y60000D02*
D03*
Y36000D02*
D03*
Y44000D02*
D03*
Y-52000D02*
D03*
Y-44000D02*
D03*
Y-60000D02*
D03*
Y-12000D02*
D03*
Y-36000D02*
D03*
Y-20000D02*
D03*
D30*
X-144500Y21250D02*
D03*
Y12250D02*
D03*
X-286000Y-40000D02*
D03*
Y-31000D02*
D03*
D31*
X-210250Y-59500D02*
D03*
X-201250D02*
D03*
D32*
X-118000Y67438D02*
D03*
X-41000Y49000D02*
D03*
X-81000Y45500D02*
D03*
X-79000Y70000D02*
D03*
X-305000Y77000D02*
D03*
X-81000Y87000D02*
D03*
X-100250Y90500D02*
D03*
X-127772Y86250D02*
D03*
D33*
X-70750Y-44250D02*
D03*
X-54750D02*
D03*
X-38750D02*
D03*
D34*
X-96000Y58845D02*
D03*
Y66155D02*
D03*
D35*
X-56750Y-94150D02*
D03*
Y-86350D02*
D03*
X-131000Y70550D02*
D03*
Y62950D02*
D03*
X-73500Y-800D02*
D03*
Y6800D02*
D03*
X-66000Y-93900D02*
D03*
Y-86100D02*
D03*
X-158000Y-53450D02*
D03*
Y-61050D02*
D03*
X-168000Y-60050D02*
D03*
Y-52450D02*
D03*
D36*
X-153750Y23500D02*
D03*
Y12500D02*
D03*
X-48000Y-94000D02*
D03*
Y-83000D02*
D03*
D37*
X-207500Y75536D02*
D03*
Y65964D02*
D03*
X-219400Y66014D02*
D03*
Y75586D02*
D03*
D38*
X-299750Y-77250D02*
D03*
Y-92250D02*
D03*
D39*
X-130250Y-48000D02*
D03*
X-125750D02*
D03*
D40*
X-128000Y-41000D02*
D03*
D41*
X-96500Y21464D02*
D03*
Y30536D02*
D03*
D42*
X-65250Y-74750D02*
D03*
Y-60250D02*
D03*
D43*
X-175500Y27750D02*
D03*
Y36250D02*
D03*
D44*
X-82150Y28250D02*
D03*
X-69350D02*
D03*
X-82150Y18250D02*
D03*
X-69350D02*
D03*
D45*
X-75750Y27600D02*
D03*
Y18900D02*
D03*
D46*
X-82150Y23250D02*
D03*
X-69350D02*
D03*
D47*
X-94500Y-50000D02*
D03*
D48*
X-80250Y-72500D02*
D03*
X-89750D02*
D03*
X-99250D02*
D03*
X-108750D02*
D03*
Y-27500D02*
D03*
X-99250D02*
D03*
X-89750D02*
D03*
X-80250D02*
D03*
D49*
X-128000Y49000D02*
D03*
X-109000D02*
D03*
X-118500D02*
D03*
X-128000Y23500D02*
D03*
X-118500D02*
D03*
X-109000D02*
D03*
D50*
X-279500Y67500D02*
D03*
X-242500D02*
D03*
Y89500D02*
D03*
X-279500D02*
D03*
D51*
X-158000Y61000D02*
D03*
D52*
X-143000D02*
D03*
X-173000D02*
D03*
D53*
X-208900Y52800D02*
D03*
X-219900D02*
D03*
D54*
X42164Y27940D02*
D03*
Y22860D02*
D03*
Y17780D02*
D03*
Y12700D02*
D03*
Y7620D02*
D03*
Y2540D02*
D03*
Y-2540D02*
D03*
Y-7620D02*
D03*
Y-12700D02*
D03*
Y-17780D02*
D03*
Y-22860D02*
D03*
Y-27940D02*
D03*
X-42164D02*
D03*
Y-22860D02*
D03*
Y-17780D02*
D03*
Y-12700D02*
D03*
Y-7620D02*
D03*
Y-2540D02*
D03*
Y2540D02*
D03*
Y7620D02*
D03*
Y12700D02*
D03*
Y17780D02*
D03*
Y22860D02*
D03*
Y27940D02*
D03*
D55*
X27940Y-42164D02*
D03*
X22860D02*
D03*
X17780D02*
D03*
X12700D02*
D03*
X7620D02*
D03*
X2540D02*
D03*
X-2540D02*
D03*
X-7620D02*
D03*
X-12700D02*
D03*
X-17780D02*
D03*
X-22860D02*
D03*
X-27940D02*
D03*
Y42164D02*
D03*
X-22860D02*
D03*
X-17780D02*
D03*
X-12700D02*
D03*
X-7620D02*
D03*
X-2540D02*
D03*
X2540D02*
D03*
X7620D02*
D03*
X12700D02*
D03*
X17780D02*
D03*
X22860D02*
D03*
X27940D02*
D03*
D56*
X-143500Y-25000D02*
D03*
Y-48500D02*
D03*
X-190500Y68750D02*
D03*
Y92250D02*
D03*
D57*
X-163464Y13250D02*
D03*
X-172036D02*
D03*
X-172286Y-8000D02*
D03*
X-163714D02*
D03*
D58*
X-191300Y38200D02*
D03*
X-196300D02*
D03*
X-201300D02*
D03*
X-206300D02*
D03*
X-211300D02*
D03*
X-216300D02*
D03*
X-221300D02*
D03*
X-226300D02*
D03*
X-231300D02*
D03*
X-236300D02*
D03*
X-241300D02*
D03*
X-246300D02*
D03*
X-251300D02*
D03*
X-256300D02*
D03*
X-261300D02*
D03*
X-266300D02*
D03*
Y-49800D02*
D03*
X-261300D02*
D03*
X-256300D02*
D03*
X-251300D02*
D03*
X-246300D02*
D03*
X-241300D02*
D03*
X-236300D02*
D03*
X-231300D02*
D03*
X-226300D02*
D03*
X-221300D02*
D03*
X-216300D02*
D03*
X-211300D02*
D03*
X-206300D02*
D03*
X-201300D02*
D03*
X-196300D02*
D03*
X-191300D02*
D03*
D59*
X-272800Y31709D02*
D03*
Y26708D02*
D03*
Y21707D02*
D03*
Y16706D02*
D03*
Y11704D02*
D03*
Y6703D02*
D03*
Y1702D02*
D03*
Y-3299D02*
D03*
Y-8301D02*
D03*
Y-13302D02*
D03*
Y-18303D02*
D03*
Y-23304D02*
D03*
Y-28306D02*
D03*
Y-33307D02*
D03*
Y-38308D02*
D03*
Y-43309D02*
D03*
X-184800D02*
D03*
Y-38308D02*
D03*
Y-33307D02*
D03*
Y-28306D02*
D03*
Y-23304D02*
D03*
Y-18303D02*
D03*
Y-13302D02*
D03*
Y-8301D02*
D03*
Y-3299D02*
D03*
Y1702D02*
D03*
Y6703D02*
D03*
Y11704D02*
D03*
Y16706D02*
D03*
Y21707D02*
D03*
Y26708D02*
D03*
Y31709D02*
D03*
D60*
X-290000Y-66250D02*
D03*
X-300000D02*
D03*
D61*
X-70000Y46000D02*
D03*
Y54000D02*
D03*
X-90000Y83000D02*
D03*
Y75000D02*
D03*
X-59250Y14000D02*
D03*
Y22000D02*
D03*
X-110750Y6250D02*
D03*
Y14250D02*
D03*
X-177000Y-52000D02*
D03*
Y-60000D02*
D03*
D62*
X-296000Y21500D02*
D03*
X-304000D02*
D03*
X-57750Y-500D02*
D03*
X-65750D02*
D03*
X-192000Y46500D02*
D03*
X-184000D02*
D03*
D63*
X-209614Y88800D02*
D03*
X-219186D02*
D03*
X-281714Y52250D02*
D03*
X-291286D02*
D03*
X-164464Y86500D02*
D03*
X-174036D02*
D03*
X-142464Y86250D02*
D03*
X-152036D02*
D03*
D64*
X-113250Y94522D02*
D03*
Y85478D02*
D03*
X-94000Y49271D02*
D03*
Y40229D02*
D03*
X-100500Y6271D02*
D03*
Y-2772D02*
D03*
D65*
X-58750Y40750D02*
D03*
X-54750D02*
D03*
X-58750Y36750D02*
D03*
X-54750D02*
D03*
X-85000Y6000D02*
D03*
Y2000D02*
D03*
X-89000Y6000D02*
D03*
Y2000D02*
D03*
D66*
X-68550Y-10000D02*
D03*
X-60950D02*
D03*
X-127800Y13750D02*
D03*
X-120200D02*
D03*
X-304800Y31750D02*
D03*
X-297200D02*
D03*
X-185450Y55500D02*
D03*
X-193050D02*
D03*
D67*
X-109228Y-3500D02*
D03*
X-117271D02*
D03*
X-55022Y-60250D02*
D03*
X-46979D02*
D03*
X-129522Y-27000D02*
D03*
X-121479D02*
D03*
X-116522Y-12000D02*
D03*
X-108478D02*
D03*
X-100772D02*
D03*
X-92729D02*
D03*
D68*
X-78250Y-95021D02*
D03*
Y-86979D02*
D03*
D69*
X-91244Y-91250D02*
D03*
X-105256D02*
D03*
X-140256Y-77000D02*
D03*
X-126244D02*
D03*
D70*
X-127750Y-92250D02*
D03*
X-141250D02*
D03*
D71*
X-165000Y-91506D02*
D03*
Y-77494D02*
D03*
D72*
X-306000Y-51500D02*
D03*
Y-35500D02*
D03*
Y-19500D02*
D03*
D73*
X-252500Y53250D02*
D03*
X-244000D02*
D03*
D74*
X-139771Y-64000D02*
D03*
X-130729D02*
D03*
D75*
X-47214Y-68750D02*
D03*
X-54786D02*
D03*
D76*
X-160000Y-39000D02*
D03*
Y-23500D02*
D03*
D77*
X-171500Y-17964D02*
D03*
Y-26536D02*
D03*
D78*
X-153250Y-9500D02*
D03*
X-137750D02*
D03*
D81*
X-45504Y78500D02*
D03*
D82*
X-60754Y63750D02*
D03*
Y93250D02*
D03*
D85*
X-275250Y-86000D02*
D03*
X-245750D02*
D03*
X-187250Y-86000D02*
D03*
X-216750D02*
D03*
D86*
X-260500Y-70750D02*
D03*
X-202000Y-70750D02*
D03*
D98*
X-228800Y-5800D02*
D03*
D99*
X50500Y-64600D02*
D03*
X46500D02*
D03*
X42500D02*
D03*
X38500D02*
D03*
X34500D02*
D03*
X30500D02*
D03*
X26500D02*
D03*
X22500D02*
D03*
X18500D02*
D03*
X14500D02*
D03*
X10500D02*
D03*
X6500D02*
D03*
X2500D02*
D03*
X-1500D02*
D03*
X-5500D02*
D03*
X-9500D02*
D03*
X-13500D02*
D03*
X-17500D02*
D03*
X-21500D02*
D03*
X-25500D02*
D03*
X50500Y-95400D02*
D03*
X46500D02*
D03*
X42500D02*
D03*
X38500D02*
D03*
X34500D02*
D03*
X30500D02*
D03*
X26500D02*
D03*
X22500D02*
D03*
X18500D02*
D03*
X14500D02*
D03*
X10500D02*
D03*
X6500D02*
D03*
X2500D02*
D03*
X-1500D02*
D03*
X-5500D02*
D03*
X-9500D02*
D03*
X-13500D02*
D03*
X-17500D02*
D03*
X-21500D02*
D03*
X-25500D02*
D03*
Y64600D02*
D03*
X-21500D02*
D03*
X-17500D02*
D03*
X-13500D02*
D03*
X-9500D02*
D03*
X-5500D02*
D03*
X-1500D02*
D03*
X2500D02*
D03*
X6500D02*
D03*
X10500D02*
D03*
X14500D02*
D03*
X18500D02*
D03*
X22500D02*
D03*
X26500D02*
D03*
X30500D02*
D03*
X34500D02*
D03*
X38500D02*
D03*
X42500D02*
D03*
X46500D02*
D03*
X50500D02*
D03*
X-25500Y95400D02*
D03*
X-21500D02*
D03*
X-17500D02*
D03*
X-13500D02*
D03*
X-9500D02*
D03*
X-5500D02*
D03*
X-1500D02*
D03*
X2500D02*
D03*
X6500D02*
D03*
X10500D02*
D03*
X14500D02*
D03*
X18500D02*
D03*
X22500D02*
D03*
X26500D02*
D03*
X30500D02*
D03*
X34500D02*
D03*
X38500D02*
D03*
X42500D02*
D03*
X46500D02*
D03*
X50500D02*
D03*
D105*
X-83095Y87000D02*
X-81000D01*
X-88580Y83920D02*
X-86174D01*
X-83095Y87000D01*
X-89601Y82899D02*
X-88580Y83920D01*
X-81000Y86856D02*
X-78094D01*
X-69000Y-5000D02*
X-67855Y-3855D01*
Y-3105D01*
X-65750Y-1000D01*
X-69000Y-5000D02*
X-68775Y-5225D01*
Y-8415D02*
Y-5225D01*
X-69383Y-9023D02*
X-68775Y-8415D01*
X-69527Y-9023D02*
X-69383D01*
X-65750Y-1000D02*
Y-500D01*
X-74750Y-750D02*
X-73750D01*
X-69645Y-4355D02*
X-69000Y-5000D01*
X-70779Y-4277D02*
Y-3721D01*
X-70701Y-4355D02*
X-69645D01*
X-70779Y-4277D02*
X-70701Y-4355D01*
X-73750Y-750D02*
X-70779Y-3721D01*
X-69527Y-9023D02*
X-68550Y-10000D01*
X50515Y-67085D02*
X55930Y-72500D01*
X61500D01*
X50500Y-67070D02*
X50515Y-67085D01*
X50500Y-67070D02*
Y-64600D01*
X50515Y-67085D02*
X50515D01*
X59600Y-83830D02*
X61670D01*
X50515Y-92915D02*
X59600Y-83830D01*
X61670D02*
X62142Y-83358D01*
X-272800Y16706D02*
X-265060D01*
X-263218Y18548D02*
X-262550D01*
X-265060Y16706D02*
X-263218Y18548D01*
X-262750Y25712D02*
Y26224D01*
X-19668Y-86000D02*
X-19000D01*
X-24786Y-75612D02*
Y-73526D01*
X-20418Y-79500D02*
X-19750D01*
X-23117Y-76801D02*
X-20418Y-79500D01*
X-23597Y-76801D02*
X-23117D01*
X-24786Y-75612D02*
X-23597Y-76801D01*
X-22637Y-88968D02*
X-19668Y-86000D01*
X-25500Y-72812D02*
X-24786Y-73526D01*
X-25485Y-91328D02*
X-23125Y-88968D01*
X-22637D01*
X-25500Y64600D02*
Y79287D01*
X-25854Y79641D02*
X-25500Y79287D01*
Y-72812D02*
Y-67085D01*
X-71755Y-43245D02*
Y-33495D01*
Y-43245D02*
X-70750Y-44250D01*
X-78094Y86856D02*
Y88251D01*
X-75933Y90411D01*
X-73576Y73881D02*
X-68064D01*
X-78750Y69750D02*
X-77707D01*
X-73576Y73881D01*
X-54750Y-44250D02*
Y-29950D01*
X-52800Y-28000D01*
X-42224D01*
X-42164Y-27940D01*
X-54553Y-22860D02*
X-42164D01*
X-60750Y-29056D02*
X-54553Y-22860D01*
X-25485Y-95385D02*
Y-91328D01*
X-25500Y-95400D02*
X-25485Y-95385D01*
X-79015Y-23750D02*
X-74750D01*
X-80250Y-30017D02*
Y-24985D01*
X-79015Y-23750D01*
X-43833Y44210D02*
Y44314D01*
X-40500Y47646D01*
Y48000D01*
X-23642Y88683D02*
Y89392D01*
X-25485Y91235D02*
X-23642Y89392D01*
X-25500Y95400D02*
X-25485Y95385D01*
Y91235D02*
Y95385D01*
X-23642Y88683D02*
X-23170Y88210D01*
X-201115Y33874D02*
X-199926Y32685D01*
X-201115Y33874D02*
Y38015D01*
X-199926Y32685D02*
X-193453D01*
X-201300Y38200D02*
X-201115Y38015D01*
X-193453Y32685D02*
X-192218Y31450D01*
X-216300Y-49839D02*
X-216115Y-50024D01*
Y-52895D02*
X-215843Y-53167D01*
X-216115Y-52895D02*
Y-50024D01*
X-215843Y-62657D02*
Y-53167D01*
Y-62657D02*
X-210750Y-67750D01*
X-221300Y-54435D02*
Y-49800D01*
Y-54435D02*
X-219718Y-56017D01*
Y-66293D02*
Y-56017D01*
X-277164Y-18386D02*
X-272883D01*
X-283661Y-24883D02*
X-277164Y-18386D01*
X-272883D02*
X-272800Y-18303D01*
X-282075Y-17646D02*
X-277731Y-13302D01*
X-282494Y-17646D02*
X-282075D01*
X-283720Y-18872D02*
X-282494Y-17646D01*
X-284388Y-18872D02*
X-283720D01*
X-283661Y-25250D02*
Y-24883D01*
X-290000Y-25239D02*
Y-12093D01*
X-281206Y-3299D01*
X-284049Y-12881D02*
X-283426D01*
X-278845Y-8301D01*
X-281206Y-3299D02*
X-272800D01*
X-277731Y-13302D02*
X-272800D01*
X-266485Y38385D02*
X-266300Y38200D01*
X-269730Y43445D02*
X-268530D01*
X-273454Y47169D02*
Y47948D01*
Y47169D02*
X-269730Y43445D01*
X-268530D02*
X-266485Y41400D01*
Y38385D02*
Y41400D01*
X-273927Y48421D02*
X-273454Y47948D01*
X-296000Y22000D02*
X-291125Y26875D01*
X-192218Y31450D02*
X-191550D01*
X-210000Y13000D02*
X-209500Y13500D01*
X-202000D01*
X-210000Y13000D02*
X-206294Y16706D01*
X-184800D01*
X-228800Y-5800D02*
X-210000Y13000D01*
X-278845Y-8301D02*
X-272800D01*
X-290000Y-25239D02*
X-287985Y-27254D01*
Y-30015D02*
Y-27254D01*
X-287000Y-31000D02*
X-286000D01*
X-287985Y-30015D02*
X-287000Y-31000D01*
X-253794Y44230D02*
Y46327D01*
X-254217Y46750D02*
X-253794Y46327D01*
Y44230D02*
X-251485Y41920D01*
Y38385D02*
X-251300Y38200D01*
X-251485Y38385D02*
Y41920D01*
X-135031Y77500D02*
X-134559Y77973D01*
Y79463D02*
X-127772Y86250D01*
X-134559Y77973D02*
Y79463D01*
X-129415Y70135D02*
Y73450D01*
X-127666Y75199D02*
Y75867D01*
X-131000Y68550D02*
X-129415Y70135D01*
Y73450D02*
X-127666Y75199D01*
X-125515Y53659D02*
Y60224D01*
X-118301Y67438D01*
X-118000D01*
X-126265Y52909D02*
X-125515Y53659D01*
X-126265Y50735D02*
Y52909D01*
X-119525Y68933D02*
Y73352D01*
X-120494Y74321D02*
Y74989D01*
Y74321D02*
X-119525Y73352D01*
Y68933D02*
X-119000Y68408D01*
X-128000Y49000D02*
X-126265Y50735D01*
X-121191Y34798D02*
X-112952D01*
X-126891Y29097D02*
X-121191Y34798D01*
X-112952D02*
X-109000Y38750D01*
Y49000D01*
X-69985Y46265D02*
X-69000Y47250D01*
X-71004Y39141D02*
Y44746D01*
X-69985Y45765D01*
X-69000Y47250D02*
X-68500D01*
X-69985Y45765D02*
Y46265D01*
X-54973Y53723D02*
X-54500Y53250D01*
X-71004Y29924D02*
Y38860D01*
X-71002Y38858D01*
X-67859D02*
X-65750Y36750D01*
X-71002Y38858D02*
X-67859D01*
X-65750Y36750D02*
X-58750D01*
X-70936Y28698D02*
Y29855D01*
X-71004Y29924D02*
X-70936Y29855D01*
X-70487Y28250D02*
X-69350D01*
X-70936Y28698D02*
X-70487Y28250D01*
X-58750Y49000D02*
X-54500Y53250D01*
X-127772Y86250D02*
X-126247Y87775D01*
X-116959Y90834D02*
X-113272Y94522D01*
X-126247Y87775D02*
X-120213D01*
X-117154Y90834D01*
X-116959D01*
X-113272Y94522D02*
X-113250D01*
X-184585Y31709D02*
X-184400Y31894D01*
Y39600D01*
X-184800Y31709D02*
X-184585D01*
X-184400Y39600D02*
X-184000Y40000D01*
X-185250Y55500D02*
X-180750Y60000D01*
X-185450Y55500D02*
X-185250D01*
X-180750Y60000D02*
Y60262D01*
X-184000Y46500D02*
X-184000Y46500D01*
Y40000D02*
Y46500D01*
X-296000Y21500D02*
Y22000D01*
X-110750Y6250D02*
X-110739Y6261D01*
X-111735Y5265D02*
X-110750Y6250D01*
X-304900Y29900D02*
X-304800Y30000D01*
X-178473Y-40027D02*
X-171973D01*
X-171500Y-40500D01*
X-180192Y-38308D02*
X-178473Y-40027D01*
X-184800Y-38308D02*
X-180192D01*
X-177617Y-34250D02*
X-172250D01*
X-184800Y-33307D02*
X-178560D01*
X-177617Y-34250D01*
X-171500Y-26750D02*
X-166500Y-31750D01*
Y-33250D02*
Y-31750D01*
Y-33250D02*
X-160750Y-39000D01*
X-171500Y-26750D02*
Y-26536D01*
X-211300Y21050D02*
Y38200D01*
Y21050D02*
X-211000Y20750D01*
X-254000Y-18250D02*
X-249750D01*
X-249250Y-18750D01*
X-184800Y1702D02*
X-177370D01*
X-199815D02*
X-184800D01*
X-205250Y7137D02*
Y8500D01*
Y7137D02*
X-199815Y1702D01*
X-201200Y-11917D02*
X-199815Y-13302D01*
X-184800D01*
X-201200Y-11917D02*
Y-9954D01*
X-117506Y4744D02*
X-117250Y4488D01*
X-116582D02*
X-115805Y5265D01*
X-122744Y4744D02*
X-117506D01*
X-117250Y4488D02*
X-116582D01*
X-115805Y5265D02*
X-111735D01*
X-123000Y5000D02*
X-122744Y4744D01*
X-126015Y8683D02*
X-123000Y5668D01*
X-126015Y8683D02*
Y12165D01*
X-123000Y5000D02*
Y5668D01*
X-135769Y18000D02*
X-133104Y15335D01*
X-136438Y18000D02*
X-135769D01*
X-129385Y15335D02*
X-127800Y13750D01*
X-133104Y15335D02*
X-129385D01*
X-143500Y21250D02*
X-142515Y22235D01*
Y23235D01*
X-141000Y24750D01*
X-128000D01*
X-144500Y21250D02*
X-143500D01*
X-128000Y24750D02*
X-126891Y25859D01*
X-109777Y24277D02*
Y29527D01*
Y24277D02*
X-109000Y23500D01*
X-110250Y30000D02*
X-109777Y29527D01*
X-118500Y23500D02*
Y30000D01*
X-85000Y6000D02*
X-75800D01*
X-73511Y8289D02*
X-65461D01*
X-75800Y6000D02*
X-73511Y8289D01*
X-65461D02*
X-59750Y14000D01*
X-54750Y36750D02*
X-52606Y34606D01*
Y32562D02*
Y34606D01*
X-54000Y30500D02*
Y31168D01*
X-52606Y32562D01*
X-58750Y40750D02*
Y49000D01*
X-224955Y-58231D02*
Y-53901D01*
X-226115Y-52730D02*
Y-49985D01*
Y-52730D02*
X-224986Y-53859D01*
Y-53870D02*
X-224955Y-53901D01*
X-224986Y-53870D02*
Y-53859D01*
X-226300Y-49800D02*
X-226115Y-49985D01*
X-219718Y-66293D02*
X-216479Y-69531D01*
X-126891Y25859D02*
Y29097D01*
X-160750Y-39000D02*
X-160000D01*
X-59250Y22000D02*
X-58858Y22392D01*
X-54896D02*
X-49730Y27558D01*
X-58858Y22392D02*
X-54896D01*
X-49730Y27558D02*
X-42546D01*
X-42164Y27940D01*
X-59750Y14000D02*
X-59250D01*
X-58750D01*
X-54970Y17780D01*
X-42164D01*
X-131000Y-57500D02*
X-130864Y-57636D01*
Y-63864D02*
X-130729Y-64000D01*
X-130864Y-63864D02*
Y-57636D01*
X-131000Y-52205D02*
X-130485Y-51690D01*
Y-48235D02*
X-130250Y-48000D01*
X-130485Y-51690D02*
Y-48235D01*
X-131000Y-57500D02*
Y-52205D01*
X-152973Y-38777D02*
Y-34196D01*
X-153500Y-33668D02*
X-152973Y-34196D01*
Y-38777D02*
X-152500Y-39250D01*
X-153500Y-33668D02*
Y-33000D01*
X-159750Y-39250D02*
X-152500D01*
X-160000Y-39000D02*
X-159750Y-39250D01*
X-110739Y6261D02*
X-100511D01*
X-100500Y6271D01*
X-127600Y13750D02*
X-126015Y12165D01*
X-127800Y13750D02*
X-127600D01*
X-109250Y-27000D02*
X-108750Y-27500D01*
X-121479Y-27000D02*
X-109250D01*
X-150000Y0D02*
X-137500D01*
Y-9250D02*
Y0D01*
X-137750Y-9500D02*
X-137500Y-9250D01*
X-162500Y0D02*
X-150000D01*
X-177370Y1702D02*
X-175668Y0D01*
X-175000D01*
X-162500D01*
Y-6786D02*
Y0D01*
X-163714Y-8000D02*
X-162500Y-6786D01*
X-145541Y45209D02*
Y58459D01*
X-151500Y39250D02*
X-145541Y45209D01*
X-154693Y39250D02*
X-151500D01*
X-172236Y21707D02*
X-154693Y39250D01*
X-184800Y21707D02*
X-172236D01*
X-51700Y-12700D02*
X-42164D01*
X-55750Y-16750D02*
X-51700Y-12700D01*
X-232899Y2094D02*
Y2149D01*
X-225493Y-66960D02*
X-225458D01*
X-225504Y-66949D02*
X-225493Y-66960D01*
X-241800Y-44200D02*
X-241485Y-44515D01*
X-248262Y45778D02*
X-247977D01*
X-60750Y-10000D02*
X-59165Y-8415D01*
X-57976Y-8311D02*
X-57424D01*
X-56114Y-7000D02*
X-55500D01*
X-55000Y-6500D01*
X-58080Y-8415D02*
X-57976Y-8311D01*
X-59165Y-8415D02*
X-58080D01*
X-57424Y-8311D02*
X-56114Y-7000D01*
X-60950Y-10000D02*
X-60750D01*
X-56765Y-4067D02*
X-55000Y-5832D01*
X-57750Y-500D02*
X-56765Y-1485D01*
Y-4067D02*
Y-1485D01*
X-55000Y-6500D02*
Y-5832D01*
X-55210Y2540D02*
X-42164D01*
X-57750Y0D02*
X-55210Y2540D01*
X-57750Y-500D02*
Y0D01*
X-261115Y-54885D02*
X-243515Y-72485D01*
X-261115Y-54885D02*
Y-49985D01*
X-243515Y-72485D02*
X-239458D01*
X-241545Y-68955D02*
X-234713D01*
X-256277Y-54223D02*
Y-49823D01*
Y-54223D02*
X-241545Y-68955D01*
X-251115Y-53901D02*
X-245672Y-59344D01*
X-237422D01*
X-251115Y-53901D02*
Y-49985D01*
X-234765Y-63911D02*
Y-62000D01*
Y-63911D02*
X-231595Y-67081D01*
X-256300Y-49800D02*
X-256277Y-49823D01*
X-27948Y-2314D02*
X-27722Y-2089D01*
X-240050Y88800D02*
X-231485Y80235D01*
Y38385D02*
Y80235D01*
X-241485Y-49615D02*
Y-44515D01*
X-234713Y-68955D02*
X-232626Y-71042D01*
X-228458D01*
X-230067Y-76172D02*
Y-76048D01*
X-228458Y-71042D02*
X-224934Y-74566D01*
X-230611Y-76048D02*
X-230067D01*
X-224934Y-83184D02*
Y-74566D01*
X-225458Y-67020D02*
Y-66960D01*
X-231846Y-74813D02*
X-230611Y-76048D01*
X-239458Y-72485D02*
X-237371Y-74572D01*
X-232367D01*
X-232127Y-74813D01*
X-231846D01*
X-225466Y-67028D02*
X-225458Y-67020D01*
X-225466Y-67081D02*
Y-67028D01*
X-231595Y-67081D02*
X-225466D01*
X-229751Y-55833D02*
Y-55164D01*
X-231115Y-53801D02*
X-229751Y-55164D01*
X-231115Y-53801D02*
Y-49985D01*
X-237422Y-59344D02*
X-234765Y-62000D01*
X-224955Y-58231D02*
X-224483Y-58704D01*
X-231300Y-49800D02*
X-231115Y-49985D01*
X-228500Y-86750D02*
X-224934Y-83184D01*
X-228297Y-87451D02*
Y-86953D01*
X-228500Y-86750D02*
X-228297Y-86953D01*
X-251300Y-49800D02*
X-251115Y-49985D01*
X-199937Y-43750D02*
X-198606Y-42418D01*
X-201115Y-49615D02*
Y-45360D01*
X-199937Y-44183D01*
Y-43750D01*
X-264475Y-42000D02*
X-264304D01*
X-241485Y-49615D02*
X-241300Y-49800D01*
X-238000Y-40218D02*
X-236300Y-41918D01*
Y-49800D02*
Y-41918D01*
X-238000Y-40218D02*
Y-39550D01*
X-179168Y-24000D02*
X-178500D01*
X-179679Y-23489D02*
X-179168Y-24000D01*
X-184615Y-23489D02*
X-179679D01*
X-201300Y-49800D02*
X-201115Y-49615D01*
X-198606Y-42418D02*
Y-41750D01*
X-272800Y21707D02*
X-266755D01*
X-262750Y25712D01*
X-305500Y-51500D02*
X-302015Y-48015D01*
Y-47515D01*
X-306000Y-51500D02*
X-305500D01*
X-302015Y-47515D02*
X-299057Y-44557D01*
X-296935D01*
X-296462Y-44085D01*
X-302015Y-22985D02*
X-298313Y-26687D01*
X-297316D02*
X-296843Y-27159D01*
X-298313Y-26687D02*
X-297316D01*
X-302515Y-22985D02*
X-302015D01*
X-208900Y52800D02*
Y64564D01*
Y50300D02*
Y52800D01*
Y64564D02*
X-207500Y65964D01*
X-231485Y38385D02*
X-231300Y38200D01*
X-110500Y14000D02*
Y22000D01*
X-119950Y14000D02*
X-110500D01*
X-145541Y58459D02*
X-143000Y61000D01*
X50500Y84500D02*
Y95400D01*
Y64600D02*
Y72750D01*
X-110500Y22000D02*
X-109000Y23500D01*
X-120200Y13750D02*
X-119950Y14000D01*
X-143000Y85714D02*
X-142464Y86250D01*
X-143000Y61000D02*
Y85714D01*
X-174036Y86500D02*
X-173000Y85464D01*
Y61000D02*
Y85464D01*
X-175500Y36250D02*
Y58500D01*
X-173000Y61000D01*
X-184615Y26893D02*
X-176357D01*
X-184800Y26708D02*
X-184615Y26893D01*
X-176357D02*
X-175500Y27750D01*
X-184800Y-18303D02*
X-184648Y-18152D01*
X-178652D01*
X-178500Y-18000D01*
X-184800Y-23304D02*
X-184615Y-23489D01*
X-306000Y-19500D02*
X-302515Y-22985D01*
X-305516Y-35016D02*
X-298002D01*
X-297007Y-34022D02*
X-296339D01*
X-298002Y-35016D02*
X-297007Y-34022D01*
X-306000Y-35500D02*
X-305516Y-35016D01*
X-244000Y53250D02*
X-242894Y52144D01*
X-239144D01*
X-236300Y49300D01*
Y38200D02*
Y49300D01*
X-242000Y45250D02*
X-241920Y45330D01*
X-242000Y44582D02*
Y45250D01*
X-246300Y38200D02*
Y43447D01*
X-247977Y45124D02*
X-246300Y43447D01*
X-241920Y45330D02*
X-241667D01*
X-247977Y45124D02*
Y45778D01*
X-260538Y45538D02*
Y47184D01*
X-261011Y47657D02*
X-260538Y47184D01*
Y45538D02*
X-256485Y41485D01*
Y38385D02*
X-256300Y38200D01*
X-256485Y38385D02*
Y41485D01*
X-261485Y38385D02*
Y41392D01*
X-267302Y47209D02*
X-261485Y41392D01*
X-267756Y48210D02*
X-267302Y47756D01*
X-280714Y53250D02*
X-252500D01*
X-281714Y52250D02*
Y65286D01*
X-267302Y47209D02*
Y47756D01*
X-241485Y38385D02*
Y44067D01*
X-242000Y44582D02*
X-241485Y44067D01*
X-272615Y-38493D02*
X-267981D01*
X-264475Y-42000D01*
X-272800Y-38308D02*
X-272615Y-38493D01*
X-286000Y-55489D02*
X-270739Y-70750D01*
X-260500D01*
X-286000Y-55489D02*
Y-40000D01*
X-42164Y-17780D02*
X-30780D01*
X-30500Y-17500D01*
X-28940Y-7810D02*
X-28750Y-8000D01*
X-42164Y-7620D02*
X-41974Y-7810D01*
X-28940D01*
X-42164Y-2540D02*
X-41938Y-2314D01*
X-27948D01*
X-300000Y-77000D02*
Y-66250D01*
Y-77000D02*
X-299750Y-77250D01*
X-82473Y-2777D02*
X-82000Y-3250D01*
X-82473Y-2777D02*
Y-590D01*
X-85000Y1938D02*
Y2000D01*
Y1938D02*
X-82473Y-590D01*
X-89250Y-3500D02*
Y1688D01*
X-210250Y-58500D02*
X-206485Y-54735D01*
Y-49985D02*
X-206300Y-49800D01*
X-210250Y-59500D02*
Y-58500D01*
X-206485Y-54735D02*
Y-49985D01*
X-202000Y-70750D02*
X-201250Y-70000D01*
Y-59500D01*
X-261300Y-49800D02*
X-261115Y-49985D01*
X-196115Y-53717D02*
Y-49985D01*
Y-53717D02*
X-193250Y-56582D01*
Y-57250D02*
Y-56582D01*
X-196300Y-49800D02*
X-196115Y-49985D01*
X-69050Y13550D02*
Y17950D01*
X-69350Y18250D02*
X-69050Y17950D01*
Y13550D02*
X-68750Y13250D01*
X-89250Y1688D02*
X-89000Y1938D01*
Y2000D01*
X-281714Y65286D02*
X-279500Y67500D01*
X-281714Y52250D02*
X-280714Y53250D01*
X-219900Y52800D02*
Y65514D01*
X-219400Y66014D01*
X-216300Y43012D02*
X-210497Y48815D01*
X-210385D01*
X-208900Y50300D01*
X-216300Y38200D02*
Y43012D01*
X-221115Y38385D02*
Y51585D01*
X-219900Y52800D01*
X-221300Y38200D02*
X-221115Y38385D01*
X-241485D02*
X-241300Y38200D01*
X-261485Y38385D02*
X-261300Y38200D01*
X-88627Y23500D02*
X-88467Y23340D01*
X-82240D02*
X-82150Y23250D01*
X-88467Y23340D02*
X-82240D01*
D106*
X-198405Y28392D02*
X-197933Y27920D01*
X-200627Y28392D02*
X-198405D01*
X-206116Y33881D02*
Y38016D01*
Y33881D02*
X-200627Y28392D01*
X-206300Y38200D02*
X-206116Y38016D01*
X-193222Y-42586D02*
Y-32472D01*
X-189240Y-28490D01*
X-193222Y-42586D02*
X-192750Y-43058D01*
X-99447Y-14340D02*
X-99250Y-14537D01*
Y-27500D02*
Y-14537D01*
X-100772Y-12000D02*
X-99447Y-13325D01*
Y-14340D02*
Y-13325D01*
X-108478Y-12000D02*
X-100772D01*
X-189240Y-28490D02*
X-184984D01*
X-184800Y-28306D01*
D107*
X12950Y-30277D02*
Y-24200D01*
X4691Y-19571D02*
X8321D01*
X12950Y-24200D01*
X12700Y-30527D02*
X12950Y-30277D01*
X12700Y-42164D02*
Y-30527D01*
X2540Y-42164D02*
Y-21722D01*
X4691Y-19571D01*
X8141Y-19000D02*
X19000D01*
X12433Y-5242D02*
Y12683D01*
X22610Y22860D01*
X42164D01*
X26174Y8500D02*
X28500D01*
X20215Y2540D02*
X26174Y8500D01*
X28500D02*
X32503Y12503D01*
X5085Y-12589D02*
X10055Y-7620D01*
X5085Y-12589D02*
X21590D01*
X-2214Y-12855D02*
X-1999Y-12640D01*
Y12999D01*
X-2343D02*
Y13343D01*
X-21154Y32154D02*
X-18500Y29500D01*
X4729Y-12589D02*
Y19229D01*
Y-12589D02*
X5085D01*
X-17780Y-42164D02*
X-17583Y-41967D01*
Y-34732D02*
X-16797Y-33946D01*
Y-33736D01*
X-13700Y-30639D01*
X-17583Y-41967D02*
Y-34732D01*
X-13700Y-30639D02*
Y-25250D01*
X-42250Y78500D02*
X-35000D01*
X-30300Y73800D01*
Y52973D02*
Y73800D01*
X-21154Y32154D02*
X-12503Y23503D01*
X-22663Y33663D02*
X-21154Y32154D01*
X-30455D02*
X-21154D01*
X-22663Y33663D02*
Y41967D01*
X-22860Y42164D02*
X-22663Y41967D01*
X-32037Y33736D02*
X-30455Y32154D01*
X-32037Y33736D02*
Y51236D01*
X-30300Y52973D01*
X-289200Y31950D02*
Y32468D01*
X-290250Y33518D02*
X-289200Y32468D01*
Y31950D02*
X-283958Y26708D01*
X-291957Y32947D02*
X-290818Y34086D01*
X-283958Y26708D02*
X-272800D01*
X-290250Y33518D02*
Y34000D01*
X-176200Y-51200D02*
X-167750D01*
X-298800Y27200D02*
Y30350D01*
X-304000Y22000D02*
X-298800Y27200D01*
X-304000Y21500D02*
Y22000D01*
X-298800Y30350D02*
X-297400Y31750D01*
X-297200D01*
X-290818Y34086D02*
X-290250D01*
X-297200Y31750D02*
X-296003Y32947D01*
X-291957D01*
X4729Y19229D02*
X7620Y22120D01*
X21590Y-12589D02*
X26780Y-17780D01*
X-2343Y13343D02*
Y41967D01*
Y13343D02*
X-1999Y12999D01*
X-7000Y18000D02*
X-2343Y13343D01*
X-132953Y6703D02*
X-122807Y-3444D01*
X-184800Y6703D02*
X-132953D01*
X-122807Y-3444D02*
X-117328D01*
X-117271Y-3500D01*
X-12503Y23503D02*
X-7000Y18000D01*
X-12503Y23503D02*
Y41967D01*
X-12700Y42164D02*
X-12503Y41967D01*
X-2540Y42164D02*
X-2343Y41967D01*
X7620Y22120D02*
X17780Y32280D01*
X7620Y22120D02*
Y42164D01*
X17780Y32280D02*
Y42164D01*
X12433Y-5242D02*
X20215Y2540D01*
X10055Y-7620D02*
X12433Y-5242D01*
X32503Y12503D02*
X41967D01*
X42164Y12700D01*
X20215Y2540D02*
X42164D01*
X10055Y-7620D02*
X42164D01*
X26780Y-17780D02*
X42164D01*
X19000Y-19000D02*
X27940Y-27940D01*
X42164D01*
X-7620Y-42164D02*
Y-24620D01*
X-161000Y-47818D02*
Y-47250D01*
X-159400Y-52050D02*
Y-49418D01*
X-161000Y-47818D02*
X-159400Y-49418D01*
X-168000Y-52450D02*
X-167000Y-53450D01*
X-158000D01*
X-159400Y-52050D02*
X-158000Y-53450D01*
X-147300Y-53050D02*
X-143500Y-49250D01*
X-157600Y-53050D02*
X-147300D01*
X-158000Y-53450D02*
X-157600Y-53050D01*
X-167750Y-51200D02*
Y-46500D01*
X-177000Y-52000D02*
X-176200Y-51200D01*
X-143500Y-49250D02*
Y-48500D01*
X-178300Y-51200D02*
Y-47200D01*
X-177500Y-52000D02*
X-177000D01*
X-178300Y-51200D02*
X-177500Y-52000D01*
X-182190Y-43309D02*
X-178300Y-47200D01*
X-184800Y-43309D02*
X-182190D01*
X-193050Y55500D02*
Y66200D01*
X-190500Y68750D01*
X-193050Y55500D02*
X-192525Y54975D01*
Y47025D02*
X-192000Y46500D01*
X-192525Y47025D02*
Y54975D01*
X-192000Y46500D02*
X-191300Y45800D01*
Y38200D02*
Y45800D01*
X-92729Y-12021D02*
X-89750Y-15000D01*
Y-27500D02*
Y-15000D01*
X-92729Y-12021D02*
Y-12000D01*
X-93869Y-10859D02*
X-92729Y-12000D01*
X-100500Y-2772D02*
X-100478D01*
X-93869Y-9381D01*
Y-10859D02*
Y-9381D01*
X-108864Y-3136D02*
X-100864D01*
X-100500Y-2772D01*
X-109228Y-3500D02*
X-108864Y-3136D01*
D108*
X-243000Y8400D02*
Y29250D01*
Y8400D02*
X-228800Y-5800D01*
X-266283Y-25805D02*
X-248805D01*
X-228800Y-5800D01*
D109*
X-28536Y-36854D02*
Y-27593D01*
X-26193Y-25250D02*
X-13700D01*
X-28536Y-27593D02*
X-26193Y-25250D01*
X-28543Y-48213D02*
Y-42767D01*
X-39478Y-52750D02*
X-32800D01*
X-30750Y-50700D02*
Y-50420D01*
X-32800Y-52750D02*
X-30750Y-50700D01*
Y-50420D02*
X-28543Y-48213D01*
X-46979Y-60250D02*
X-39478Y-52750D01*
X-47097Y-60368D02*
X-46979Y-60250D01*
X-7620Y-24467D02*
X-2783Y-19630D01*
X-7620Y-24620D02*
Y-24467D01*
X-153404Y84888D02*
X-152041Y86250D01*
X-158000Y61000D02*
X-153404Y65596D01*
Y84888D01*
X-152041Y86250D02*
X-152036D01*
X-164464Y86500D02*
X-163493Y85529D01*
Y66493D02*
Y85529D01*
Y66493D02*
X-158000Y61000D01*
X-48000Y-83500D02*
Y-82500D01*
X-56455Y-86055D02*
X-51160D01*
X-49105Y-84000D01*
X-48500D01*
X-56750Y-86350D02*
X-56455Y-86055D01*
X-48500Y-84000D02*
X-48000Y-83500D01*
X-49000Y-82000D02*
X-48500D01*
X-48000Y-82500D01*
X-54786Y-76214D02*
Y-68750D01*
Y-76214D02*
X-49000Y-82000D01*
X-66600Y-86900D02*
X-66000D01*
X-78250Y-86979D02*
X-66679D01*
X-66600Y-86900D01*
X-78250Y-86979D02*
Y-78250D01*
X-66000Y-86100D02*
Y-75500D01*
X-65250Y-74750D01*
X-80250Y-72500D02*
X-80000Y-72750D01*
Y-76500D02*
Y-72750D01*
Y-76500D02*
X-78250Y-78250D01*
X-91244Y-91250D02*
X-90000Y-90006D01*
Y-72750D02*
X-89750Y-72500D01*
X-90000Y-90006D02*
Y-72750D01*
X-8250Y-25250D02*
X-7620Y-24620D01*
X-13700Y-25250D02*
X-8250D01*
X-47097Y-68632D02*
Y-60368D01*
X-47214Y-68750D02*
X-47097Y-68632D01*
X-54904D02*
X-54786Y-68750D01*
X-54904Y-68632D02*
Y-60368D01*
X-55022Y-60250D02*
X-54904Y-60368D01*
X-65250Y-60250D02*
X-55022D01*
X-73261Y-95011D02*
X-73250Y-95000D01*
X-78250Y-95021D02*
X-78239Y-95011D01*
X-73261D01*
X-112904Y-80404D02*
X-108750Y-76250D01*
X-113154Y-80404D02*
X-112904D01*
X-113250Y-80500D02*
X-113154Y-80404D01*
X-108750Y-76250D02*
Y-72500D01*
D110*
X-83599Y78493D02*
X-83193D01*
X-87500Y75000D02*
X-87092D01*
X-83599Y78493D01*
X-28543Y-42767D02*
X-27940Y-42164D01*
X-113250Y-80500D02*
X-113000D01*
D111*
X-35750Y67000D02*
D03*
X-37750Y59250D02*
D03*
X-89000Y95000D02*
D03*
X-69000Y-5000D02*
D03*
X-12988Y88150D02*
D03*
X-11750Y74000D02*
D03*
X-19750Y74750D02*
D03*
X-2500Y87750D02*
D03*
X123476Y-39524D02*
D03*
X118250Y-46000D02*
D03*
X116500Y-29750D02*
D03*
X61500Y-72500D02*
D03*
X62142Y-83358D02*
D03*
X95000Y75000D02*
D03*
X105000D02*
D03*
X95000Y85000D02*
D03*
X105000D02*
D03*
X115000D02*
D03*
X124000D02*
D03*
X115000Y60000D02*
D03*
X124000D02*
D03*
X115000Y40000D02*
D03*
X124000D02*
D03*
Y50000D02*
D03*
X115000D02*
D03*
Y20000D02*
D03*
X124000D02*
D03*
Y30000D02*
D03*
X115000D02*
D03*
Y0D02*
D03*
X124000D02*
D03*
Y10000D02*
D03*
X115000D02*
D03*
Y-10000D02*
D03*
X124000D02*
D03*
Y-20000D02*
D03*
X115000D02*
D03*
X123500Y-60000D02*
D03*
X96000Y-76000D02*
D03*
X121000Y-85000D02*
D03*
X109000D02*
D03*
X96000D02*
D03*
X-296568Y-11747D02*
D03*
X-254575Y23575D02*
D03*
X-237924Y13756D02*
D03*
X-220750Y30500D02*
D03*
X-197933Y27920D02*
D03*
X92000Y36000D02*
D03*
Y20000D02*
D03*
Y4000D02*
D03*
X92060Y-12000D02*
D03*
X43000Y-33087D02*
D03*
X8000Y-26250D02*
D03*
X-262550Y18548D02*
D03*
X-262750Y26224D02*
D03*
X-264260Y7496D02*
D03*
X-264036Y1500D02*
D03*
X-262550Y-5319D02*
D03*
X61665Y-63262D02*
D03*
X33750Y-47250D02*
D03*
X110098Y-60250D02*
D03*
X101000Y-67750D02*
D03*
X-6000Y-89000D02*
D03*
X91000Y-56000D02*
D03*
X12000Y-80000D02*
D03*
X13000Y-73000D02*
D03*
X76793Y-49975D02*
D03*
X76250Y-44000D02*
D03*
Y-38000D02*
D03*
X76565Y-31934D02*
D03*
X59738Y-14442D02*
D03*
X-5938Y-78597D02*
D03*
X-17750Y-73000D02*
D03*
X-19000Y-86000D02*
D03*
X-19750Y-79500D02*
D03*
X110098Y-36000D02*
D03*
X62500Y10750D02*
D03*
X30410Y17410D02*
D03*
X21285Y14535D02*
D03*
X62562Y50250D02*
D03*
X75935Y46684D02*
D03*
X91750Y60250D02*
D03*
X60750Y-45152D02*
D03*
X4729Y-12589D02*
D03*
X-2214Y-12855D02*
D03*
X36750Y57250D02*
D03*
X29250Y83750D02*
D03*
X13535Y71250D02*
D03*
X4752Y76652D02*
D03*
X-25854Y79641D02*
D03*
X-21000Y-31000D02*
D03*
X-4000Y-57000D02*
D03*
X-295258Y38100D02*
D03*
X-83193Y78493D02*
D03*
X-30888Y-60362D02*
D03*
X-75933Y90411D02*
D03*
X-71755Y-33495D02*
D03*
X-27648Y-86752D02*
D03*
X-29551Y-75500D02*
D03*
X-61500Y82250D02*
D03*
X-68064Y73881D02*
D03*
X-56500Y-53000D02*
D03*
X-60750Y-29056D02*
D03*
X-63120Y-53250D02*
D03*
X-74750Y-23750D02*
D03*
X-73750Y96000D02*
D03*
X-46000D02*
D03*
X-43833Y44210D02*
D03*
X-23170Y88210D02*
D03*
X-81250Y-45479D02*
D03*
X-91250D02*
D03*
X-81250Y-55479D02*
D03*
X-91250D02*
D03*
X-291695Y3239D02*
D03*
X-296934Y6219D02*
D03*
X-292729Y-2671D02*
D03*
X-297812Y-5878D02*
D03*
X-266283Y-25805D02*
D03*
X-288500Y14250D02*
D03*
X-284388Y-18872D02*
D03*
X-284049Y-12881D02*
D03*
X-291125Y26875D02*
D03*
X-202000Y13500D02*
D03*
X-191550Y31450D02*
D03*
X-283661Y-25250D02*
D03*
X-135031Y77500D02*
D03*
X-130450Y58100D02*
D03*
X-86355Y54410D02*
D03*
X-80048Y54298D02*
D03*
X-118773Y57820D02*
D03*
X-114423Y75423D02*
D03*
X-114951Y42426D02*
D03*
X-127666Y75867D02*
D03*
X-132199Y38058D02*
D03*
X-122000Y42798D02*
D03*
X-71004Y39141D02*
D03*
X-76281Y36116D02*
D03*
X-120494Y74989D02*
D03*
X-296750Y44500D02*
D03*
X-171500Y-40500D02*
D03*
X-47250Y-33250D02*
D03*
X-85410Y-8486D02*
D03*
X-77250Y-8000D02*
D03*
X-286500Y39250D02*
D03*
X-185188Y-62000D02*
D03*
X-176000Y-96000D02*
D03*
X-175938Y-89250D02*
D03*
X-176188Y-80500D02*
D03*
X61812Y93500D02*
D03*
X62312Y79750D02*
D03*
X62562Y64000D02*
D03*
X62500Y-95500D02*
D03*
X-42500D02*
D03*
X-117250Y4488D02*
D03*
X-123000Y5000D02*
D03*
X-61000Y6000D02*
D03*
X-110250Y30000D02*
D03*
X-118500D02*
D03*
X-136438Y18000D02*
D03*
X-120575Y94641D02*
D03*
X-290250Y34086D02*
D03*
X-201200Y-9954D02*
D03*
X-80048Y60232D02*
D03*
X-86057Y60306D02*
D03*
X-252136Y-94583D02*
D03*
X-238000Y-30000D02*
D03*
X-209971Y-23971D02*
D03*
X-221965Y-8924D02*
D03*
X-181000Y77000D02*
D03*
X-219000Y96000D02*
D03*
X-261000Y89000D02*
D03*
Y75000D02*
D03*
Y64000D02*
D03*
X-152000Y96000D02*
D03*
X-165000D02*
D03*
X-21000Y3000D02*
D03*
X-33500Y-96250D02*
D03*
X-153500Y-81500D02*
D03*
X-190750Y-67750D02*
D03*
X-215750Y17750D02*
D03*
X-211000Y20750D02*
D03*
X-205250Y8500D02*
D03*
X-34000Y96250D02*
D03*
X-287750Y-92500D02*
D03*
X-288000Y-78750D02*
D03*
X-202500Y-83750D02*
D03*
X-202750Y-94750D02*
D03*
X-300000Y52022D02*
D03*
X-307000Y92097D02*
D03*
X-302000Y59000D02*
D03*
X-270000Y-58750D02*
D03*
X-80117Y12827D02*
D03*
X-162500Y0D02*
D03*
X-137500D02*
D03*
X-150000D02*
D03*
X-175000D02*
D03*
X-129250Y-21250D02*
D03*
X-232899Y2149D02*
D03*
X-238750Y-7500D02*
D03*
X-225504Y-66949D02*
D03*
X-228026Y-42449D02*
D03*
X-241800Y-44200D02*
D03*
X-238000Y-39550D02*
D03*
X-248262Y45778D02*
D03*
X-54000Y30500D02*
D03*
X-82000Y-3250D02*
D03*
X-54500Y53250D02*
D03*
X-262750Y-93000D02*
D03*
X-239530Y-64190D02*
D03*
X-27722Y-2089D02*
D03*
X-28750Y-8000D02*
D03*
X-68750Y13250D02*
D03*
X-259260Y-38524D02*
D03*
X-230067Y-76172D02*
D03*
X-229751Y-55833D02*
D03*
X-229509Y-62316D02*
D03*
X-224483Y-58704D02*
D03*
X-216479Y-69531D02*
D03*
X-228297Y-87451D02*
D03*
X-232815Y-91685D02*
D03*
X-210081Y-39550D02*
D03*
X-198606Y-41750D02*
D03*
X-192750Y-43058D02*
D03*
X-204702Y-42209D02*
D03*
X-210750Y-67750D02*
D03*
X-264304Y-42000D02*
D03*
X-254774Y-43064D02*
D03*
X-245592Y-39550D02*
D03*
X-178500Y-18000D02*
D03*
Y-24000D02*
D03*
X-172250Y-34250D02*
D03*
X-296462Y-44085D02*
D03*
X-153500Y-33000D02*
D03*
X-161000Y-47250D02*
D03*
X-167750Y-46500D02*
D03*
X-152500Y-39250D02*
D03*
X-55000Y-6500D02*
D03*
X-296843Y-27159D02*
D03*
X-143381Y39512D02*
D03*
X-184000Y40000D02*
D03*
X-180750Y60262D02*
D03*
X-114250Y-93500D02*
D03*
X-226512Y65750D02*
D03*
X-226500Y81000D02*
D03*
X-293000Y69000D02*
D03*
Y74750D02*
D03*
Y84500D02*
D03*
Y90250D02*
D03*
X-197881Y45000D02*
D03*
X-236772Y57000D02*
D03*
X-200000Y78250D02*
D03*
Y71500D02*
D03*
X-96250Y73500D02*
D03*
X50500Y84500D02*
D03*
Y72750D02*
D03*
X-176289Y94198D02*
D03*
X-182250Y94250D02*
D03*
X-296339Y-34022D02*
D03*
X-273927Y48421D02*
D03*
X-241667Y45330D02*
D03*
X-254267Y46750D02*
D03*
X-267756Y48210D02*
D03*
X-261011Y47657D02*
D03*
X-255762Y500D02*
D03*
X-73250Y-95000D02*
D03*
X-89250Y-3500D02*
D03*
X-30500Y-17500D02*
D03*
X-131000Y-57500D02*
D03*
X-83500Y35250D02*
D03*
X-103000Y16762D02*
D03*
X-90344Y16844D02*
D03*
X-55750Y-16750D02*
D03*
X-100250Y90500D02*
D03*
X-193250Y-57250D02*
D03*
X-108750Y57500D02*
D03*
X-88627Y23500D02*
D03*
X-100750Y41250D02*
D03*
X-120250Y-93750D02*
D03*
X-113250Y-80500D02*
D03*
X-148250Y-94500D02*
D03*
X-156000Y-94000D02*
D03*
X-152000Y-90000D02*
D03*
X-31000Y16000D02*
D03*
M02*
