G04*
G04 #@! TF.GenerationSoftware,Altium Limited,Altium Designer,23.3.1 (30)*
G04*
G04 Layer_Color=65535*
%FSLAX44Y44*%
%MOMM*%
G71*
G04*
G04 #@! TF.SameCoordinates,9951316E-5AA8-40CD-BDAD-E2DC54E6BB6D*
G04*
G04*
G04 #@! TF.FilePolarity,Positive*
G04*
G01*
G75*
%ADD10C,0.0719*%
%ADD11C,0.0799*%
%ADD12C,0.5080*%
%ADD13C,0.2500*%
%ADD14C,0.1000*%
%ADD15C,0.2000*%
%ADD16C,0.1524*%
%ADD17C,0.0800*%
%ADD18C,0.1270*%
%ADD19C,0.1778*%
%ADD20C,0.1200*%
%ADD21C,0.1500*%
G36*
X-279833Y-35212D02*
X-277293D01*
Y-31402D01*
X-279833D01*
Y-35212D01*
D02*
G37*
G36*
Y14801D02*
X-277293D01*
Y18611D01*
X-279833D01*
Y14801D01*
D02*
G37*
G36*
X-238205Y42693D02*
X-234395D01*
Y45233D01*
X-238205D01*
Y42693D01*
D02*
G37*
G36*
X-233205Y-54293D02*
X-229395D01*
Y-56833D01*
X-233205D01*
Y-54293D01*
D02*
G37*
G36*
X-177767Y-40213D02*
X-180307D01*
Y-36403D01*
X-177767D01*
Y-40213D01*
D02*
G37*
G36*
Y9799D02*
X-180307D01*
Y13609D01*
X-177767D01*
Y9799D01*
D02*
G37*
G36*
X-15875Y52014D02*
Y54554D01*
X-19685D01*
Y52014D01*
X-15875D01*
D02*
G37*
G36*
X113272Y82937D02*
X110326D01*
X111044Y86000D01*
X109000D01*
X108281Y82937D01*
X105335D01*
X106720Y88847D01*
X104089D01*
X102699Y82937D01*
X99577D01*
X100970Y88847D01*
X94103D01*
X93879Y87905D01*
X98124D01*
X97672Y85988D01*
X93432D01*
X93204Y85014D01*
X97636D01*
X97149Y82937D01*
X89595D01*
X91472Y90923D01*
X110154D01*
X109451Y87917D01*
X111496D01*
X112202Y90923D01*
X115149D01*
X113272Y82937D01*
D02*
G37*
G36*
X125690Y85788D02*
X125834Y85737D01*
X125706Y85157D01*
X125594Y85190D01*
X125514Y85205D01*
X125339Y85221D01*
X125147D01*
X125019Y85205D01*
X124891Y85157D01*
X124764Y85078D01*
X124620Y84902D01*
X124524Y84758D01*
X124444Y84583D01*
X124380Y84375D01*
X124348Y84167D01*
Y84024D01*
X124364Y83912D01*
X124396Y83800D01*
X124444Y83704D01*
X124508Y83640D01*
X124620Y83576D01*
X124748Y83544D01*
X124859D01*
X125019Y83560D01*
X125227Y83608D01*
X125374Y83660D01*
X125307Y83033D01*
X125231Y83013D01*
X125051Y82970D01*
X124764Y82937D01*
X124604D01*
X124284Y82970D01*
X124141Y83001D01*
X123997Y83065D01*
X123869Y83161D01*
X123773Y83289D01*
X123694Y83449D01*
X123646Y83608D01*
X123614Y83848D01*
Y84119D01*
X123646Y84327D01*
X123694Y84535D01*
X123773Y84758D01*
X123853Y84950D01*
X123965Y85141D01*
X124093Y85301D01*
X124221Y85429D01*
X124428Y85589D01*
X124684Y85716D01*
X124987Y85788D01*
X125275Y85812D01*
X125530D01*
X125690Y85788D01*
D02*
G37*
G36*
X122176Y85812D02*
X122029Y85146D01*
X121921Y85174D01*
X121841D01*
X121729Y85126D01*
X121617Y85046D01*
X121482Y84910D01*
X121282Y84646D01*
X121138Y84375D01*
X120962Y83944D01*
X120811Y83453D01*
X120711Y83001D01*
X120056D01*
X120675Y85788D01*
X121330D01*
X121158Y85014D01*
X121282Y85269D01*
X121410Y85461D01*
X121521Y85573D01*
X121649Y85685D01*
X121745Y85748D01*
X121889Y85812D01*
X121985Y85828D01*
X122080D01*
X122176Y85812D01*
D02*
G37*
G36*
X119317Y83001D02*
X118583D01*
X118694Y83512D01*
X118511Y83297D01*
X118343Y83129D01*
X118120Y83001D01*
X117864Y82937D01*
X117608D01*
X117481Y82970D01*
X117321Y83065D01*
X117193Y83193D01*
X117129Y83385D01*
X117097Y83608D01*
X117109Y83848D01*
X117225Y84375D01*
X117533Y85788D01*
X118243D01*
X117832Y83944D01*
X117816Y83832D01*
Y83704D01*
X117832Y83608D01*
X117896Y83544D01*
X117992Y83512D01*
X118088D01*
X118215Y83576D01*
X118343Y83664D01*
X118503Y83832D01*
X118663Y84087D01*
X118822Y84375D01*
X118958Y84698D01*
X119198Y85788D01*
X119936D01*
X119317Y83001D01*
D02*
G37*
G36*
X126992Y85277D02*
X127175Y85493D01*
X127343Y85661D01*
X127566Y85788D01*
X127822Y85852D01*
X128078D01*
X128205Y85820D01*
X128365Y85724D01*
X128493Y85597D01*
X128557Y85405D01*
X128589Y85182D01*
X128577Y84942D01*
X128461Y84415D01*
X128153Y83001D01*
X127443D01*
X127854Y84846D01*
X127870Y84958D01*
Y85086D01*
X127854Y85182D01*
X127790Y85245D01*
X127694Y85277D01*
X127598D01*
X127471Y85213D01*
X127343Y85126D01*
X127183Y84958D01*
X127023Y84702D01*
X126864Y84415D01*
X126728Y84091D01*
X126489Y83001D01*
X125834D01*
X126740Y87094D01*
X127395D01*
X126992Y85277D01*
D02*
G37*
G36*
X122703Y83001D02*
X122049D01*
X122667Y85788D01*
X123322D01*
X122703Y83001D01*
D02*
G37*
G36*
X117078Y86355D02*
X115013Y83664D01*
X116479D01*
X116331Y83001D01*
X113919D01*
X114011Y83429D01*
X116067Y86108D01*
X114606D01*
X114754Y86771D01*
X117169D01*
X117078Y86355D01*
D02*
G37*
G36*
X-635Y-54554D02*
X-4445D01*
Y-52014D01*
X-635D01*
Y-54554D01*
D02*
G37*
D10*
X118251Y86635D02*
G03*
X118251Y86635I-4J0D01*
G01*
X119393D02*
G03*
X119393Y86635I-4J0D01*
G01*
D11*
X123135Y86591D02*
G03*
X123135Y86591I-4J0D01*
G01*
D12*
X106641Y-70250D02*
G03*
X106641Y-70250I-2000J0D01*
G01*
D13*
X-298750Y-101500D02*
G03*
X-298750Y-101500I-1250J0D01*
G01*
X-71750Y-21500D02*
G03*
X-71750Y-21500I-1250J0D01*
G01*
X-100250Y49750D02*
G03*
X-100250Y49750I-1250J0D01*
G01*
X49750Y-57000D02*
G03*
X49750Y-57000I-1250J0D01*
G01*
X-31000Y58750D02*
G03*
X-31000Y58750I-1250J0D01*
G01*
D14*
X-131000Y-52500D02*
G03*
X-131000Y-51500I0J500D01*
G01*
D02*
G03*
X-131000Y-52500I0J-500D01*
G01*
X-84000Y33250D02*
G03*
X-84000Y33250I-500J0D01*
G01*
D15*
X-289750Y60500D02*
G03*
X-289750Y60500I-1000J0D01*
G01*
X-49120Y32120D02*
G03*
X-49120Y32120I-1000J0D01*
G01*
X-79370Y10630D02*
G03*
X-79370Y10630I-1000J0D01*
G01*
X-295000Y-85000D02*
Y-84500D01*
X-304500Y-85000D02*
Y-84500D01*
X-266250Y-99750D02*
X-254750D01*
X-134000Y31250D02*
Y41250D01*
X-103000D01*
X-134000Y31250D02*
X-103000D01*
Y41250D01*
X55250Y-95400D02*
X66500D01*
X-41500D02*
X-30250D01*
X-41500D02*
Y-64600D01*
X55250D02*
X66500D01*
X-41500D02*
X-30250D01*
X66500Y-95400D02*
Y-64600D01*
X-54750Y32120D02*
X-50120Y36750D01*
Y45380D01*
X-63380D02*
X-50120D01*
X-63380Y32120D02*
Y45380D01*
Y32120D02*
X-54750D01*
X-80370Y-2630D02*
Y6000D01*
X-93630Y-2630D02*
X-80370D01*
X-93630D02*
Y10630D01*
X-85000D01*
X-80370Y6000D01*
X-313500Y-12500D02*
X-298500D01*
Y-58500D02*
Y-12500D01*
X-298500Y-58500D02*
X-298500Y-58500D01*
X-313500Y-58500D02*
X-298500D01*
X-313500D02*
Y-12500D01*
X55250Y64600D02*
X66500D01*
X-41500D02*
X-30250D01*
X66500D02*
Y95400D01*
X55250D02*
X66500D01*
X-41500D02*
X-30250D01*
X-207750Y-99750D02*
X-196250D01*
D16*
X-179238Y62250D02*
G03*
X-179238Y62250I-762J0D01*
G01*
X97871Y77216D02*
X108759D01*
X130129Y-64848D02*
Y64848D01*
X97871Y65994D02*
Y77216D01*
Y-77216D02*
X108759D01*
X97871D02*
Y-65994D01*
X32664Y-36322D02*
X36322D01*
X-36322D02*
Y-32664D01*
Y36322D02*
X-32664D01*
X36322Y-36322D02*
Y-32664D01*
X-36322Y-36322D02*
X-32664D01*
X-36322Y32664D02*
Y36322D01*
X32664D02*
X36322D01*
Y32664D02*
Y36322D01*
D17*
X71500Y59350D02*
Y61350D01*
X75500Y41054D02*
Y47054D01*
X73500Y58250D02*
Y62250D01*
X75500Y57054D02*
Y63054D01*
X73500Y26250D02*
Y30250D01*
X75500Y25054D02*
Y31054D01*
X73500Y10250D02*
Y14250D01*
X75500Y9054D02*
Y15054D01*
X73500Y-5750D02*
Y-1750D01*
X75500Y-6946D02*
Y-946D01*
X73500Y-21750D02*
Y-17750D01*
X75500Y-22946D02*
Y-16946D01*
X73500Y-37750D02*
Y-33750D01*
X75500Y-38946D02*
Y-32946D01*
X71500Y43350D02*
Y45350D01*
X73500Y42250D02*
Y46250D01*
X71500Y-36650D02*
Y-34650D01*
Y27350D02*
Y29350D01*
Y11350D02*
Y13350D01*
Y-4650D02*
Y-2650D01*
Y-20650D02*
Y-18650D01*
X75500Y-54946D02*
Y-48946D01*
Y12054D02*
X95000Y12000D01*
X75500Y-3946D02*
X95000Y-4000D01*
X75500Y-19946D02*
X95000Y-20000D01*
X75500Y-35946D02*
X95000Y-36000D01*
X75500Y44054D02*
X95000Y44000D01*
X75500Y60054D02*
X95000Y60000D01*
X75500Y28054D02*
X95000Y28000D01*
X71500Y-52650D02*
Y-50650D01*
X73500Y-53750D02*
Y-49750D01*
X75500Y-51946D02*
X95000Y-52000D01*
D18*
X-268000Y94500D02*
X-254000D01*
X-268000Y62500D02*
X-254000D01*
X-286000Y76500D02*
Y80500D01*
X-236000Y76500D02*
Y80500D01*
D19*
X-276050Y39450D02*
Y41450D01*
X-274050D01*
X-276050Y-53050D02*
Y-51050D01*
Y-53050D02*
X-274050D01*
X-183550D02*
X-181550D01*
Y-51050D01*
Y35167D02*
Y41450D01*
X-187843D02*
X-181550D01*
D20*
X82199Y-57802D02*
X81199Y-56802D01*
X79200D01*
X78200Y-57802D01*
Y-61800D01*
X79200Y-62800D01*
X81199D01*
X82199Y-61800D01*
X84198Y-56802D02*
Y-62800D01*
Y-59801D01*
X88197D01*
Y-56802D01*
Y-62800D01*
X90196Y-57802D02*
X91196Y-56802D01*
X93195D01*
X94195Y-57802D01*
Y-61800D01*
X93195Y-62800D01*
X91196D01*
X90196Y-61800D01*
Y-57802D01*
X82199Y-25802D02*
X81199Y-24802D01*
X79200D01*
X78200Y-25802D01*
Y-29800D01*
X79200Y-30800D01*
X81199D01*
X82199Y-29800D01*
X84198Y-24802D02*
Y-30800D01*
Y-27801D01*
X88197D01*
Y-24802D01*
Y-30800D01*
X94195D02*
X90196D01*
X94195Y-26801D01*
Y-25802D01*
X93195Y-24802D01*
X91196D01*
X90196Y-25802D01*
X82199Y-9802D02*
X81199Y-8802D01*
X79200D01*
X78200Y-9802D01*
Y-13800D01*
X79200Y-14800D01*
X81199D01*
X82199Y-13800D01*
X84198Y-8802D02*
Y-14800D01*
Y-11801D01*
X88197D01*
Y-8802D01*
Y-14800D01*
X90196Y-9802D02*
X91196Y-8802D01*
X93195D01*
X94195Y-9802D01*
Y-10801D01*
X93195Y-11801D01*
X92196D01*
X93195D01*
X94195Y-12801D01*
Y-13800D01*
X93195Y-14800D01*
X91196D01*
X90196Y-13800D01*
X82199Y54198D02*
X81199Y55198D01*
X79200D01*
X78200Y54198D01*
Y50200D01*
X79200Y49200D01*
X81199D01*
X82199Y50200D01*
X84198Y55198D02*
Y49200D01*
Y52199D01*
X88197D01*
Y55198D01*
Y49200D01*
X90196Y55198D02*
X94195D01*
Y54198D01*
X90196Y50200D01*
Y49200D01*
X82199Y-41802D02*
X81199Y-40802D01*
X79200D01*
X78200Y-41802D01*
Y-45800D01*
X79200Y-46800D01*
X81199D01*
X82199Y-45800D01*
X84198Y-40802D02*
Y-46800D01*
Y-43801D01*
X88197D01*
Y-40802D01*
Y-46800D01*
X90196D02*
X92196D01*
X91196D01*
Y-40802D01*
X90196Y-41802D01*
X82199Y38198D02*
X81199Y39198D01*
X79200D01*
X78200Y38198D01*
Y34200D01*
X79200Y33200D01*
X81199D01*
X82199Y34200D01*
X84198Y39198D02*
Y33200D01*
Y36199D01*
X88197D01*
Y39198D01*
Y33200D01*
X94195Y39198D02*
X92196Y38198D01*
X90196Y36199D01*
Y34200D01*
X91196Y33200D01*
X93195D01*
X94195Y34200D01*
Y35199D01*
X93195Y36199D01*
X90196D01*
X82199Y22198D02*
X81199Y23198D01*
X79200D01*
X78200Y22198D01*
Y18200D01*
X79200Y17200D01*
X81199D01*
X82199Y18200D01*
X84198Y23198D02*
Y17200D01*
Y20199D01*
X88197D01*
Y23198D01*
Y17200D01*
X94195Y23198D02*
X90196D01*
Y20199D01*
X92196Y21199D01*
X93195D01*
X94195Y20199D01*
Y18200D01*
X93195Y17200D01*
X91196D01*
X90196Y18200D01*
X82199Y6198D02*
X81199Y7198D01*
X79200D01*
X78200Y6198D01*
Y2200D01*
X79200Y1200D01*
X81199D01*
X82199Y2200D01*
X84198Y7198D02*
Y1200D01*
Y4199D01*
X88197D01*
Y7198D01*
Y1200D01*
X93195D02*
Y7198D01*
X90196Y4199D01*
X94195D01*
D21*
X39165Y46250D02*
X33833Y40918D01*
Y46250D02*
X39165Y40918D01*
X36499Y46250D02*
Y40918D01*
X33833Y43584D02*
X39165D01*
X-308418Y93414D02*
X-309751Y94747D01*
X-312417D01*
X-313750Y93414D01*
Y88083D01*
X-312417Y86750D01*
X-309751D01*
X-308418Y88083D01*
Y90749D01*
X-311084D01*
X-305753Y86750D02*
Y94747D01*
X-300421Y86750D01*
Y94747D01*
X-297755D02*
Y86750D01*
X-293757D01*
X-292424Y88083D01*
Y93414D01*
X-293757Y94747D01*
X-297755D01*
X52503Y-51500D02*
X59167D01*
X60500Y-50167D01*
Y-47501D01*
X59167Y-46168D01*
X52503D01*
X53836Y-38171D02*
X52503Y-39504D01*
Y-42170D01*
X53836Y-43503D01*
X55168D01*
X56501Y-42170D01*
Y-39504D01*
X57834Y-38171D01*
X59167D01*
X60500Y-39504D01*
Y-42170D01*
X59167Y-43503D01*
X60500Y-27508D02*
Y-23509D01*
X59167Y-22176D01*
X57834Y-23509D01*
Y-26175D01*
X56501Y-27508D01*
X55168Y-26175D01*
Y-22176D01*
X52503Y-19510D02*
X60500D01*
X56501D01*
X55168Y-18177D01*
Y-15512D01*
X56501Y-14179D01*
X60500D01*
Y-11513D02*
Y-8847D01*
Y-10180D01*
X55168D01*
Y-11513D01*
X60500Y-850D02*
Y-3516D01*
X59167Y-4848D01*
X56501D01*
X55168Y-3516D01*
Y-850D01*
X56501Y483D01*
X57834D01*
Y-4848D01*
X60500Y3149D02*
Y5815D01*
Y4482D01*
X52503D01*
Y3149D01*
Y15145D02*
X60500D01*
Y11147D01*
X59167Y9814D01*
X56501D01*
X55168Y11147D01*
Y15145D01*
Y25808D02*
X60500Y28474D01*
X55168Y31140D01*
X60500Y33806D02*
Y36472D01*
Y35139D01*
X52503D01*
X53836Y33806D01*
X60500Y40470D02*
X59167D01*
Y41803D01*
X60500D01*
Y40470D01*
X53836Y47135D02*
X52503Y48468D01*
Y51134D01*
X53836Y52467D01*
X59167D01*
X60500Y51134D01*
Y48468D01*
X59167Y47135D01*
X53836D01*
X-110999Y55837D02*
Y61168D01*
Y58503D01*
X-103001D01*
Y63834D02*
X-110999D01*
Y67833D01*
X-109666Y69166D01*
X-107000D01*
X-105667Y67833D01*
Y63834D01*
X-109666Y71832D02*
X-110999Y73165D01*
Y75830D01*
X-109666Y77163D01*
X-108333D01*
X-107000Y75830D01*
X-105667Y77163D01*
X-104334D01*
X-103001Y75830D01*
Y73165D01*
X-104334Y71832D01*
X-105667D01*
X-107000Y73165D01*
X-108333Y71832D01*
X-109666D01*
X-107000Y73165D02*
Y75830D01*
X-140663Y99749D02*
X-135332D01*
X-137997D01*
Y91751D01*
X-132666D02*
Y99749D01*
X-128667D01*
X-127334Y98416D01*
Y95750D01*
X-128667Y94417D01*
X-132666D01*
X-119337Y99749D02*
X-122003Y98416D01*
X-124668Y95750D01*
Y93084D01*
X-123336Y91751D01*
X-120670D01*
X-119337Y93084D01*
Y94417D01*
X-120670Y95750D01*
X-124668D01*
X-37333Y-53501D02*
X-39999D01*
X-38666D01*
Y-60166D01*
X-39999Y-61499D01*
X-41332D01*
X-42664Y-60166D01*
X-29335Y-61499D02*
X-34667D01*
X-29335Y-56167D01*
Y-54834D01*
X-30668Y-53501D01*
X-33334D01*
X-34667Y-54834D01*
X43000Y59249D02*
X40334D01*
X41667D01*
Y52584D01*
X40334Y51251D01*
X39001D01*
X37668Y52584D01*
X45666Y51251D02*
X48332D01*
X46999D01*
Y59249D01*
X45666Y57916D01*
X-288749Y23253D02*
X-282084D01*
X-280751Y24586D01*
Y27252D01*
X-282084Y28585D01*
X-288749D01*
X-280751Y31251D02*
Y33916D01*
Y32584D01*
X-288749D01*
X-287416Y31251D01*
X-280751Y41914D02*
X-288749D01*
X-284750Y37915D01*
Y43247D01*
X-4144Y59405D02*
Y52740D01*
X-2811Y51407D01*
X-145D01*
X1188Y52740D01*
Y59405D01*
X3854Y51407D02*
X6519D01*
X5186D01*
Y59405D01*
X3854Y58072D01*
X10518Y51407D02*
X13184D01*
X11851D01*
Y59405D01*
X10518Y58072D01*
X-233249Y45585D02*
X-231916D01*
X-229250Y48251D01*
X-231916Y50917D01*
X-233249D01*
X-229250Y48251D02*
X-225251D01*
Y58914D02*
Y53583D01*
X-230583Y58914D01*
X-231916D01*
X-233249Y57582D01*
Y54916D01*
X-231916Y53583D01*
X-172082Y42749D02*
Y41416D01*
X-169416Y38750D01*
X-166750Y41416D01*
Y42749D01*
X-169416Y38750D02*
Y34751D01*
X-164084D02*
X-161418D01*
X-162751D01*
Y42749D01*
X-164084Y41416D01*
X-310665Y65249D02*
X-305333Y57251D01*
Y65249D02*
X-310665Y57251D01*
X-297335D02*
X-302667D01*
X-297335Y62583D01*
Y63916D01*
X-298668Y65249D01*
X-301334D01*
X-302667Y63916D01*
X-157497Y39999D02*
Y33334D01*
X-156164Y32001D01*
X-153498D01*
X-152165Y33334D01*
Y39999D01*
X-149499Y32001D02*
X-146834D01*
X-148167D01*
Y39999D01*
X-149499Y38666D01*
X-142835D02*
X-141502Y39999D01*
X-138836D01*
X-137503Y38666D01*
Y33334D01*
X-138836Y32001D01*
X-141502D01*
X-142835Y33334D01*
Y38666D01*
X-67115Y-22117D02*
Y-28782D01*
X-65782Y-30115D01*
X-63116D01*
X-61783Y-28782D01*
Y-22117D01*
X-59117Y-28782D02*
X-57784Y-30115D01*
X-55118D01*
X-53786Y-28782D01*
Y-23450D01*
X-55118Y-22117D01*
X-57784D01*
X-59117Y-23450D01*
Y-24783D01*
X-57784Y-26116D01*
X-53786D01*
X-310999Y-2165D02*
Y-4831D01*
Y-3498D01*
X-304334D01*
X-303001Y-4831D01*
Y-6164D01*
X-304334Y-7497D01*
X-303001Y501D02*
Y3167D01*
Y1834D01*
X-310999D01*
X-309666Y501D01*
Y7165D02*
X-310999Y8498D01*
Y11164D01*
X-309666Y12497D01*
X-308333D01*
X-307000Y11164D01*
Y9831D01*
Y11164D01*
X-305667Y12497D01*
X-304334D01*
X-303001Y11164D01*
Y8498D01*
X-304334Y7165D01*
X-264332Y-55251D02*
X-266998D01*
X-265665D01*
Y-61916D01*
X-266998Y-63249D01*
X-268331D01*
X-269664Y-61916D01*
X-261667Y-63249D02*
X-259001D01*
X-260333D01*
Y-55251D01*
X-261667Y-56584D01*
X-255002Y-63249D02*
X-252336D01*
X-253669D01*
Y-55251D01*
X-255002Y-56584D01*
X-228165Y-64501D02*
X-230831D01*
X-229498D01*
Y-71166D01*
X-230831Y-72499D01*
X-232164D01*
X-233497Y-71166D01*
X-225499Y-72499D02*
X-222834D01*
X-224167D01*
Y-64501D01*
X-225499Y-65834D01*
X-218835D02*
X-217502Y-64501D01*
X-214836D01*
X-213503Y-65834D01*
Y-71166D01*
X-214836Y-72499D01*
X-217502D01*
X-218835Y-71166D01*
Y-65834D01*
X97667Y-82001D02*
X95001D01*
X96334D01*
Y-88666D01*
X95001Y-89999D01*
X93668D01*
X92336Y-88666D01*
X104332Y-89999D02*
Y-82001D01*
X100333Y-86000D01*
X105665D01*
X-292499Y-92415D02*
X-284501D01*
Y-88416D01*
X-285834Y-87083D01*
X-291166D01*
X-292499Y-88416D01*
Y-92415D01*
X-284501Y-79085D02*
Y-84417D01*
X-289833Y-79085D01*
X-291166D01*
X-292499Y-80418D01*
Y-83084D01*
X-291166Y-84417D01*
M02*
