G04*
G04 #@! TF.GenerationSoftware,Altium Limited,Altium Designer,23.3.1 (30)*
G04*
G04 Layer_Physical_Order=3*
G04 Layer_Color=14461039*
%FSLAX44Y44*%
%MOMM*%
G71*
G04*
G04 #@! TF.SameCoordinates,9951316E-5AA8-40CD-BDAD-E2DC54E6BB6D*
G04*
G04*
G04 #@! TF.FilePolarity,Positive*
G04*
G01*
G75*
%ADD15C,0.2000*%
%ADD16C,0.1524*%
%ADD105C,0.2030*%
%ADD109C,0.4000*%
%ADD111C,0.4500*%
D15*
X-191550Y31450D02*
X-191072Y30972D01*
X-189722D01*
X-188460Y29710D01*
X-127040D01*
X-195204Y47000D02*
X-106500D01*
X-100750Y41250D01*
X-197204Y45000D02*
X-195204Y47000D01*
X-127040Y29710D02*
X-121750Y35000D01*
X-108000D01*
X-103000Y30000D01*
Y16762D02*
Y30000D01*
X-197881Y45000D02*
X-197204D01*
D16*
X-30988Y40012D02*
Y67558D01*
X-56762Y70762D02*
X-34192D01*
X-30988Y67558D01*
X-70000Y84000D02*
X-56762Y70762D01*
X-13000Y63472D02*
X-11750Y64722D01*
Y74000D01*
X-13000Y55000D02*
Y63472D01*
X-20000Y74500D02*
X-19750Y74750D01*
X-20000Y50500D02*
Y74500D01*
X-6008Y82241D02*
X-3069Y85181D01*
Y87181D01*
X-2500Y87750D01*
X-6008Y57509D02*
Y82241D01*
Y57509D02*
X30328Y21172D01*
X118381Y-39750D02*
X122762Y-44131D01*
X120589Y-57411D02*
Y-50042D01*
X122762Y-47869D02*
Y-44131D01*
X112250Y-65750D02*
X120589Y-57411D01*
Y-50042D02*
X122762Y-47869D01*
X108750Y-46000D02*
X118250D01*
X51500Y11250D02*
X108750Y-46000D01*
X116250Y-39750D02*
X118381D01*
X112983Y-36482D02*
X116250Y-39750D01*
X102000Y-29750D02*
X116500D01*
X86250Y-14000D02*
X102000Y-29750D01*
X3500Y-91000D02*
X37680D01*
X59942Y-68738D01*
X61509D01*
X67247Y-63000D01*
X-245952Y14048D02*
X-221000Y39000D01*
X-215000D02*
X-202445Y26445D01*
X-221000Y39000D02*
X-215000D01*
X-256982Y27337D02*
X-253133D01*
X-213383Y50893D02*
X-103393D01*
X-212053Y56500D02*
X-173750D01*
X-248976Y-2311D02*
Y15301D01*
X-258095Y26224D02*
X-256982Y27337D01*
X-252000Y-1058D02*
Y16553D01*
X-262550Y18548D02*
X-254282D01*
X-212580Y60250D02*
X-186750D01*
X-253133Y27337D02*
X-214970Y65500D01*
X-254282Y18548D02*
X-212580Y60250D01*
X-262750Y26224D02*
X-258095D01*
X-248976Y15301D02*
X-213383Y50893D01*
X-245952Y-3563D02*
Y14048D01*
X-252000Y16553D02*
X-212053Y56500D01*
X-198502Y28489D02*
Y32444D01*
X-199802Y23408D02*
X-169901D01*
X-202445Y26051D02*
Y26445D01*
Y26051D02*
X-199802Y23408D01*
X-198506Y32448D02*
X-198502Y32444D01*
Y28489D02*
X-197933Y27920D01*
X-214970Y65500D02*
X-199500D01*
X-267262Y28093D02*
X-264105Y31250D01*
X-255747D02*
X-241667Y45330D01*
X-264105Y31250D02*
X-255747D01*
X92000Y36000D02*
Y43278D01*
X93000Y44278D01*
Y50750D01*
X69500Y43250D02*
X92000Y20750D01*
Y20000D02*
Y20750D01*
X42500Y43250D02*
X69500D01*
X84000Y14250D02*
X89379Y8871D01*
X92000Y4000D02*
Y4805D01*
X89379Y7427D02*
X92000Y4805D01*
X89379Y7427D02*
Y8871D01*
X91941Y-11882D02*
Y-6692D01*
Y-11882D02*
X92060Y-12000D01*
X71337Y-33087D02*
X76250Y-38000D01*
X43000Y-33087D02*
X71337D01*
X8000Y-26800D02*
Y-26250D01*
Y-26800D02*
X20750Y-39550D01*
X-267262Y16878D02*
X-259524Y9140D01*
X-267262Y16878D02*
Y28093D01*
X-261981Y-4750D02*
Y-2826D01*
X-262550Y-5319D02*
X-261981Y-4750D01*
X-259524Y-369D02*
Y9140D01*
X-261981Y-2826D02*
X-259524Y-369D01*
X-264036Y695D02*
Y1500D01*
X-266761Y-2711D02*
Y-2030D01*
X-264036Y695D01*
X-267922Y-3873D02*
X-266761Y-2711D01*
X-260681Y-9831D02*
X-257747Y-6896D01*
X-277642Y-12855D02*
X-259429D01*
X-282855Y-25250D02*
X-273484Y-15879D01*
X-251699Y-9402D02*
Y-9310D01*
X-257747Y-6896D02*
Y-6805D01*
X-280194Y-9831D02*
X-260681D01*
X-283244Y-12881D02*
X-280194Y-9831D01*
X-254723Y-8149D02*
Y-8057D01*
X-273484Y-15879D02*
X-258176D01*
X-283658Y-18872D02*
X-277642Y-12855D01*
X-257747Y-6805D02*
X-252000Y-1058D01*
X-258176Y-15879D02*
X-251699Y-9402D01*
X-259429Y-12855D02*
X-254723Y-8149D01*
Y-8057D02*
X-248976Y-2311D01*
X-281421Y-3873D02*
X-267922D01*
X-251699Y-9310D02*
X-245952Y-3563D01*
X-14250Y-90000D02*
Y-76500D01*
Y-90000D02*
X-7500Y-96750D01*
X-17750Y-73000D02*
X-14250Y-76500D01*
X83750Y-63000D02*
X88697Y-67947D01*
X67247Y-63000D02*
X83750D01*
X88697Y-67947D02*
X100803D01*
X86750Y-59500D02*
X89380Y-62130D01*
X47805Y-63750D02*
X52055Y-59500D01*
X86750D01*
X31881Y-51762D02*
X74201D01*
X31869Y-51750D02*
X31881Y-51762D01*
X74201D02*
X75988Y-49975D01*
X26250Y-51750D02*
X31869D01*
X33750Y-47250D02*
X39610Y-41390D01*
X20750Y-46250D02*
X26250Y-51750D01*
X39610Y-41390D02*
X65390D01*
X68500Y-44500D01*
X75988Y-49975D02*
X76793D01*
X68500Y-44500D02*
X75750D01*
X-20000Y50500D02*
X27000Y3500D01*
X49500D01*
X109991Y-56991D01*
X86250Y-14000D02*
Y-12250D01*
X70000Y4000D02*
X86250Y-12250D01*
X70000Y4000D02*
Y11000D01*
X84000Y14250D02*
Y18750D01*
X77750Y7500D02*
X91941Y-6692D01*
X89380Y-62130D02*
X102327D01*
X105948Y-65750D02*
X112250D01*
X110580Y-36482D02*
X112983D01*
X110098Y-36000D02*
X110580Y-36482D01*
X102327Y-62130D02*
X105948Y-65750D01*
X109991Y-60143D02*
X110098Y-60250D01*
X109991Y-60143D02*
Y-56991D01*
X100803Y-67947D02*
X101000Y-67750D01*
X-2250Y-96750D02*
X3500Y-91000D01*
X-7500Y-96750D02*
X-2250D01*
X-6000Y-89000D02*
X-762Y-83762D01*
X16908Y-55750D02*
X90750D01*
X91000Y-56000D01*
X37500Y-63750D02*
X47805D01*
X-762Y-83762D02*
X17488D01*
X37500Y-63750D01*
X-5938Y-78597D02*
X16908Y-55750D01*
X20750Y-46250D02*
Y-39550D01*
X75750Y-44500D02*
X76250Y-44000D01*
X76565Y-31934D02*
Y-31602D01*
X59738Y-15238D02*
X60201D01*
X76565Y-31602D01*
X59738Y-15238D02*
Y-14442D01*
X30750Y11250D02*
X51500D01*
X-102308Y49808D02*
X-57942D01*
X-54500Y53250D01*
X-13000Y55000D02*
X30750Y11250D01*
X59828Y21172D02*
X70000Y11000D01*
X30328Y21172D02*
X59828D01*
X36000Y29000D02*
X64000D01*
X5081Y59919D02*
Y76322D01*
Y59919D02*
X36000Y29000D01*
X64000D02*
X77750Y15250D01*
Y7500D02*
Y15250D01*
X66250Y36500D02*
X84000Y18750D01*
X14104Y62146D02*
X39750Y36500D01*
X66250D01*
X29750Y56000D02*
X42500Y43250D01*
X14104Y62146D02*
Y70681D01*
X29750Y56000D02*
Y83250D01*
X13535Y71250D02*
X14104Y70681D01*
X36750Y57250D02*
X86500D01*
X93000Y50750D01*
X4752Y76652D02*
X5081Y76322D01*
X29250Y83750D02*
X29750Y83250D01*
X-295258Y38742D02*
X-285579Y48421D01*
X-297319Y43931D02*
X-286250Y55000D01*
X-295258Y38100D02*
Y38742D01*
X-163000Y84000D02*
X-70000D01*
X-186750Y60250D02*
X-163000Y84000D01*
X-61831Y-47669D02*
X-56500Y-53000D01*
X-70568Y-19238D02*
X-60750Y-29056D01*
X-115548Y-19238D02*
X-70568D01*
X-63926Y-53250D02*
X-63120D01*
X-66483Y-50693D02*
X-63926Y-53250D01*
X-70716Y-50693D02*
X-66483D01*
X-69331Y-47669D02*
X-61831D01*
X-79692Y-41716D02*
X-70716Y-50693D01*
X-120500Y-30000D02*
X-81000D01*
X-74750Y-23750D01*
X-118286Y-16500D02*
X-115548Y-19238D01*
X-133438Y-33312D02*
X-83688D01*
X-131784Y-41716D02*
X-79692D01*
X-83688Y-33312D02*
X-69331Y-47669D01*
X-145500Y-28000D02*
X-131784Y-41716D01*
X-290102Y-2102D02*
X-279500Y8500D01*
Y29168D02*
X-261011Y47657D01*
X-279500Y8500D02*
Y29168D01*
X-292729Y-2671D02*
X-292160Y-2102D01*
X-290102D01*
X-291695Y3239D02*
Y3305D01*
X-283988Y11011D01*
X-290500Y-18835D02*
X-288561Y-16896D01*
Y-11012D01*
X-290500Y-28183D02*
Y-18835D01*
X-296339Y-34022D02*
X-290500Y-28183D01*
X-288561Y-11012D02*
X-281421Y-3873D01*
X-275000Y6825D02*
Y26017D01*
X-289142Y-7316D02*
X-275000Y6825D01*
X-297007Y-5878D02*
X-295568Y-7316D01*
X-297812Y-5878D02*
X-297007D01*
X-295568Y-7316D02*
X-289142D01*
X-264000Y-36250D02*
X-260774Y-33024D01*
X-255976D02*
X-250262Y-38738D01*
X-260774Y-33024D02*
X-255976D01*
X-283988Y31978D02*
X-267756Y48210D01*
X-283988Y11011D02*
Y31978D01*
X-168059Y25250D02*
X-123250D01*
X-169901Y23408D02*
X-168059Y25250D01*
X-198506Y32448D02*
X-194205Y36750D01*
X-284388Y-18872D02*
X-283658D01*
X-284049Y-12881D02*
X-283244D01*
X-123250Y25250D02*
X-118500Y30000D01*
X-194205Y36750D02*
X-187131D01*
X-283661Y-25250D02*
X-282855D01*
X-132500Y71547D02*
Y74163D01*
X-152750Y77500D02*
X-135031D01*
Y76695D02*
X-132500Y74163D01*
X-135031Y76695D02*
Y77500D01*
X-103393Y50893D02*
X-102308Y49808D01*
X-132500Y71547D02*
X-118773Y57820D01*
X-187131Y36750D02*
X-184028Y33647D01*
X-128890D02*
X-124250Y38286D01*
X-184028Y33647D02*
X-128890D01*
X-124250Y38286D02*
X-105536D01*
X-97000Y29750D01*
X-285579Y48421D02*
X-273927D01*
X-286250Y55000D02*
X-252500D01*
X-171500Y-40500D02*
X-159000Y-28000D01*
X-173750Y56500D02*
X-152750Y77500D01*
X-232419Y-40919D02*
Y-35419D01*
X-188000Y9000D02*
X-73000D01*
X-232419Y-35419D02*
X-188000Y9000D01*
X-237592Y-35592D02*
X-189750Y12250D01*
X-27817Y-2183D02*
Y-2183D01*
X-189750Y12250D02*
X-86143D01*
X-237592Y-39142D02*
Y-35592D01*
X-230528Y-75710D02*
X-230067Y-76172D01*
X-238000Y-39550D02*
X-237592Y-39142D01*
X-184000Y-5250D02*
X-98774D01*
X-214625Y-42125D02*
Y-35875D01*
X-184000Y-5250D01*
X-176500Y88500D02*
X-102631D01*
X-199500Y65500D02*
X-176500Y88500D01*
X-31000Y40000D02*
X-30988Y40012D01*
X-31000Y16000D02*
Y40000D01*
X-186000Y-39000D02*
X-163500Y-16500D01*
X-118286D01*
X-182000Y-9000D02*
X-94750D01*
X-180750Y-13000D02*
X-69250D01*
X-204702Y-31702D02*
X-182000Y-9000D01*
X-198606Y-30856D02*
X-180750Y-13000D01*
X-69250D02*
X-65500Y-16750D01*
X-98774Y-5250D02*
X-92262Y1262D01*
X-94750Y-9000D02*
X-89250Y-3500D01*
X-129250Y-21250D02*
X-120500Y-30000D01*
X-161750Y-23750D02*
X-143000D01*
X-133438Y-33312D01*
X-159000Y-28000D02*
X-145500D01*
X-49262Y1262D02*
X-30500Y-17500D01*
X-198606Y-41750D02*
Y-30856D01*
X-204702Y-42209D02*
Y-31702D01*
X-92262Y1262D02*
X-49262D01*
X-65500Y-16750D02*
X-55750D01*
X-225493Y-66960D02*
X-225458D01*
X-225504Y-66949D02*
X-225493Y-66960D01*
X-231505Y-47005D02*
X-219505D01*
X-234250Y-49750D02*
X-231505Y-47005D01*
X-241431Y-44569D02*
X-236069D01*
X-241800Y-44200D02*
X-241431Y-44569D01*
X-236069D02*
X-232419Y-40919D01*
X-248262Y45778D02*
X-248119Y45920D01*
X-248546Y46347D02*
X-248119Y45920D01*
X-219505Y-47005D02*
X-214625Y-42125D01*
X-229751Y-55027D02*
X-226724Y-52000D01*
X-192250D02*
X-186000Y-45750D01*
X-226724Y-52000D02*
X-192250D01*
X-58250Y28250D02*
X-27817Y-2183D01*
Y-2183D02*
X-27722Y-2089D01*
X-50000Y13250D02*
X-28750Y-8000D01*
X-245500Y-49750D02*
X-234250D01*
X-225458Y-67020D02*
Y-66960D01*
X-225466Y-67081D02*
Y-67028D01*
X-225458Y-67020D01*
X-229751Y-55833D02*
Y-55027D01*
X-229566Y-62372D02*
X-229509Y-62316D01*
X-250262Y-44988D02*
X-245500Y-49750D01*
X-250262Y-44988D02*
Y-38738D01*
X-264304Y-42000D02*
X-264000Y-41696D01*
Y-36250D01*
X-186000Y-45750D02*
Y-39000D01*
X-172250Y-34250D02*
X-161750Y-23750D01*
X-193125Y-57375D02*
X-131125D01*
X-97000Y18393D02*
Y29750D01*
X-100631Y90500D02*
X-100250D01*
X-102631Y88500D02*
X-100631Y90500D01*
X-248546Y46347D02*
Y51046D01*
X-252500Y55000D02*
X-248546Y51046D01*
X-275000Y26017D02*
X-254267Y46750D01*
X-27817Y-2183D02*
X-27817D01*
X-68500Y13250D02*
X-50000D01*
X-86750Y28250D02*
X-58250D01*
X-131125Y-57375D02*
X-131000Y-57500D01*
X-193250Y-57250D02*
X-193125Y-57375D01*
X-88380Y23747D02*
Y26620D01*
X-88627Y23500D02*
X-88380Y23747D01*
Y26620D02*
X-86750Y28250D01*
X-73000Y9000D02*
X-68750Y13250D01*
X-86143Y12250D02*
X-85250Y13143D01*
Y20123D01*
X-88627Y23500D02*
X-85250Y20123D01*
X-95451Y16844D02*
X-90344D01*
X-97000Y18393D02*
X-95451Y16844D01*
D105*
X-297124Y6410D02*
X-296934Y6219D01*
X-262750Y-93000D02*
Y-65250D01*
X-254012Y-56512D01*
X-264750Y-50000D02*
X-258008Y-43258D01*
X-290750Y-50000D02*
X-264750D01*
X-254968Y-43258D02*
X-254774Y-43064D01*
X-258008Y-43258D02*
X-254968D01*
X-296623Y-44127D02*
X-290750Y-50000D01*
X-296581Y-44085D02*
X-296462D01*
X-296623Y-44127D02*
X-296581Y-44085D01*
X-254012Y-56512D02*
Y-43211D01*
D109*
X-71755Y-33495D02*
X-71659Y-33591D01*
X-67778D02*
X-40931Y-60437D01*
X-71659Y-33591D02*
X-67778D01*
X-40931Y-73469D02*
Y-60437D01*
Y-73469D02*
X-27648Y-86752D01*
D111*
X-12988Y88150D02*
D03*
X-11750Y74000D02*
D03*
X-19750Y74750D02*
D03*
X-2500Y87750D02*
D03*
X118250Y-46000D02*
D03*
X116500Y-29750D02*
D03*
X-296568Y-11747D02*
D03*
X-197933Y27920D02*
D03*
X92000Y36000D02*
D03*
Y20000D02*
D03*
Y4000D02*
D03*
X92060Y-12000D02*
D03*
X43000Y-33087D02*
D03*
X8000Y-26250D02*
D03*
X-262550Y18548D02*
D03*
X-262750Y26224D02*
D03*
X-264260Y7496D02*
D03*
X-264036Y1500D02*
D03*
X-262550Y-5319D02*
D03*
X33750Y-47250D02*
D03*
X110098Y-60250D02*
D03*
X101000Y-67750D02*
D03*
X-6000Y-89000D02*
D03*
X91000Y-56000D02*
D03*
X76793Y-49975D02*
D03*
X76250Y-44000D02*
D03*
Y-38000D02*
D03*
X76565Y-31934D02*
D03*
X59738Y-14442D02*
D03*
X-5938Y-78597D02*
D03*
X-17750Y-73000D02*
D03*
X110098Y-36000D02*
D03*
X75935Y46684D02*
D03*
X91750Y60250D02*
D03*
X36750Y57250D02*
D03*
X29250Y83750D02*
D03*
X13535Y71250D02*
D03*
X4752Y76652D02*
D03*
X-295258Y38100D02*
D03*
X-71755Y-33495D02*
D03*
X-27648Y-86752D02*
D03*
X-29551Y-75500D02*
D03*
X-61500Y82250D02*
D03*
X-56500Y-53000D02*
D03*
X-60750Y-29056D02*
D03*
X-63120Y-53250D02*
D03*
X-74750Y-23750D02*
D03*
X-291695Y3239D02*
D03*
X-296934Y6219D02*
D03*
X-292729Y-2671D02*
D03*
X-297812Y-5878D02*
D03*
X-266283Y-25805D02*
D03*
X-288500Y14250D02*
D03*
X-284388Y-18872D02*
D03*
X-284049Y-12881D02*
D03*
X-191550Y31450D02*
D03*
X-283661Y-25250D02*
D03*
X-135031Y77500D02*
D03*
X-118773Y57820D02*
D03*
X-296750Y44500D02*
D03*
X-171500Y-40500D02*
D03*
X-118500Y30000D02*
D03*
X-129250Y-21250D02*
D03*
X-225504Y-66949D02*
D03*
X-241800Y-44200D02*
D03*
X-238000Y-39550D02*
D03*
X-248262Y45778D02*
D03*
X-54500Y53250D02*
D03*
X-262750Y-93000D02*
D03*
X-27722Y-2089D02*
D03*
X-28750Y-8000D02*
D03*
X-68750Y13250D02*
D03*
X-230067Y-76172D02*
D03*
X-229751Y-55833D02*
D03*
X-229509Y-62316D02*
D03*
X-228297Y-87451D02*
D03*
X-198606Y-41750D02*
D03*
X-204702Y-42209D02*
D03*
X-264304Y-42000D02*
D03*
X-254774Y-43064D02*
D03*
X-172250Y-34250D02*
D03*
X-296462Y-44085D02*
D03*
X-197881Y45000D02*
D03*
X-296339Y-34022D02*
D03*
X-273927Y48421D02*
D03*
X-241667Y45330D02*
D03*
X-254267Y46750D02*
D03*
X-267756Y48210D02*
D03*
X-261011Y47657D02*
D03*
X-89250Y-3500D02*
D03*
X-30500Y-17500D02*
D03*
X-131000Y-57500D02*
D03*
X-103000Y16762D02*
D03*
X-90344Y16844D02*
D03*
X-55750Y-16750D02*
D03*
X-100250Y90500D02*
D03*
X-193250Y-57250D02*
D03*
X-88627Y23500D02*
D03*
X-100750Y41250D02*
D03*
X-31000Y16000D02*
D03*
M02*
