G04*
G04 #@! TF.GenerationSoftware,Altium Limited,Altium Designer,23.3.1 (30)*
G04*
G04 Layer_Color=16711935*
%FSLAX44Y44*%
%MOMM*%
G71*
G04*
G04 #@! TF.SameCoordinates,9951316E-5AA8-40CD-BDAD-E2DC54E6BB6D*
G04*
G04*
G04 #@! TF.FilePolarity,Positive*
G04*
G01*
G75*
%ADD14C,0.1000*%
D14*
X71952Y74000D02*
X71952Y105000D01*
X-317000D02*
X71952D01*
X-317000Y-105000D02*
Y105000D01*
Y-105000D02*
X71952D01*
X71952Y-73997D01*
Y-73280D01*
X72232Y-71875D01*
X72780Y-70551D01*
X73576Y-69360D01*
X74590Y-68347D01*
X75781Y-67551D01*
X77105Y-67003D01*
X78510Y-66723D01*
X79226D01*
X79235Y-66723D01*
X79235Y-66723D02*
X79235Y-66723D01*
X79235Y-66723D02*
X79951Y-66724D01*
X81355Y-67005D01*
X82677Y-67554D01*
X83867Y-68350D01*
X84879Y-69363D01*
X85673Y-70554D01*
X86221Y-71877D01*
X86500Y-73281D01*
X86500Y-73997D02*
X86500Y-73281D01*
X86500Y-94500D02*
Y-73997D01*
Y-94500D02*
X132000Y-94500D01*
Y94952D01*
X86500Y94952D02*
X132000Y94952D01*
X86500Y74000D02*
Y94952D01*
X86500Y74000D02*
X86500Y74000D01*
X86500Y74000D02*
X86500Y73042D01*
X86004Y71192D02*
X86500Y73042D01*
X85047Y69534D02*
X86004Y71192D01*
X83693Y68179D02*
X85047Y69534D01*
X82034Y67222D02*
X83693Y68179D01*
X80184Y66726D02*
X82034Y67222D01*
X78268Y66726D02*
X80184Y66726D01*
X76418Y67222D02*
X78268Y66726D01*
X74760Y68179D02*
X76418Y67222D01*
X73406Y69534D02*
X74760Y68179D01*
X72448Y71192D02*
X73406Y69534D01*
X71952Y73042D02*
X72448Y71192D01*
X71952Y73042D02*
X71952Y74000D01*
M02*
