G04*
G04 #@! TF.GenerationSoftware,Altium Limited,Altium Designer,23.3.1 (30)*
G04*
G04 Layer_Color=16711935*
%FSLAX44Y44*%
%MOMM*%
G71*
G04*
G04 #@! TF.SameCoordinates,9951316E-5AA8-40CD-BDAD-E2DC54E6BB6D*
G04*
G04*
G04 #@! TF.FilePolarity,Negative*
G04*
G01*
G75*
%ADD29R,1.0414X0.5334*%
%ADD30R,0.6000X0.4000*%
%ADD57R,0.6153X0.5725*%
%ADD61R,0.5000X0.4000*%
%ADD62R,0.4000X0.5000*%
%ADD64R,0.5725X0.5682*%
%ADD67R,0.4682X0.4725*%
%ADD68R,0.4725X0.4682*%
%ADD69R,1.1051X1.0062*%
%ADD70R,0.6500X0.7000*%
%ADD71R,1.0062X1.1051*%
%ADD74R,0.5682X0.5725*%
%ADD75R,0.5153X0.4725*%
%ADD76R,0.9000X0.7500*%
%ADD77R,0.5725X0.6153*%
%ADD79R,1.7010X0.9898*%
%ADD80C,1.0500*%
%ADD84R,0.5700X0.6100*%
G04:AMPARAMS|DCode=95|XSize=0.6mm|YSize=0.85mm|CornerRadius=0.0745mm|HoleSize=0mm|Usage=FLASHONLY|Rotation=0.000|XOffset=0mm|YOffset=0mm|HoleType=Round|Shape=RoundedRectangle|*
%AMROUNDEDRECTD95*
21,1,0.6000,0.7010,0,0,0.0*
21,1,0.4510,0.8500,0,0,0.0*
1,1,0.1490,0.2255,-0.3505*
1,1,0.1490,-0.2255,-0.3505*
1,1,0.1490,-0.2255,0.3505*
1,1,0.1490,0.2255,0.3505*
%
%ADD95ROUNDEDRECTD95*%
%ADD101C,0.2760*%
%ADD102R,0.6100X0.5700*%
%ADD103R,1.0500X0.9500*%
%ADD113R,0.4541X0.3627*%
%ADD114R,0.4725X0.5153*%
%ADD115R,1.3082X1.0057*%
%ADD116R,0.5100X0.4000*%
%ADD117R,1.1064X0.4156*%
%ADD118R,1.1318X0.1524*%
%ADD119R,0.8000X2.7000*%
%ADD120R,0.5000X0.4750*%
%ADD121R,0.4000X0.3500*%
%ADD123R,0.6000X0.5000*%
G04:AMPARAMS|DCode=124|XSize=0.2393mm|YSize=0.806mm|CornerRadius=0.1196mm|HoleSize=0mm|Usage=FLASHONLY|Rotation=180.000|XOffset=0mm|YOffset=0mm|HoleType=Round|Shape=RoundedRectangle|*
%AMROUNDEDRECTD124*
21,1,0.2393,0.5667,0,0,180.0*
21,1,0.0000,0.8060,0,0,180.0*
1,1,0.2393,0.0000,0.2834*
1,1,0.2393,0.0000,0.2834*
1,1,0.2393,0.0000,-0.2834*
1,1,0.2393,0.0000,-0.2834*
%
%ADD124ROUNDEDRECTD124*%
%ADD125R,0.8060X0.2393*%
G04:AMPARAMS|DCode=126|XSize=0.806mm|YSize=0.2393mm|CornerRadius=0.1196mm|HoleSize=0mm|Usage=FLASHONLY|Rotation=180.000|XOffset=0mm|YOffset=0mm|HoleType=Round|Shape=RoundedRectangle|*
%AMROUNDEDRECTD126*
21,1,0.8060,0.0000,0,0,180.0*
21,1,0.5667,0.2393,0,0,180.0*
1,1,0.2393,-0.2834,0.0000*
1,1,0.2393,0.2834,0.0000*
1,1,0.2393,0.2834,0.0000*
1,1,0.2393,-0.2834,0.0000*
%
%ADD126ROUNDEDRECTD126*%
%ADD127R,1.5000X1.5000*%
G04:AMPARAMS|DCode=128|XSize=1.2397mm|YSize=0.5258mm|CornerRadius=0.2629mm|HoleSize=0mm|Usage=FLASHONLY|Rotation=270.000|XOffset=0mm|YOffset=0mm|HoleType=Round|Shape=RoundedRectangle|*
%AMROUNDEDRECTD128*
21,1,1.2397,0.0000,0,0,270.0*
21,1,0.7139,0.5258,0,0,270.0*
1,1,0.5258,0.0000,-0.3569*
1,1,0.5258,0.0000,0.3569*
1,1,0.5258,0.0000,0.3569*
1,1,0.5258,0.0000,-0.3569*
%
%ADD128ROUNDEDRECTD128*%
%ADD129R,0.5258X1.2397*%
%ADD135R,0.6000X0.6000*%
%ADD137R,0.7000X0.6500*%
%ADD142R,0.3627X0.4541*%
%ADD143R,0.4750X0.5000*%
%ADD144R,0.7000X0.9500*%
%ADD145R,0.9500X0.7000*%
%ADD146R,1.3500X0.7612*%
%ADD147R,1.7000X2.4300*%
%ADD148R,0.7500X0.3000*%
%ADD149R,0.5500X0.5250*%
G04:AMPARAMS|DCode=150|XSize=0.8mm|YSize=0.27mm|CornerRadius=0.0316mm|HoleSize=0mm|Usage=FLASHONLY|Rotation=90.000|XOffset=0mm|YOffset=0mm|HoleType=Round|Shape=RoundedRectangle|*
%AMROUNDEDRECTD150*
21,1,0.8000,0.2068,0,0,90.0*
21,1,0.7368,0.2700,0,0,90.0*
1,1,0.0632,0.1034,0.3684*
1,1,0.0632,0.1034,-0.3684*
1,1,0.0632,-0.1034,-0.3684*
1,1,0.0632,-0.1034,0.3684*
%
%ADD150ROUNDEDRECTD150*%
G04:AMPARAMS|DCode=151|XSize=0.86mm|YSize=0.27mm|CornerRadius=0.0316mm|HoleSize=0mm|Usage=FLASHONLY|Rotation=180.000|XOffset=0mm|YOffset=0mm|HoleType=Round|Shape=RoundedRectangle|*
%AMROUNDEDRECTD151*
21,1,0.8600,0.2068,0,0,180.0*
21,1,0.7968,0.2700,0,0,180.0*
1,1,0.0632,-0.3984,0.1034*
1,1,0.0632,0.3984,0.1034*
1,1,0.0632,0.3984,-0.1034*
1,1,0.0632,-0.3984,-0.1034*
%
%ADD151ROUNDEDRECTD151*%
G04:AMPARAMS|DCode=152|XSize=0.96mm|YSize=0.27mm|CornerRadius=0.0316mm|HoleSize=0mm|Usage=FLASHONLY|Rotation=0.000|XOffset=0mm|YOffset=0mm|HoleType=Round|Shape=RoundedRectangle|*
%AMROUNDEDRECTD152*
21,1,0.9600,0.2068,0,0,0.0*
21,1,0.8968,0.2700,0,0,0.0*
1,1,0.0632,0.4484,-0.1034*
1,1,0.0632,-0.4484,-0.1034*
1,1,0.0632,-0.4484,0.1034*
1,1,0.0632,0.4484,0.1034*
%
%ADD152ROUNDEDRECTD152*%
%ADD153R,0.5250X0.5500*%
G36*
X45032Y51269D02*
X45050Y51261D01*
X45093Y51243D01*
X45145Y51203D01*
X50098Y46250D01*
X50138Y46198D01*
X50164Y46137D01*
X50172Y46072D01*
Y36928D01*
X50164Y36863D01*
X50156Y36845D01*
X50138Y36802D01*
X50098Y36750D01*
X45145Y31797D01*
X45093Y31757D01*
X45032Y31731D01*
X44967Y31723D01*
X16519D01*
X16454Y31731D01*
X16436Y31739D01*
X16393Y31757D01*
X16341Y31797D01*
X11462Y36676D01*
X-2531D01*
X-2596Y36684D01*
X-2657Y36710D01*
X-2709Y36750D01*
X-2749Y36802D01*
X-2775Y36863D01*
X-2783Y36928D01*
Y46072D01*
X-2775Y46137D01*
X-2749Y46198D01*
X-2709Y46250D01*
X-2657Y46290D01*
X-2596Y46316D01*
X-2531Y46324D01*
X11462D01*
X16341Y51203D01*
X16393Y51243D01*
X16454Y51269D01*
X16519Y51277D01*
X44967D01*
X45032Y51269D01*
D02*
G37*
D29*
X101141Y20000D02*
D03*
Y36000D02*
D03*
Y12000D02*
D03*
Y60000D02*
D03*
Y44000D02*
D03*
Y52000D02*
D03*
Y-44000D02*
D03*
Y-36000D02*
D03*
Y-60000D02*
D03*
Y-52000D02*
D03*
Y-12000D02*
D03*
Y4000D02*
D03*
Y-20000D02*
D03*
Y-28000D02*
D03*
Y28000D02*
D03*
Y-4000D02*
D03*
D30*
X-96250Y24750D02*
D03*
Y33750D02*
D03*
D57*
X-138286Y68000D02*
D03*
X-129714D02*
D03*
X-228536Y42250D02*
D03*
X-219964D02*
D03*
X-58536Y70000D02*
D03*
X-49964D02*
D03*
X-50214Y60250D02*
D03*
X-58786D02*
D03*
X-162286Y26000D02*
D03*
X-153714D02*
D03*
D61*
X-45250Y10750D02*
D03*
Y2750D02*
D03*
X-57243Y93362D02*
D03*
Y85362D02*
D03*
X-40000Y66000D02*
D03*
Y74000D02*
D03*
D62*
X-180500Y-36250D02*
D03*
X-188500D02*
D03*
X-107000Y-23728D02*
D03*
X-99000D02*
D03*
X-71250Y4000D02*
D03*
X-79250D02*
D03*
X-137250Y43250D02*
D03*
X-129250D02*
D03*
D64*
X-35750Y-22D02*
D03*
Y9021D02*
D03*
X-110750Y91021D02*
D03*
Y81979D02*
D03*
D67*
X-2022Y-5000D02*
D03*
X6022D02*
D03*
X-246978Y13500D02*
D03*
X-255021D02*
D03*
X-236772Y51500D02*
D03*
X-228729D02*
D03*
X-20229Y60250D02*
D03*
X-28272D02*
D03*
X-246271Y5000D02*
D03*
X-238228D02*
D03*
X-19521Y81500D02*
D03*
X-11479D02*
D03*
D68*
X-15250Y41021D02*
D03*
Y32978D02*
D03*
X-2250Y12021D02*
D03*
Y3979D02*
D03*
X-12000Y51729D02*
D03*
Y59771D02*
D03*
D69*
X7006Y-50000D02*
D03*
X-7006D02*
D03*
X24494Y72000D02*
D03*
X38506D02*
D03*
X29006Y93000D02*
D03*
X14994D02*
D03*
X-102006Y-76000D02*
D03*
X-87994D02*
D03*
X3994Y-93000D02*
D03*
X18006D02*
D03*
D70*
X-212750Y73000D02*
D03*
X-226250D02*
D03*
X21750Y-39000D02*
D03*
X8250D02*
D03*
D71*
X-39750Y-80006D02*
D03*
Y-65994D02*
D03*
X-54500Y-91256D02*
D03*
Y-77244D02*
D03*
X3000Y-80506D02*
D03*
Y-66494D02*
D03*
X-13250Y-22006D02*
D03*
Y-7994D02*
D03*
X-20000Y-55006D02*
D03*
Y-40994D02*
D03*
X22750Y-67506D02*
D03*
Y-53494D02*
D03*
X36750Y-87006D02*
D03*
Y-72994D02*
D03*
D74*
X-35229Y-46750D02*
D03*
X-44271D02*
D03*
X-134022Y32250D02*
D03*
X-124979D02*
D03*
X-35728Y-55500D02*
D03*
X-44771D02*
D03*
D75*
X-69071Y28000D02*
D03*
X-61500D02*
D03*
D76*
X-200750Y93750D02*
D03*
Y78250D02*
D03*
D77*
X-92500Y90786D02*
D03*
Y82214D02*
D03*
D79*
X120341Y72500D02*
D03*
Y-72500D02*
D03*
D80*
X-184083Y86695D02*
D03*
X-189250Y-81230D02*
D03*
X42000Y84750D02*
D03*
X-97500Y2250D02*
D03*
X-118750Y19500D02*
D03*
X-146000Y89000D02*
D03*
D84*
X-108388Y42950D02*
D03*
Y50550D02*
D03*
X-43000Y91300D02*
D03*
Y83700D02*
D03*
X-54250Y2700D02*
D03*
Y10300D02*
D03*
X-164500Y-39050D02*
D03*
Y-31450D02*
D03*
X-66250Y82450D02*
D03*
Y90050D02*
D03*
D95*
X-28500Y50000D02*
D03*
X-47500D02*
D03*
X-38000D02*
D03*
X-28500Y24500D02*
D03*
X-38000D02*
D03*
X-47500D02*
D03*
D101*
X-107000Y63250D02*
D03*
Y68250D02*
D03*
X-112000D02*
D03*
X-117000D02*
D03*
X-112000Y63250D02*
D03*
X-117000D02*
D03*
X-180750Y-50250D02*
D03*
Y-54250D02*
D03*
X-176750Y-50250D02*
D03*
Y-54250D02*
D03*
X-132250Y81500D02*
D03*
X-127250D02*
D03*
X-132250Y86500D02*
D03*
X-127250D02*
D03*
X-122250D02*
D03*
Y81500D02*
D03*
X-81500Y87750D02*
D03*
Y83750D02*
D03*
X-77500D02*
D03*
Y87750D02*
D03*
D102*
X-129450Y52250D02*
D03*
X-137050D02*
D03*
X-211800Y62000D02*
D03*
X-204200D02*
D03*
X-260050Y-49250D02*
D03*
X-252450D02*
D03*
X-277550Y-93250D02*
D03*
X-269950D02*
D03*
D103*
X36000Y-24500D02*
D03*
Y-8500D02*
D03*
Y7500D02*
D03*
X52000Y-7000D02*
D03*
Y-23000D02*
D03*
Y-39000D02*
D03*
X53500Y-88750D02*
D03*
Y-72750D02*
D03*
Y-56750D02*
D03*
D113*
X-11957Y68000D02*
D03*
X-18043D02*
D03*
D114*
X6250Y11786D02*
D03*
Y4214D02*
D03*
X-300000Y73286D02*
D03*
Y65714D02*
D03*
X-226250Y94786D02*
D03*
Y87214D02*
D03*
X-212000Y94786D02*
D03*
Y87214D02*
D03*
X-300000Y86714D02*
D03*
Y94286D02*
D03*
D115*
X-165000Y-80762D02*
D03*
Y-66238D02*
D03*
D116*
X-450Y82000D02*
D03*
Y72000D02*
D03*
X12450Y77000D02*
D03*
D117*
X-86680Y-23228D02*
D03*
X-63820D02*
D03*
D118*
X-274252Y-49800D02*
D03*
Y-45800D02*
D03*
Y-41800D02*
D03*
Y-37800D02*
D03*
Y-33800D02*
D03*
Y-29800D02*
D03*
Y-25800D02*
D03*
Y-21800D02*
D03*
Y-17800D02*
D03*
Y-13800D02*
D03*
X-305748Y42200D02*
D03*
X-274252D02*
D03*
X-305748Y38200D02*
D03*
X-274252D02*
D03*
X-305748Y34200D02*
D03*
X-274252D02*
D03*
X-305748Y30200D02*
D03*
X-274252D02*
D03*
X-305748Y26200D02*
D03*
X-274252D02*
D03*
X-305748Y22200D02*
D03*
X-274252D02*
D03*
X-305748Y18200D02*
D03*
X-274252D02*
D03*
X-305748Y14200D02*
D03*
X-274252D02*
D03*
X-305748Y10200D02*
D03*
X-274252D02*
D03*
X-305748Y6200D02*
D03*
X-274252D02*
D03*
X-305748Y2200D02*
D03*
X-274252D02*
D03*
X-305748Y-1800D02*
D03*
X-274252D02*
D03*
X-305748Y-5800D02*
D03*
X-274252D02*
D03*
X-305748Y-9800D02*
D03*
X-274252D02*
D03*
X-305748Y-13800D02*
D03*
Y-17800D02*
D03*
Y-21800D02*
D03*
Y-25800D02*
D03*
Y-29800D02*
D03*
Y-33800D02*
D03*
Y-37800D02*
D03*
Y-41800D02*
D03*
Y-45800D02*
D03*
Y-49800D02*
D03*
Y-53800D02*
D03*
X-274252D02*
D03*
D119*
X-143000Y-70000D02*
D03*
X-121000D02*
D03*
X-143000Y-28000D02*
D03*
X-121000D02*
D03*
D120*
X-59250Y36124D02*
D03*
Y46375D02*
D03*
D121*
X-28750Y74250D02*
D03*
Y67750D02*
D03*
D123*
X-11500Y12000D02*
D03*
X-22500D02*
D03*
X-153000Y34500D02*
D03*
X-164000D02*
D03*
D124*
X-75531Y43969D02*
D03*
Y71031D02*
D03*
X-85531Y43969D02*
D03*
X-90531D02*
D03*
X-80531D02*
D03*
Y71031D02*
D03*
X-90531D02*
D03*
X-85531D02*
D03*
D125*
X-69500Y65000D02*
D03*
D126*
Y60000D02*
D03*
Y55000D02*
D03*
Y50000D02*
D03*
X-96561D02*
D03*
Y65000D02*
D03*
Y55000D02*
D03*
Y60000D02*
D03*
D127*
X-83031Y57500D02*
D03*
D128*
X-161250Y71655D02*
D03*
X-151750D02*
D03*
X-161250Y48345D02*
D03*
X-151750D02*
D03*
X-170750D02*
D03*
D129*
Y71655D02*
D03*
D135*
X-192500Y250D02*
D03*
Y-10250D02*
D03*
X-182500D02*
D03*
Y250D02*
D03*
D137*
X-284750Y73500D02*
D03*
Y87000D02*
D03*
D142*
X-82000Y26043D02*
D03*
Y19957D02*
D03*
D143*
X-71876Y19500D02*
D03*
X-61624D02*
D03*
D144*
X-10250Y-70500D02*
D03*
X-24750D02*
D03*
D145*
X36500Y-54750D02*
D03*
Y-40250D02*
D03*
D146*
X4073Y26514D02*
D03*
Y56486D02*
D03*
D147*
X-86250Y-50479D02*
D03*
D148*
X-72000Y-40479D02*
D03*
Y-45479D02*
D03*
Y-50479D02*
D03*
Y-55479D02*
D03*
Y-60479D02*
D03*
X-100500Y-40479D02*
D03*
Y-45479D02*
D03*
Y-50479D02*
D03*
Y-55479D02*
D03*
Y-60479D02*
D03*
D149*
X-65746Y-73353D02*
D03*
X-65750Y-83620D02*
D03*
X-74500Y-73130D02*
D03*
Y-83370D02*
D03*
X-40262Y-28381D02*
D03*
Y-38621D02*
D03*
D150*
X-251250Y-87700D02*
D03*
X-247250D02*
D03*
X-243250D02*
D03*
Y-62800D02*
D03*
X-247250D02*
D03*
X-251250D02*
D03*
X-255250D02*
D03*
Y-87700D02*
D03*
Y-31200D02*
D03*
X-251250D02*
D03*
X-247250D02*
D03*
X-243250D02*
D03*
Y-6300D02*
D03*
X-247250D02*
D03*
X-251250D02*
D03*
X-255250D02*
D03*
D151*
X-240800Y-81250D02*
D03*
Y-77250D02*
D03*
Y-73250D02*
D03*
Y-69250D02*
D03*
X-257700D02*
D03*
Y-73250D02*
D03*
Y-77250D02*
D03*
X-240800Y-24750D02*
D03*
Y-20750D02*
D03*
Y-16750D02*
D03*
Y-12750D02*
D03*
X-257700D02*
D03*
Y-16750D02*
D03*
Y-20750D02*
D03*
D152*
X-257200Y-81250D02*
D03*
Y-24750D02*
D03*
D153*
X-62620Y-41500D02*
D03*
X-52380D02*
D03*
M02*
