G04*
G04 #@! TF.GenerationSoftware,Altium Limited,Altium Designer,23.3.1 (30)*
G04*
G04 Layer_Physical_Order=2*
G04 Layer_Color=14067636*
%FSLAX44Y44*%
%MOMM*%
G71*
G04*
G04 #@! TF.SameCoordinates,9951316E-5AA8-40CD-BDAD-E2DC54E6BB6D*
G04*
G04*
G04 #@! TF.FilePolarity,Positive*
G04*
G01*
G75*
%ADD111C,0.4500*%
G36*
X68894Y74000D02*
X68894Y73043D01*
X68972Y72650D01*
X68998Y72251D01*
X69493Y70401D01*
X69670Y70042D01*
X69799Y69663D01*
X70757Y68004D01*
X71020Y67704D01*
X71243Y67371D01*
X72597Y66017D01*
X72930Y65794D01*
X73230Y65531D01*
X74889Y64573D01*
X75268Y64444D01*
X75627Y64267D01*
X77477Y63771D01*
X77876Y63745D01*
X78268Y63667D01*
X80184Y63667D01*
X80576Y63745D01*
X80975Y63771D01*
X82825Y64267D01*
X83184Y64444D01*
X83563Y64573D01*
X85222Y65530D01*
X85523Y65794D01*
X85855Y66017D01*
X87210Y67371D01*
X87432Y67703D01*
X87696Y68004D01*
X88653Y69663D01*
X88782Y70042D01*
X88959Y70401D01*
X89455Y72251D01*
X89481Y72650D01*
X89559Y73042D01*
X89559Y74000D01*
X89559Y74000D01*
X89559Y74000D01*
Y91894D01*
X128941Y91894D01*
Y-91441D01*
X89559Y-91441D01*
Y-73997D01*
X89559Y-73281D01*
X89500Y-72986D01*
X89500Y-72685D01*
X89221Y-71280D01*
X89106Y-71002D01*
X89047Y-70707D01*
X88500Y-69384D01*
X88333Y-69134D01*
X88217Y-68856D01*
X87423Y-67665D01*
X87210Y-67452D01*
X87043Y-67201D01*
X86031Y-66189D01*
X85781Y-66021D01*
X85568Y-65808D01*
X84378Y-65012D01*
X84100Y-64896D01*
X83850Y-64729D01*
X82528Y-64180D01*
X82233Y-64121D01*
X81955Y-64005D01*
X80551Y-63724D01*
X80250Y-63724D01*
X79955Y-63665D01*
X79244Y-63664D01*
X79244Y-63664D01*
X79235Y-63664D01*
X79234Y-63664D01*
X79227D01*
X79226Y-63664D01*
X78510D01*
X78214Y-63723D01*
X77913D01*
X76508Y-64002D01*
X76229Y-64118D01*
X75934Y-64177D01*
X74610Y-64725D01*
X74360Y-64892D01*
X74081Y-65008D01*
X72890Y-65804D01*
X72677Y-66017D01*
X72427Y-66184D01*
X71413Y-67197D01*
X71246Y-67448D01*
X71033Y-67661D01*
X70237Y-68852D01*
X70122Y-69130D01*
X69954Y-69381D01*
X69406Y-70705D01*
X69347Y-71000D01*
X69232Y-71278D01*
X68952Y-72684D01*
Y-72985D01*
X68894Y-73280D01*
X68894Y-101941D01*
X-313941D01*
Y101941D01*
X68894D01*
X68894Y74000D01*
D02*
G37*
%LPC*%
G36*
X-181653Y97250D02*
X-182847D01*
X-183949Y96793D01*
X-184793Y95949D01*
X-185250Y94847D01*
Y93653D01*
X-184793Y92551D01*
X-183949Y91707D01*
X-182847Y91250D01*
X-181653D01*
X-180551Y91707D01*
X-180270Y91987D01*
X-179236Y92355D01*
X-178300Y91966D01*
X-177989Y91654D01*
X-176886Y91198D01*
X-175693D01*
X-174590Y91654D01*
X-173746Y92498D01*
X-173289Y93601D01*
Y94794D01*
X-173746Y95897D01*
X-174590Y96741D01*
X-175693Y97198D01*
X-176886D01*
X-177989Y96741D01*
X-178269Y96461D01*
X-179303Y96093D01*
X-180239Y96482D01*
X-180551Y96793D01*
X-181653Y97250D01*
D02*
G37*
G36*
X-99653Y93500D02*
X-100847D01*
X-101949Y93043D01*
X-102793Y92199D01*
X-103250Y91097D01*
Y89903D01*
X-102793Y88801D01*
X-101949Y87957D01*
X-100847Y87500D01*
X-99653D01*
X-98551Y87957D01*
X-97707Y88801D01*
X-97250Y89903D01*
Y91097D01*
X-97707Y92199D01*
X-98551Y93043D01*
X-99653Y93500D01*
D02*
G37*
G36*
X-75337Y93411D02*
X-76530D01*
X-77633Y92955D01*
X-78477Y92111D01*
X-78934Y91008D01*
Y89815D01*
X-78477Y88712D01*
X-77633Y87868D01*
X-76530Y87411D01*
X-75337D01*
X-74234Y87868D01*
X-73390Y88712D01*
X-72934Y89815D01*
Y91008D01*
X-73390Y92111D01*
X-74234Y92955D01*
X-75337Y93411D01*
D02*
G37*
G36*
X-22573Y91210D02*
X-23766D01*
X-24869Y90753D01*
X-25713Y89910D01*
X-26170Y88807D01*
Y87613D01*
X-25713Y86511D01*
X-24869Y85667D01*
X-23766Y85210D01*
X-22573D01*
X-21470Y85667D01*
X-20626Y86511D01*
X-20170Y87613D01*
Y88807D01*
X-20626Y89910D01*
X-21470Y90753D01*
X-22573Y91210D01*
D02*
G37*
G36*
X-1754Y91500D02*
X-3246D01*
X-4624Y90929D01*
X-5679Y89874D01*
X-6250Y88496D01*
Y87004D01*
X-5679Y85626D01*
X-4624Y84571D01*
X-3246Y84000D01*
X-1754D01*
X-376Y84571D01*
X679Y85626D01*
X1250Y87004D01*
Y88496D01*
X679Y89874D01*
X-376Y90929D01*
X-1754Y91500D01*
D02*
G37*
G36*
X51097Y87500D02*
X49903D01*
X48801Y87043D01*
X47957Y86199D01*
X47500Y85097D01*
Y83903D01*
X47957Y82801D01*
X48801Y81957D01*
X49903Y81500D01*
X51097D01*
X52199Y81957D01*
X53043Y82801D01*
X53500Y83903D01*
Y85097D01*
X53043Y86199D01*
X52199Y87043D01*
X51097Y87500D01*
D02*
G37*
G36*
X-292403Y93250D02*
X-293597D01*
X-294699Y92793D01*
X-295543Y91949D01*
X-296000Y90847D01*
Y89653D01*
X-295543Y88551D01*
X-295363Y88371D01*
X-294865Y87375D01*
X-295363Y86379D01*
X-295543Y86199D01*
X-296000Y85097D01*
Y83903D01*
X-295543Y82801D01*
X-294699Y81957D01*
X-293597Y81500D01*
X-292403D01*
X-291301Y81957D01*
X-290457Y82801D01*
X-290000Y83903D01*
Y85097D01*
X-290457Y86199D01*
X-290637Y86379D01*
X-291135Y87375D01*
X-290637Y88371D01*
X-290457Y88551D01*
X-290000Y89653D01*
Y90847D01*
X-290457Y91949D01*
X-291301Y92793D01*
X-292403Y93250D01*
D02*
G37*
G36*
X29996Y87500D02*
X28504D01*
X27126Y86929D01*
X26071Y85874D01*
X25500Y84496D01*
Y83004D01*
X26071Y81626D01*
X27126Y80571D01*
X28504Y80000D01*
X29996D01*
X31374Y80571D01*
X32429Y81626D01*
X33000Y83004D01*
Y84496D01*
X32429Y85874D01*
X31374Y86929D01*
X29996Y87500D01*
D02*
G37*
G36*
X-60754Y86000D02*
X-62246D01*
X-63624Y85429D01*
X-64679Y84374D01*
X-65250Y82996D01*
Y81504D01*
X-64679Y80126D01*
X-63624Y79071D01*
X-62246Y78500D01*
X-60754D01*
X-59376Y79071D01*
X-58321Y80126D01*
X-57750Y81504D01*
Y82996D01*
X-58321Y84374D01*
X-59376Y85429D01*
X-60754Y86000D01*
D02*
G37*
G36*
X-225903Y84000D02*
X-227097D01*
X-228199Y83543D01*
X-229043Y82699D01*
X-229500Y81597D01*
Y80403D01*
X-229043Y79301D01*
X-228199Y78457D01*
X-227097Y78000D01*
X-225903D01*
X-224801Y78457D01*
X-223957Y79301D01*
X-223500Y80403D01*
Y81597D01*
X-223957Y82699D01*
X-224801Y83543D01*
X-225903Y84000D01*
D02*
G37*
G36*
X5498Y80402D02*
X4006D01*
X2627Y79831D01*
X1573Y78776D01*
X1002Y77398D01*
Y75906D01*
X1573Y74528D01*
X2627Y73473D01*
X4006Y72902D01*
X5498D01*
X6876Y73473D01*
X7931Y74528D01*
X8502Y75906D01*
Y77398D01*
X7931Y78776D01*
X6876Y79831D01*
X5498Y80402D01*
D02*
G37*
G36*
X-134435Y80500D02*
X-135628D01*
X-136731Y80043D01*
X-137575Y79199D01*
X-138032Y78097D01*
Y76903D01*
X-137575Y75801D01*
X-136731Y74957D01*
X-135628Y74500D01*
X-134435D01*
X-133332Y74957D01*
X-132556Y75733D01*
X-132488Y75801D01*
X-132442Y75839D01*
X-132432Y75847D01*
X-130681Y75319D01*
X-130666Y75270D01*
X-130613Y75142D01*
X-130209Y74168D01*
X-129365Y73324D01*
X-128263Y72867D01*
X-127069D01*
X-125967Y73324D01*
X-125123Y74168D01*
X-125018Y74419D01*
X-123916Y74400D01*
X-123437Y74254D01*
X-123038Y73290D01*
X-122194Y72446D01*
X-121091Y71989D01*
X-119898D01*
X-118795Y72446D01*
X-117951Y73290D01*
X-117494Y74393D01*
Y75586D01*
X-117951Y76689D01*
X-118795Y77533D01*
X-119898Y77989D01*
X-121091D01*
X-122194Y77533D01*
X-123038Y76689D01*
X-123142Y76437D01*
X-124244Y76456D01*
X-124723Y76602D01*
X-125123Y77566D01*
X-125967Y78410D01*
X-127069Y78867D01*
X-128263D01*
X-129365Y78410D01*
X-130142Y77634D01*
X-130209Y77566D01*
X-130256Y77528D01*
X-130266Y77521D01*
X-132017Y78048D01*
X-132031Y78097D01*
X-132085Y78225D01*
X-132488Y79199D01*
X-133332Y80043D01*
X-134435Y80500D01*
D02*
G37*
G36*
X-67467Y76881D02*
X-68661D01*
X-69763Y76424D01*
X-70607Y75580D01*
X-71064Y74478D01*
Y73284D01*
X-70607Y72182D01*
X-69763Y71338D01*
X-68661Y70881D01*
X-67467D01*
X-66364Y71338D01*
X-65521Y72182D01*
X-65064Y73284D01*
Y74478D01*
X-65521Y75580D01*
X-66364Y76424D01*
X-67467Y76881D01*
D02*
G37*
G36*
X-95653Y76500D02*
X-96847D01*
X-97949Y76043D01*
X-98793Y75199D01*
X-99250Y74097D01*
Y72903D01*
X-98793Y71801D01*
X-97949Y70957D01*
X-96847Y70500D01*
X-95653D01*
X-94551Y70957D01*
X-93707Y71801D01*
X-93250Y72903D01*
Y74097D01*
X-93707Y75199D01*
X-94551Y76043D01*
X-95653Y76500D01*
D02*
G37*
G36*
X-25257Y82641D02*
X-26451D01*
X-27554Y82185D01*
X-28398Y81341D01*
X-28854Y80238D01*
Y79045D01*
X-28398Y77942D01*
X-27554Y77098D01*
X-26451Y76642D01*
X-25257D01*
X-24554Y76933D01*
X-23393Y76014D01*
X-23325Y75918D01*
X-23500Y75496D01*
Y74004D01*
X-22929Y72626D01*
X-21874Y71571D01*
X-20496Y71000D01*
X-19004D01*
X-17626Y71571D01*
X-16796Y72401D01*
X-15678Y72396D01*
X-15080Y72242D01*
X-14929Y71876D01*
X-13874Y70821D01*
X-12496Y70250D01*
X-11004D01*
X-9626Y70821D01*
X-8571Y71876D01*
X-8000Y73254D01*
Y74746D01*
X-8571Y76124D01*
X-9626Y77179D01*
X-11004Y77750D01*
X-12496D01*
X-13874Y77179D01*
X-14704Y76349D01*
X-15822Y76354D01*
X-16419Y76508D01*
X-16571Y76874D01*
X-17626Y77929D01*
X-19004Y78500D01*
X-20496D01*
X-21624Y78033D01*
X-22399Y78528D01*
X-22854Y79047D01*
Y80238D01*
X-23311Y81341D01*
X-24155Y82185D01*
X-25257Y82641D01*
D02*
G37*
G36*
X51097Y75750D02*
X49903D01*
X48801Y75293D01*
X47957Y74449D01*
X47500Y73347D01*
Y72153D01*
X47957Y71051D01*
X48801Y70207D01*
X49903Y69750D01*
X51097D01*
X52199Y70207D01*
X53043Y71051D01*
X53500Y72153D01*
Y73347D01*
X53043Y74449D01*
X52199Y75293D01*
X51097Y75750D01*
D02*
G37*
G36*
X-199403Y81250D02*
X-200597D01*
X-201699Y80793D01*
X-202543Y79949D01*
X-203000Y78847D01*
Y77653D01*
X-202543Y76551D01*
X-201699Y75707D01*
X-201683Y75700D01*
Y74050D01*
X-201699Y74043D01*
X-202543Y73199D01*
X-203000Y72097D01*
Y70903D01*
X-202543Y69801D01*
X-201699Y68957D01*
X-200597Y68500D01*
X-199403D01*
X-198301Y68957D01*
X-197457Y69801D01*
X-197000Y70903D01*
Y72097D01*
X-197457Y73199D01*
X-198301Y74043D01*
X-198317Y74050D01*
Y75700D01*
X-198301Y75707D01*
X-197457Y76551D01*
X-197000Y77653D01*
Y78847D01*
X-197457Y79949D01*
X-198301Y80793D01*
X-199403Y81250D01*
D02*
G37*
G36*
X14281Y75000D02*
X12789D01*
X11410Y74429D01*
X10356Y73374D01*
X9785Y71996D01*
Y70504D01*
X10356Y69126D01*
X11410Y68071D01*
X12789Y67500D01*
X14281D01*
X15659Y68071D01*
X16714Y69126D01*
X17285Y70504D01*
Y71996D01*
X16714Y73374D01*
X15659Y74429D01*
X14281Y75000D01*
D02*
G37*
G36*
X-292403Y77750D02*
X-293597D01*
X-294699Y77293D01*
X-295543Y76449D01*
X-296000Y75347D01*
Y74153D01*
X-295543Y73051D01*
X-295363Y72871D01*
X-294865Y71875D01*
X-295363Y70879D01*
X-295543Y70699D01*
X-296000Y69597D01*
Y68403D01*
X-295543Y67301D01*
X-294699Y66457D01*
X-293597Y66000D01*
X-292403D01*
X-291301Y66457D01*
X-290457Y67301D01*
X-290000Y68403D01*
Y69597D01*
X-290457Y70699D01*
X-290637Y70879D01*
X-291135Y71875D01*
X-290637Y72871D01*
X-290457Y73051D01*
X-290000Y74153D01*
Y75347D01*
X-290457Y76449D01*
X-291301Y77293D01*
X-292403Y77750D01*
D02*
G37*
G36*
X-225916Y68750D02*
X-227109D01*
X-228212Y68293D01*
X-229056Y67449D01*
X-229512Y66347D01*
Y65153D01*
X-229056Y64051D01*
X-228212Y63207D01*
X-227109Y62750D01*
X-225916D01*
X-224813Y63207D01*
X-223969Y64051D01*
X-223512Y65153D01*
Y66347D01*
X-223969Y67449D01*
X-224813Y68293D01*
X-225916Y68750D01*
D02*
G37*
G36*
X92496Y64000D02*
X91004D01*
X89626Y63429D01*
X88571Y62374D01*
X88000Y60996D01*
Y59504D01*
X88571Y58126D01*
X89626Y57071D01*
X91004Y56500D01*
X92496D01*
X93874Y57071D01*
X94929Y58126D01*
X95500Y59504D01*
Y60996D01*
X94929Y62374D01*
X93874Y63429D01*
X92496Y64000D01*
D02*
G37*
G36*
X-118176Y60820D02*
X-119369D01*
X-120472Y60363D01*
X-121316Y59519D01*
X-121773Y58417D01*
Y57223D01*
X-121316Y56120D01*
X-120472Y55276D01*
X-119369Y54820D01*
X-118176D01*
X-117073Y55276D01*
X-116229Y56120D01*
X-115773Y57223D01*
Y58417D01*
X-116229Y59519D01*
X-117073Y60363D01*
X-118176Y60820D01*
D02*
G37*
G36*
X-108153Y60500D02*
X-109347D01*
X-110449Y60043D01*
X-111293Y59199D01*
X-111750Y58097D01*
Y56903D01*
X-111293Y55801D01*
X-110449Y54957D01*
X-109347Y54500D01*
X-108153D01*
X-107051Y54957D01*
X-106207Y55801D01*
X-105750Y56903D01*
Y58097D01*
X-106207Y59199D01*
X-107051Y60043D01*
X-108153Y60500D01*
D02*
G37*
G36*
X-236175Y60000D02*
X-237368D01*
X-238471Y59543D01*
X-239315Y58699D01*
X-239771Y57597D01*
Y56403D01*
X-239315Y55301D01*
X-238471Y54457D01*
X-237368Y54000D01*
X-236175D01*
X-235072Y54457D01*
X-234228Y55301D01*
X-233771Y56403D01*
Y57597D01*
X-234228Y58699D01*
X-235072Y59543D01*
X-236175Y60000D01*
D02*
G37*
G36*
X37496Y61000D02*
X36004D01*
X34626Y60429D01*
X33571Y59374D01*
X33000Y57996D01*
Y56504D01*
X33571Y55126D01*
X34626Y54071D01*
X36004Y53500D01*
X37496D01*
X38874Y54071D01*
X39929Y55126D01*
X40500Y56504D01*
Y57996D01*
X39929Y59374D01*
X38874Y60429D01*
X37496Y61000D01*
D02*
G37*
G36*
X-53903Y56250D02*
X-55097D01*
X-56199Y55793D01*
X-57043Y54949D01*
X-57500Y53847D01*
Y52653D01*
X-57043Y51551D01*
X-56199Y50707D01*
X-55097Y50250D01*
X-53903D01*
X-52801Y50707D01*
X-51957Y51551D01*
X-51500Y52653D01*
Y53847D01*
X-51957Y54949D01*
X-52801Y55793D01*
X-53903Y56250D01*
D02*
G37*
G36*
X76680Y50434D02*
X75189D01*
X73810Y49864D01*
X72755Y48809D01*
X72185Y47430D01*
Y45939D01*
X72755Y44560D01*
X73810Y43506D01*
X75189Y42934D01*
X76680D01*
X78059Y43506D01*
X79114Y44560D01*
X79685Y45939D01*
Y47430D01*
X79114Y48809D01*
X78059Y49864D01*
X76680Y50434D01*
D02*
G37*
G36*
X-273330Y51421D02*
X-274523D01*
X-275626Y50964D01*
X-276470Y50120D01*
X-276927Y49017D01*
Y47824D01*
X-276470Y46721D01*
X-275626Y45877D01*
X-274523Y45421D01*
X-273330D01*
X-272227Y45877D01*
X-271845Y46260D01*
X-270678Y46449D01*
X-269961Y46173D01*
X-269455Y45667D01*
X-268353Y45210D01*
X-267159D01*
X-266057Y45667D01*
X-265368Y46355D01*
X-264447Y46379D01*
X-263673Y46245D01*
X-263554Y45957D01*
X-262710Y45113D01*
X-261608Y44657D01*
X-260414D01*
X-259312Y45113D01*
X-258675Y45750D01*
X-257595Y45693D01*
X-257002Y45513D01*
X-256810Y45051D01*
X-255966Y44207D01*
X-254864Y43750D01*
X-253670D01*
X-252568Y44207D01*
X-252526Y44249D01*
X-250805Y44078D01*
X-250673Y43946D01*
X-249961Y43234D01*
X-248859Y42778D01*
X-247665D01*
X-246563Y43234D01*
X-245949Y43847D01*
X-244818Y43840D01*
X-244232Y43684D01*
X-244210Y43631D01*
X-243366Y42787D01*
X-242264Y42330D01*
X-241070D01*
X-239967Y42787D01*
X-239123Y43631D01*
X-238667Y44733D01*
Y45927D01*
X-239123Y47029D01*
X-239967Y47873D01*
X-241070Y48330D01*
X-242264D01*
X-243366Y47873D01*
X-243979Y47260D01*
X-245111Y47268D01*
X-245697Y47423D01*
X-245719Y47477D01*
X-246563Y48321D01*
X-247665Y48777D01*
X-248859D01*
X-249961Y48321D01*
X-250003Y48279D01*
X-251724Y48449D01*
X-251856Y48582D01*
X-252568Y49293D01*
X-253670Y49750D01*
X-254864D01*
X-255966Y49293D01*
X-256603Y48657D01*
X-257683Y48714D01*
X-258276Y48893D01*
X-258468Y49356D01*
X-259312Y50200D01*
X-260414Y50657D01*
X-261608D01*
X-262710Y50200D01*
X-263398Y49512D01*
X-264320Y49488D01*
X-265094Y49622D01*
X-265213Y49910D01*
X-266057Y50753D01*
X-267159Y51210D01*
X-268353D01*
X-269455Y50753D01*
X-269838Y50371D01*
X-271004Y50182D01*
X-271722Y50458D01*
X-272227Y50964D01*
X-273330Y51421D01*
D02*
G37*
G36*
X-197284Y48000D02*
X-198478D01*
X-199580Y47543D01*
X-200424Y46699D01*
X-200881Y45597D01*
Y44403D01*
X-200424Y43301D01*
X-199580Y42457D01*
X-198478Y42000D01*
X-197284D01*
X-196182Y42457D01*
X-195338Y43301D01*
X-194881Y44403D01*
Y45597D01*
X-195338Y46699D01*
X-196182Y47543D01*
X-197284Y48000D01*
D02*
G37*
G36*
X-43236Y47210D02*
X-44429D01*
X-45532Y46754D01*
X-46376Y45910D01*
X-46833Y44807D01*
Y43614D01*
X-46376Y42511D01*
X-45532Y41667D01*
X-44429Y41210D01*
X-43236D01*
X-42133Y41667D01*
X-41290Y42511D01*
X-40833Y43614D01*
Y44807D01*
X-41290Y45910D01*
X-42133Y46754D01*
X-43236Y47210D01*
D02*
G37*
G36*
X-70408Y42141D02*
X-71601D01*
X-72704Y41684D01*
X-73548Y40840D01*
X-73906Y39975D01*
X-74035Y39724D01*
X-75528Y39051D01*
X-75685Y39116D01*
X-76878D01*
X-77981Y38659D01*
X-78825Y37815D01*
X-79245Y36800D01*
X-79570Y36688D01*
X-80805Y36584D01*
X-80957Y36949D01*
X-81801Y37793D01*
X-82903Y38250D01*
X-84097D01*
X-85199Y37793D01*
X-86043Y36949D01*
X-86500Y35847D01*
Y34653D01*
X-86043Y33551D01*
X-85199Y32707D01*
X-84097Y32250D01*
X-82903D01*
X-81801Y32707D01*
X-80957Y33551D01*
X-80536Y34566D01*
X-80211Y34678D01*
X-78976Y34782D01*
X-78825Y34417D01*
X-77981Y33573D01*
X-76878Y33116D01*
X-75685D01*
X-74582Y33573D01*
X-73738Y34417D01*
X-73380Y35282D01*
X-73251Y35533D01*
X-71757Y36206D01*
X-71601Y36141D01*
X-70408D01*
X-69305Y36598D01*
X-68461Y37442D01*
X-68004Y38544D01*
Y39738D01*
X-68461Y40840D01*
X-69305Y41684D01*
X-70408Y42141D01*
D02*
G37*
G36*
X-100153Y44250D02*
X-101347D01*
X-102449Y43793D01*
X-103293Y42949D01*
X-103750Y41847D01*
Y40653D01*
X-103293Y39551D01*
X-102449Y38707D01*
X-101347Y38250D01*
X-100153D01*
X-99051Y38707D01*
X-98207Y39551D01*
X-97750Y40653D01*
Y41847D01*
X-98207Y42949D01*
X-99051Y43793D01*
X-100153Y44250D01*
D02*
G37*
G36*
X-142784Y42512D02*
X-143977D01*
X-145080Y42055D01*
X-145924Y41211D01*
X-146381Y40109D01*
Y38915D01*
X-145924Y37813D01*
X-145080Y36969D01*
X-143977Y36512D01*
X-142784D01*
X-141681Y36969D01*
X-140837Y37813D01*
X-140381Y38915D01*
Y40109D01*
X-140837Y41211D01*
X-141681Y42055D01*
X-142784Y42512D01*
D02*
G37*
G36*
X92746Y39750D02*
X91254D01*
X89876Y39179D01*
X88821Y38124D01*
X88250Y36746D01*
Y35254D01*
X88821Y33876D01*
X89876Y32821D01*
X91254Y32250D01*
X92746D01*
X94124Y32821D01*
X95179Y33876D01*
X95750Y35254D01*
Y36746D01*
X95179Y38124D01*
X94124Y39179D01*
X92746Y39750D01*
D02*
G37*
G36*
X-296153Y47500D02*
X-297347D01*
X-298449Y47043D01*
X-299293Y46199D01*
X-299750Y45097D01*
Y43903D01*
X-299293Y42801D01*
X-298449Y41957D01*
X-297957Y41753D01*
X-297528Y40166D01*
X-297543Y40057D01*
X-297801Y39799D01*
X-298258Y38697D01*
Y37503D01*
X-297801Y36401D01*
X-296957Y35557D01*
X-295854Y35100D01*
X-294661D01*
X-294658Y35101D01*
X-294494Y35053D01*
X-293250Y34035D01*
Y33489D01*
X-292793Y32387D01*
X-291949Y31543D01*
X-290847Y31086D01*
X-289653D01*
X-288551Y31543D01*
X-287707Y32387D01*
X-287250Y33489D01*
Y34683D01*
X-287707Y35785D01*
X-288551Y36629D01*
X-289653Y37086D01*
X-290847D01*
X-290850Y37085D01*
X-291014Y37133D01*
X-292258Y38151D01*
Y38697D01*
X-292715Y39799D01*
X-293558Y40643D01*
X-294050Y40847D01*
X-294479Y42434D01*
X-294465Y42543D01*
X-294207Y42801D01*
X-293750Y43903D01*
Y45097D01*
X-294207Y46199D01*
X-295051Y47043D01*
X-296153Y47500D01*
D02*
G37*
G36*
X-190953Y34450D02*
X-192147D01*
X-193249Y33993D01*
X-194093Y33149D01*
X-194550Y32047D01*
Y30935D01*
X-194776Y30732D01*
X-195900Y30130D01*
X-196233Y30463D01*
X-197336Y30920D01*
X-198529D01*
X-199632Y30463D01*
X-200476Y29619D01*
X-200933Y28517D01*
Y27323D01*
X-200476Y26221D01*
X-199632Y25377D01*
X-198529Y24920D01*
X-197336D01*
X-196233Y25377D01*
X-195389Y26221D01*
X-194933Y27323D01*
Y28435D01*
X-194707Y28638D01*
X-193583Y29240D01*
X-193249Y28907D01*
X-192147Y28450D01*
X-190953D01*
X-189851Y28907D01*
X-189007Y29751D01*
X-188550Y30853D01*
Y32047D01*
X-189007Y33149D01*
X-189851Y33993D01*
X-190953Y34450D01*
D02*
G37*
G36*
X-53403Y33500D02*
X-54597D01*
X-55699Y33043D01*
X-56543Y32199D01*
X-57000Y31097D01*
Y29903D01*
X-56543Y28801D01*
X-55699Y27957D01*
X-54597Y27500D01*
X-53403D01*
X-52301Y27957D01*
X-51457Y28801D01*
X-51000Y29903D01*
Y31097D01*
X-51457Y32199D01*
X-52301Y33043D01*
X-53403Y33500D01*
D02*
G37*
G36*
X-109653Y33000D02*
X-110847D01*
X-111949Y32543D01*
X-112793Y31699D01*
X-113250Y30597D01*
Y29403D01*
X-112793Y28301D01*
X-111949Y27457D01*
X-110847Y27000D01*
X-109653D01*
X-108551Y27457D01*
X-107707Y28301D01*
X-107250Y29403D01*
Y30597D01*
X-107707Y31699D01*
X-108551Y32543D01*
X-109653Y33000D01*
D02*
G37*
G36*
X-117903D02*
X-119097D01*
X-120199Y32543D01*
X-121043Y31699D01*
X-121500Y30597D01*
Y29403D01*
X-121043Y28301D01*
X-120199Y27457D01*
X-119097Y27000D01*
X-117903D01*
X-116801Y27457D01*
X-115957Y28301D01*
X-115500Y29403D01*
Y30597D01*
X-115957Y31699D01*
X-116801Y32543D01*
X-117903Y33000D01*
D02*
G37*
G36*
X-220004Y34250D02*
X-221496D01*
X-222874Y33679D01*
X-223929Y32624D01*
X-224500Y31246D01*
Y29754D01*
X-223929Y28376D01*
X-222874Y27321D01*
X-221496Y26750D01*
X-220004D01*
X-218626Y27321D01*
X-217571Y28376D01*
X-217000Y29754D01*
Y31246D01*
X-217571Y32624D01*
X-218626Y33679D01*
X-220004Y34250D01*
D02*
G37*
G36*
X-262153Y29224D02*
X-263347D01*
X-264449Y28767D01*
X-265293Y27923D01*
X-265750Y26821D01*
Y25627D01*
X-265293Y24525D01*
X-264449Y23681D01*
X-263347Y23224D01*
X-262153D01*
X-261051Y23681D01*
X-260207Y24525D01*
X-259750Y25627D01*
Y26821D01*
X-260207Y27923D01*
X-261051Y28767D01*
X-262153Y29224D01*
D02*
G37*
G36*
X92746Y23750D02*
X91254D01*
X89876Y23179D01*
X88821Y22124D01*
X88250Y20746D01*
Y19254D01*
X88821Y17876D01*
X89876Y16821D01*
X91254Y16250D01*
X92746D01*
X94124Y16821D01*
X95179Y17876D01*
X95750Y19254D01*
Y20746D01*
X95179Y22124D01*
X94124Y23179D01*
X92746Y23750D01*
D02*
G37*
G36*
X-261953Y21548D02*
X-263147D01*
X-264249Y21091D01*
X-265093Y20247D01*
X-265550Y19144D01*
Y17951D01*
X-265093Y16848D01*
X-264249Y16004D01*
X-263147Y15547D01*
X-261953D01*
X-260851Y16004D01*
X-260007Y16848D01*
X-259550Y17951D01*
Y19144D01*
X-260007Y20247D01*
X-260851Y21091D01*
X-261953Y21548D01*
D02*
G37*
G36*
X-88030Y26500D02*
X-89223D01*
X-90326Y26043D01*
X-91170Y25199D01*
X-91627Y24097D01*
Y22903D01*
X-91170Y21801D01*
X-90738Y21368D01*
X-90837Y20622D01*
X-91130Y19766D01*
X-92044Y19388D01*
X-92887Y18544D01*
X-93344Y17441D01*
Y16248D01*
X-92887Y15145D01*
X-92044Y14301D01*
X-90941Y13844D01*
X-89747D01*
X-88645Y14301D01*
X-87801Y15145D01*
X-87344Y16248D01*
Y17441D01*
X-87801Y18544D01*
X-88233Y18976D01*
X-88134Y19722D01*
X-87841Y20578D01*
X-86927Y20957D01*
X-86083Y21801D01*
X-85627Y22903D01*
Y24097D01*
X-86083Y25199D01*
X-86927Y26043D01*
X-88030Y26500D01*
D02*
G37*
G36*
X-102403Y19762D02*
X-103597D01*
X-104699Y19305D01*
X-105543Y18461D01*
X-106000Y17359D01*
Y16165D01*
X-105543Y15063D01*
X-104699Y14219D01*
X-103597Y13762D01*
X-102403D01*
X-101301Y14219D01*
X-100457Y15063D01*
X-100000Y16165D01*
Y17359D01*
X-100457Y18461D01*
X-101301Y19305D01*
X-102403Y19762D01*
D02*
G37*
G36*
X-30403Y19000D02*
X-31597D01*
X-32699Y18543D01*
X-33543Y17699D01*
X-34000Y16597D01*
Y15403D01*
X-33543Y14301D01*
X-32699Y13457D01*
X-31597Y13000D01*
X-30403D01*
X-29301Y13457D01*
X-28457Y14301D01*
X-28000Y15403D01*
Y16597D01*
X-28457Y17699D01*
X-29301Y18543D01*
X-30403Y19000D01*
D02*
G37*
G36*
X-287754Y18000D02*
X-289246D01*
X-290624Y17429D01*
X-291679Y16374D01*
X-292250Y14996D01*
Y13504D01*
X-291679Y12126D01*
X-290624Y11071D01*
X-289246Y10500D01*
X-287754D01*
X-286376Y11071D01*
X-285321Y12126D01*
X-284750Y13504D01*
Y14996D01*
X-285321Y16374D01*
X-286376Y17429D01*
X-287754Y18000D01*
D02*
G37*
G36*
X-68153Y16250D02*
X-69347D01*
X-70449Y15793D01*
X-71293Y14949D01*
X-71750Y13847D01*
Y12653D01*
X-71293Y11551D01*
X-70449Y10707D01*
X-69347Y10250D01*
X-68153D01*
X-67051Y10707D01*
X-66207Y11551D01*
X-65750Y12653D01*
Y13847D01*
X-66207Y14949D01*
X-67051Y15793D01*
X-68153Y16250D01*
D02*
G37*
G36*
X92746Y7750D02*
X91254D01*
X89876Y7179D01*
X88821Y6124D01*
X88250Y4746D01*
Y3254D01*
X88821Y1876D01*
X89876Y821D01*
X91254Y250D01*
X92746D01*
X94124Y821D01*
X95179Y1876D01*
X95750Y3254D01*
Y4746D01*
X95179Y6124D01*
X94124Y7179D01*
X92746Y7750D01*
D02*
G37*
G36*
X-81403Y-250D02*
X-82597D01*
X-83699Y-707D01*
X-84543Y-1551D01*
X-84852Y-2296D01*
X-86165Y-2487D01*
X-86439Y-2447D01*
X-86707Y-1801D01*
X-87551Y-957D01*
X-88653Y-500D01*
X-89847D01*
X-90949Y-957D01*
X-91793Y-1801D01*
X-92250Y-2903D01*
Y-4097D01*
X-91793Y-5199D01*
X-90949Y-6043D01*
X-89847Y-6500D01*
X-88653D01*
X-87551Y-6043D01*
X-86707Y-5199D01*
X-86398Y-4454D01*
X-85085Y-4263D01*
X-84811Y-4302D01*
X-84543Y-4949D01*
X-83699Y-5793D01*
X-82597Y-6250D01*
X-81403D01*
X-80301Y-5793D01*
X-79457Y-4949D01*
X-79000Y-3847D01*
Y-2653D01*
X-79457Y-1551D01*
X-80301Y-707D01*
X-81403Y-250D01*
D02*
G37*
G36*
X-263514Y11246D02*
X-265006D01*
X-266384Y10675D01*
X-267439Y9620D01*
X-268010Y8242D01*
Y6750D01*
X-267439Y5372D01*
X-266384Y4317D01*
X-266579Y3199D01*
X-267036Y2097D01*
Y903D01*
X-266579Y-199D01*
X-265735Y-1043D01*
X-265721Y-1049D01*
X-265376Y-2842D01*
X-265729Y-3195D01*
X-266300Y-4573D01*
Y-6065D01*
X-265729Y-7443D01*
X-264674Y-8498D01*
X-263296Y-9069D01*
X-261804D01*
X-260426Y-8498D01*
X-259371Y-7443D01*
X-258800Y-6065D01*
Y-4573D01*
X-259371Y-3195D01*
X-260426Y-2140D01*
X-261028Y-1890D01*
X-261489Y-213D01*
X-261477Y-161D01*
X-261036Y903D01*
Y2097D01*
X-261493Y3199D01*
X-262115Y4281D01*
X-261378Y5075D01*
X-261081Y5372D01*
X-260510Y6750D01*
Y8242D01*
X-261081Y9620D01*
X-262136Y10675D01*
X-263514Y11246D01*
D02*
G37*
G36*
X-54403Y-3500D02*
X-55597D01*
X-56699Y-3957D01*
X-57543Y-4801D01*
X-58000Y-5903D01*
Y-7097D01*
X-57543Y-8199D01*
X-56699Y-9043D01*
X-55597Y-9500D01*
X-54403D01*
X-53301Y-9043D01*
X-52457Y-8199D01*
X-52000Y-7097D01*
Y-5903D01*
X-52457Y-4801D01*
X-53301Y-3957D01*
X-54403Y-3500D01*
D02*
G37*
G36*
X-27125Y911D02*
X-28319D01*
X-29421Y454D01*
X-30265Y-389D01*
X-30722Y-1492D01*
Y-2686D01*
X-30265Y-3788D01*
X-30449Y-5457D01*
X-31293Y-6301D01*
X-31750Y-7403D01*
Y-8597D01*
X-31293Y-9699D01*
X-30449Y-10543D01*
X-29347Y-11000D01*
X-28153D01*
X-27051Y-10543D01*
X-26207Y-9699D01*
X-25750Y-8597D01*
Y-7403D01*
X-26207Y-6301D01*
X-26023Y-4632D01*
X-25179Y-3788D01*
X-24722Y-2686D01*
Y-1492D01*
X-25179Y-389D01*
X-26023Y454D01*
X-27125Y911D01*
D02*
G37*
G36*
X5326Y-9589D02*
X4132D01*
X3030Y-10046D01*
X2186Y-10890D01*
X2027Y-11273D01*
X377D01*
X329Y-11156D01*
X-515Y-10312D01*
X-1618Y-9855D01*
X-2811D01*
X-3914Y-10312D01*
X-4757Y-11156D01*
X-5214Y-12258D01*
Y-13452D01*
X-4757Y-14555D01*
X-3914Y-15398D01*
X-2811Y-15855D01*
X-1618D01*
X-515Y-15398D01*
X329Y-14555D01*
X488Y-14172D01*
X2137D01*
X2186Y-14289D01*
X3030Y-15133D01*
X4132Y-15589D01*
X5326D01*
X6428Y-15133D01*
X7272Y-14289D01*
X7729Y-13186D01*
Y-11993D01*
X7272Y-10890D01*
X6428Y-10046D01*
X5326Y-9589D01*
D02*
G37*
G36*
X-296188Y9969D02*
X-297680D01*
X-299058Y9398D01*
X-300113Y8343D01*
X-300684Y6965D01*
Y5473D01*
X-300113Y4095D01*
X-299058Y3040D01*
X-297680Y2469D01*
X-296188D01*
X-296153Y2483D01*
X-296077Y2492D01*
X-294269Y1614D01*
X-294238Y1540D01*
X-294429Y-128D01*
X-295273Y-972D01*
X-295361Y-1185D01*
X-297066Y-2128D01*
X-298558D01*
X-299937Y-2699D01*
X-300991Y-3754D01*
X-301562Y-5132D01*
Y-6624D01*
X-300991Y-8002D01*
X-299937Y-9057D01*
X-299853Y-9092D01*
X-299747Y-9623D01*
X-300318Y-11001D01*
Y-12493D01*
X-299747Y-13872D01*
X-298692Y-14926D01*
X-297314Y-15497D01*
X-295822D01*
X-294444Y-14926D01*
X-293389Y-13872D01*
X-292818Y-12493D01*
Y-11001D01*
X-293389Y-9623D01*
X-294444Y-8568D01*
X-294527Y-8534D01*
X-294633Y-8002D01*
X-294062Y-6624D01*
Y-6163D01*
X-293326Y-5671D01*
X-292133D01*
X-291030Y-5214D01*
X-290186Y-4371D01*
X-289729Y-3268D01*
Y-2074D01*
X-290186Y-972D01*
X-289995Y696D01*
X-289151Y1540D01*
X-288695Y2642D01*
Y3836D01*
X-289151Y4938D01*
X-289995Y5782D01*
X-291098Y6239D01*
X-292291D01*
X-293184Y6835D01*
Y6965D01*
X-293755Y8343D01*
X-294810Y9398D01*
X-296188Y9969D01*
D02*
G37*
G36*
X92806Y-8250D02*
X91314D01*
X89936Y-8821D01*
X88881Y-9876D01*
X88310Y-11254D01*
Y-12746D01*
X88881Y-14124D01*
X89936Y-15179D01*
X91314Y-15750D01*
X92806D01*
X94184Y-15179D01*
X95239Y-14124D01*
X95810Y-12746D01*
Y-11254D01*
X95239Y-9876D01*
X94184Y-8821D01*
X92806Y-8250D01*
D02*
G37*
G36*
X60484Y-10692D02*
X58992D01*
X57614Y-11263D01*
X56559Y-12318D01*
X55988Y-13696D01*
Y-15188D01*
X56559Y-16566D01*
X57614Y-17621D01*
X58992Y-18192D01*
X60484D01*
X61862Y-17621D01*
X62917Y-16566D01*
X63488Y-15188D01*
Y-13696D01*
X62917Y-12318D01*
X61862Y-11263D01*
X60484Y-10692D01*
D02*
G37*
G36*
X-55153Y-13750D02*
X-56347D01*
X-57449Y-14207D01*
X-58293Y-15051D01*
X-58750Y-16153D01*
Y-17347D01*
X-58293Y-18449D01*
X-57449Y-19293D01*
X-56347Y-19750D01*
X-55153D01*
X-54051Y-19293D01*
X-53207Y-18449D01*
X-52750Y-17347D01*
Y-16153D01*
X-53207Y-15051D01*
X-54051Y-14207D01*
X-55153Y-13750D01*
D02*
G37*
G36*
X-29903Y-14500D02*
X-31097D01*
X-32199Y-14957D01*
X-33043Y-15801D01*
X-33500Y-16903D01*
Y-18097D01*
X-33043Y-19199D01*
X-32199Y-20043D01*
X-31097Y-20500D01*
X-29903D01*
X-28801Y-20043D01*
X-27957Y-19199D01*
X-27500Y-18097D01*
Y-16903D01*
X-27957Y-15801D01*
X-28801Y-14957D01*
X-29903Y-14500D01*
D02*
G37*
G36*
X-128653Y-18250D02*
X-129847D01*
X-130949Y-18707D01*
X-131793Y-19551D01*
X-132250Y-20653D01*
Y-21847D01*
X-131793Y-22949D01*
X-130949Y-23793D01*
X-129847Y-24250D01*
X-128653D01*
X-127551Y-23793D01*
X-126707Y-22949D01*
X-126250Y-21847D01*
Y-20653D01*
X-126707Y-19551D01*
X-127551Y-18707D01*
X-128653Y-18250D01*
D02*
G37*
G36*
X-74153Y-20750D02*
X-75347D01*
X-76449Y-21207D01*
X-77293Y-22051D01*
X-77750Y-23153D01*
Y-24347D01*
X-77293Y-25449D01*
X-76449Y-26293D01*
X-75347Y-26750D01*
X-74153D01*
X-73051Y-26293D01*
X-72207Y-25449D01*
X-71750Y-24347D01*
Y-23153D01*
X-72207Y-22051D01*
X-73051Y-21207D01*
X-74153Y-20750D01*
D02*
G37*
G36*
X-177903Y-15000D02*
X-179097D01*
X-180199Y-15457D01*
X-181043Y-16301D01*
X-181500Y-17403D01*
Y-18597D01*
X-181043Y-19699D01*
X-180720Y-20023D01*
X-180365Y-21000D01*
X-180720Y-21977D01*
X-181043Y-22301D01*
X-181500Y-23403D01*
Y-24597D01*
X-181043Y-25699D01*
X-180199Y-26543D01*
X-179097Y-27000D01*
X-177903D01*
X-176801Y-26543D01*
X-175957Y-25699D01*
X-175500Y-24597D01*
Y-23403D01*
X-175957Y-22301D01*
X-176280Y-21977D01*
X-176635Y-21000D01*
X-176280Y-20023D01*
X-175957Y-19699D01*
X-175500Y-18597D01*
Y-17403D01*
X-175957Y-16301D01*
X-176801Y-15457D01*
X-177903Y-15000D01*
D02*
G37*
G36*
X-283452Y-9881D02*
X-284646D01*
X-285748Y-10338D01*
X-286592Y-11182D01*
X-287049Y-12284D01*
Y-13478D01*
X-286592Y-14581D01*
X-286375Y-14798D01*
X-286129Y-16107D01*
X-286462Y-16702D01*
X-286931Y-17172D01*
X-287388Y-18275D01*
Y-19468D01*
X-286931Y-20571D01*
X-286087Y-21415D01*
X-286068Y-21423D01*
X-285993Y-21559D01*
X-285826Y-23173D01*
X-286204Y-23551D01*
X-286661Y-24653D01*
Y-25847D01*
X-286204Y-26949D01*
X-285360Y-27793D01*
X-284258Y-28250D01*
X-283064D01*
X-281961Y-27793D01*
X-281117Y-26949D01*
X-280661Y-25847D01*
Y-24653D01*
X-281117Y-23551D01*
X-281961Y-22707D01*
X-281981Y-22699D01*
X-282056Y-22562D01*
X-282223Y-20949D01*
X-281845Y-20571D01*
X-281388Y-19468D01*
Y-18275D01*
X-281845Y-17172D01*
X-282062Y-16955D01*
X-282308Y-15646D01*
X-281975Y-15050D01*
X-281506Y-14581D01*
X-281049Y-13478D01*
Y-12284D01*
X-281506Y-11182D01*
X-282350Y-10338D01*
X-283452Y-9881D01*
D02*
G37*
G36*
X8746Y-22500D02*
X7254D01*
X5876Y-23071D01*
X4821Y-24126D01*
X4250Y-25504D01*
Y-26996D01*
X4821Y-28374D01*
X5876Y-29429D01*
X7254Y-30000D01*
X8746D01*
X10124Y-29429D01*
X11179Y-28374D01*
X11750Y-26996D01*
Y-25504D01*
X11179Y-24126D01*
X10124Y-23071D01*
X8746Y-22500D01*
D02*
G37*
G36*
X-60153Y-26056D02*
X-61347D01*
X-62449Y-26513D01*
X-63293Y-27357D01*
X-63750Y-28460D01*
Y-29653D01*
X-63293Y-30756D01*
X-62449Y-31600D01*
X-61347Y-32057D01*
X-60153D01*
X-59051Y-31600D01*
X-58207Y-30756D01*
X-57750Y-29653D01*
Y-28460D01*
X-58207Y-27357D01*
X-59051Y-26513D01*
X-60153Y-26056D01*
D02*
G37*
G36*
X117246Y-26000D02*
X115754D01*
X114376Y-26571D01*
X113321Y-27626D01*
X112750Y-29004D01*
Y-30496D01*
X113321Y-31874D01*
X112222Y-32821D01*
X110844Y-32250D01*
X109352D01*
X107974Y-32821D01*
X106919Y-33876D01*
X106348Y-35254D01*
Y-36746D01*
X106919Y-38124D01*
X107974Y-39179D01*
X109352Y-39750D01*
X110844D01*
X112222Y-39179D01*
X113277Y-38124D01*
X113848Y-36746D01*
Y-35254D01*
X113277Y-33876D01*
X114376Y-32929D01*
X115754Y-33500D01*
X117246D01*
X118624Y-32929D01*
X119679Y-31874D01*
X120250Y-30496D01*
Y-29004D01*
X119679Y-27626D01*
X118624Y-26571D01*
X117246Y-26000D01*
D02*
G37*
G36*
X-20254Y-27250D02*
X-21746D01*
X-23124Y-27821D01*
X-24179Y-28876D01*
X-24750Y-30254D01*
Y-31746D01*
X-24179Y-33124D01*
X-23124Y-34179D01*
X-21746Y-34750D01*
X-20254D01*
X-18876Y-34179D01*
X-17821Y-33124D01*
X-17250Y-31746D01*
Y-30254D01*
X-17821Y-28876D01*
X-18876Y-27821D01*
X-20254Y-27250D01*
D02*
G37*
G36*
X43746Y-29337D02*
X42254D01*
X40876Y-29908D01*
X39821Y-30963D01*
X39250Y-32341D01*
Y-33833D01*
X39821Y-35211D01*
X40876Y-36266D01*
X42254Y-36837D01*
X43746D01*
X45124Y-36266D01*
X46179Y-35211D01*
X46750Y-33833D01*
Y-32341D01*
X46179Y-30963D01*
X45124Y-29908D01*
X43746Y-29337D01*
D02*
G37*
G36*
X-295742Y-31022D02*
X-296936D01*
X-298038Y-31478D01*
X-298882Y-32322D01*
X-299339Y-33425D01*
Y-34618D01*
X-298882Y-35721D01*
X-298038Y-36565D01*
X-296936Y-37022D01*
X-295742D01*
X-294639Y-36565D01*
X-293796Y-35721D01*
X-293339Y-34618D01*
Y-33425D01*
X-293796Y-32322D01*
X-294639Y-31478D01*
X-295742Y-31022D01*
D02*
G37*
G36*
X-71009Y-29745D02*
X-72501D01*
X-73879Y-30316D01*
X-74934Y-31371D01*
X-75505Y-32749D01*
Y-34241D01*
X-74934Y-35619D01*
X-73879Y-36674D01*
X-72501Y-37245D01*
X-71009D01*
X-69631Y-36674D01*
X-68576Y-35619D01*
X-68005Y-34241D01*
Y-32749D01*
X-68576Y-31371D01*
X-69631Y-30316D01*
X-71009Y-29745D01*
D02*
G37*
G36*
X-237403Y-36550D02*
X-238597D01*
X-239699Y-37007D01*
X-240543Y-37851D01*
X-240975Y-38892D01*
X-241055Y-38976D01*
X-241796Y-39289D01*
X-242538Y-38976D01*
X-242617Y-38893D01*
X-243049Y-37851D01*
X-243893Y-37007D01*
X-244995Y-36550D01*
X-246189D01*
X-247291Y-37007D01*
X-248135Y-37851D01*
X-248592Y-38953D01*
Y-40147D01*
X-248135Y-41249D01*
X-247291Y-42093D01*
X-246189Y-42550D01*
X-246014D01*
X-244856Y-43555D01*
X-244800Y-43958D01*
Y-44797D01*
X-244343Y-45899D01*
X-243500Y-46743D01*
X-242397Y-47200D01*
X-241203D01*
X-240101Y-46743D01*
X-239257Y-45899D01*
X-238800Y-44797D01*
Y-43958D01*
X-238741Y-43552D01*
X-237587Y-42550D01*
X-237403D01*
X-236301Y-42093D01*
X-235457Y-41249D01*
X-235000Y-40147D01*
Y-38953D01*
X-235457Y-37851D01*
X-236301Y-37007D01*
X-237403Y-36550D01*
D02*
G37*
G36*
X-263707Y-39000D02*
X-264901D01*
X-266003Y-39457D01*
X-266847Y-40301D01*
X-267304Y-41403D01*
Y-42597D01*
X-266847Y-43699D01*
X-266003Y-44543D01*
X-264901Y-45000D01*
X-263707D01*
X-262605Y-44543D01*
X-261761Y-43699D01*
X-261304Y-42597D01*
Y-41403D01*
X-261761Y-40301D01*
X-262605Y-39457D01*
X-263707Y-39000D01*
D02*
G37*
G36*
X-227429Y-39449D02*
X-228623D01*
X-229725Y-39906D01*
X-230569Y-40750D01*
X-231026Y-41852D01*
Y-43046D01*
X-230569Y-44149D01*
X-229725Y-44992D01*
X-228623Y-45449D01*
X-227429D01*
X-226327Y-44992D01*
X-225483Y-44149D01*
X-225026Y-43046D01*
Y-41852D01*
X-225483Y-40750D01*
X-226327Y-39906D01*
X-227429Y-39449D01*
D02*
G37*
G36*
X-209484Y-36550D02*
X-210678D01*
X-211780Y-37007D01*
X-212624Y-37851D01*
X-213081Y-38953D01*
Y-40147D01*
X-212624Y-41249D01*
X-211780Y-42093D01*
X-210678Y-42550D01*
X-209484D01*
X-209226Y-42443D01*
X-207884Y-42762D01*
X-207515Y-43258D01*
X-207246Y-43908D01*
X-206402Y-44752D01*
X-205299Y-45209D01*
X-204105D01*
X-203003Y-44752D01*
X-202420Y-44169D01*
X-201984Y-43922D01*
X-200562Y-44036D01*
X-200305Y-44293D01*
X-199202Y-44750D01*
X-198009D01*
X-196906Y-44293D01*
X-195293Y-44758D01*
X-194449Y-45602D01*
X-193347Y-46058D01*
X-192153D01*
X-191051Y-45602D01*
X-190207Y-44758D01*
X-189750Y-43655D01*
Y-42462D01*
X-190207Y-41359D01*
X-191051Y-40515D01*
X-192153Y-40058D01*
X-193347D01*
X-194449Y-40515D01*
X-196062Y-40051D01*
X-196906Y-39207D01*
X-198009Y-38750D01*
X-199202D01*
X-200305Y-39207D01*
X-200888Y-39790D01*
X-201324Y-40037D01*
X-202746Y-39923D01*
X-203003Y-39666D01*
X-204105Y-39209D01*
X-205299D01*
X-205557Y-39316D01*
X-206900Y-38996D01*
X-207268Y-38501D01*
X-207538Y-37851D01*
X-208382Y-37007D01*
X-209484Y-36550D01*
D02*
G37*
G36*
X-254177Y-40064D02*
X-255371D01*
X-256473Y-40521D01*
X-257317Y-41365D01*
X-257774Y-42467D01*
Y-43661D01*
X-257317Y-44763D01*
X-256473Y-45608D01*
X-255371Y-46064D01*
X-254177D01*
X-253075Y-45608D01*
X-252231Y-44763D01*
X-251774Y-43661D01*
Y-42467D01*
X-252231Y-41365D01*
X-253075Y-40521D01*
X-254177Y-40064D01*
D02*
G37*
G36*
X-295865Y-41085D02*
X-297059D01*
X-298161Y-41541D01*
X-299005Y-42385D01*
X-299462Y-43488D01*
Y-44681D01*
X-299005Y-45784D01*
X-298161Y-46628D01*
X-297059Y-47085D01*
X-295865D01*
X-294763Y-46628D01*
X-293919Y-45784D01*
X-293462Y-44681D01*
Y-43488D01*
X-293919Y-42385D01*
X-294763Y-41541D01*
X-295865Y-41085D01*
D02*
G37*
G36*
X118996Y-42250D02*
X117504D01*
X116126Y-42821D01*
X115071Y-43876D01*
X114500Y-45254D01*
Y-46746D01*
X115071Y-48124D01*
X116126Y-49179D01*
X117504Y-49750D01*
X118996D01*
X120374Y-49179D01*
X121429Y-48124D01*
X122000Y-46746D01*
Y-45254D01*
X121429Y-43876D01*
X120374Y-42821D01*
X118996Y-42250D01*
D02*
G37*
G36*
X-171653Y-31250D02*
X-172847D01*
X-173949Y-31707D01*
X-174793Y-32551D01*
X-175250Y-33653D01*
Y-34847D01*
X-174793Y-35949D01*
X-173988Y-36754D01*
X-173947Y-36818D01*
X-173763Y-38520D01*
X-174043Y-38801D01*
X-174500Y-39903D01*
Y-41097D01*
X-174043Y-42199D01*
X-173199Y-43043D01*
X-172097Y-43500D01*
X-171148D01*
X-170598Y-44260D01*
X-170338Y-44908D01*
X-170750Y-45903D01*
Y-47097D01*
X-170293Y-48199D01*
X-169449Y-49043D01*
X-168347Y-49500D01*
X-167153D01*
X-166051Y-49043D01*
X-165408Y-48401D01*
X-164349Y-48404D01*
X-163706Y-48558D01*
X-163543Y-48949D01*
X-162699Y-49793D01*
X-161597Y-50250D01*
X-160403D01*
X-159301Y-49793D01*
X-158457Y-48949D01*
X-158000Y-47847D01*
Y-46653D01*
X-158457Y-45551D01*
X-159301Y-44707D01*
X-160403Y-44250D01*
X-161597D01*
X-162699Y-44707D01*
X-163342Y-45349D01*
X-164401Y-45346D01*
X-165044Y-45192D01*
X-165207Y-44801D01*
X-166051Y-43957D01*
X-167153Y-43500D01*
X-168102D01*
X-168652Y-42740D01*
X-168912Y-42092D01*
X-168500Y-41097D01*
Y-39903D01*
X-168957Y-38801D01*
X-169762Y-37996D01*
X-169803Y-37932D01*
X-169987Y-36230D01*
X-169707Y-35949D01*
X-169250Y-34847D01*
Y-33653D01*
X-169707Y-32551D01*
X-170551Y-31707D01*
X-171653Y-31250D01*
D02*
G37*
G36*
X34496Y-43500D02*
X33004D01*
X31626Y-44071D01*
X30571Y-45126D01*
X30000Y-46504D01*
Y-47996D01*
X30571Y-49374D01*
X31626Y-50429D01*
X33004Y-51000D01*
X34496D01*
X35874Y-50429D01*
X36929Y-49374D01*
X37500Y-47996D01*
Y-46504D01*
X36929Y-45126D01*
X35874Y-44071D01*
X34496Y-43500D01*
D02*
G37*
G36*
X-55903Y-50000D02*
X-57097D01*
X-58199Y-50457D01*
X-59043Y-51301D01*
X-59776Y-51420D01*
X-60732Y-51396D01*
X-61421Y-50707D01*
X-62524Y-50250D01*
X-63717D01*
X-64820Y-50707D01*
X-65664Y-51551D01*
X-66120Y-52653D01*
Y-53847D01*
X-65664Y-54949D01*
X-64820Y-55793D01*
X-63717Y-56250D01*
X-62524D01*
X-61421Y-55793D01*
X-60577Y-54949D01*
X-59844Y-54830D01*
X-58888Y-54854D01*
X-58199Y-55543D01*
X-57097Y-56000D01*
X-55903D01*
X-54801Y-55543D01*
X-53957Y-54699D01*
X-53500Y-53597D01*
Y-52403D01*
X-53957Y-51301D01*
X-54801Y-50457D01*
X-55903Y-50000D01*
D02*
G37*
G36*
X77311Y-28185D02*
X75820D01*
X74441Y-28756D01*
X73386Y-29810D01*
X72815Y-31189D01*
Y-32680D01*
X73243Y-33712D01*
X73386Y-34059D01*
X73101Y-35846D01*
X73071Y-35876D01*
X72500Y-37254D01*
Y-38746D01*
X73071Y-40124D01*
X73947Y-41000D01*
X73071Y-41876D01*
X72500Y-43254D01*
Y-44746D01*
X73071Y-46124D01*
X73262Y-46315D01*
X73614Y-47851D01*
X73378Y-48422D01*
X73043Y-49229D01*
Y-50721D01*
X73614Y-52099D01*
X74669Y-53154D01*
X76047Y-53725D01*
X77539D01*
X78917Y-53154D01*
X79972Y-52099D01*
X80543Y-50721D01*
Y-49229D01*
X79972Y-47851D01*
X79781Y-47660D01*
X79429Y-46124D01*
X79666Y-45553D01*
X80000Y-44746D01*
Y-43254D01*
X79429Y-41876D01*
X78553Y-41000D01*
X79429Y-40124D01*
X80000Y-38746D01*
Y-37254D01*
X79573Y-36222D01*
X79429Y-35876D01*
X79714Y-34089D01*
X79745Y-34059D01*
X80316Y-32680D01*
Y-31189D01*
X79745Y-29810D01*
X78690Y-28756D01*
X77311Y-28185D01*
D02*
G37*
G36*
X91746Y-52250D02*
X90254D01*
X88876Y-52821D01*
X87821Y-53876D01*
X87250Y-55254D01*
Y-56746D01*
X87821Y-58124D01*
X88876Y-59179D01*
X90254Y-59750D01*
X91746D01*
X93124Y-59179D01*
X94179Y-58124D01*
X94750Y-56746D01*
Y-55254D01*
X94179Y-53876D01*
X93124Y-52821D01*
X91746Y-52250D01*
D02*
G37*
G36*
X-3403Y-54000D02*
X-4597D01*
X-5699Y-54457D01*
X-6543Y-55301D01*
X-7000Y-56403D01*
Y-57597D01*
X-6543Y-58699D01*
X-5699Y-59543D01*
X-4597Y-60000D01*
X-3403D01*
X-2301Y-59543D01*
X-1457Y-58699D01*
X-1000Y-57597D01*
Y-56403D01*
X-1457Y-55301D01*
X-2301Y-54457D01*
X-3403Y-54000D01*
D02*
G37*
G36*
X-192653Y-54250D02*
X-193847D01*
X-194949Y-54707D01*
X-195793Y-55551D01*
X-196250Y-56653D01*
Y-57847D01*
X-195793Y-58949D01*
X-194949Y-59793D01*
X-193847Y-60250D01*
X-192653D01*
X-191551Y-59793D01*
X-190707Y-58949D01*
X-190250Y-57847D01*
Y-56653D01*
X-190707Y-55551D01*
X-191551Y-54707D01*
X-192653Y-54250D01*
D02*
G37*
G36*
X-130403Y-54500D02*
X-131597D01*
X-132699Y-54957D01*
X-133543Y-55801D01*
X-134000Y-56903D01*
Y-58097D01*
X-133543Y-59199D01*
X-132699Y-60043D01*
X-131597Y-60500D01*
X-130403D01*
X-129301Y-60043D01*
X-128457Y-59199D01*
X-128000Y-58097D01*
Y-56903D01*
X-128457Y-55801D01*
X-129301Y-54957D01*
X-130403Y-54500D01*
D02*
G37*
G36*
X110844Y-56500D02*
X109352D01*
X107974Y-57071D01*
X106919Y-58126D01*
X106348Y-59504D01*
Y-60996D01*
X106919Y-62374D01*
X107974Y-63429D01*
X109352Y-64000D01*
X110844D01*
X112222Y-63429D01*
X113277Y-62374D01*
X113848Y-60996D01*
Y-59504D01*
X113277Y-58126D01*
X112222Y-57071D01*
X110844Y-56500D01*
D02*
G37*
G36*
X-210153Y-64750D02*
X-211347D01*
X-212449Y-65207D01*
X-213293Y-66051D01*
X-213372Y-66241D01*
X-214690Y-66940D01*
X-215143Y-66838D01*
X-215883Y-66531D01*
X-217076D01*
X-218179Y-66988D01*
X-219023Y-67832D01*
X-219480Y-68935D01*
Y-70128D01*
X-219023Y-71231D01*
X-218179Y-72075D01*
X-217076Y-72531D01*
X-215883D01*
X-214780Y-72075D01*
X-213936Y-71231D01*
X-213857Y-71041D01*
X-212539Y-70341D01*
X-212086Y-70444D01*
X-211347Y-70750D01*
X-210153D01*
X-209051Y-70293D01*
X-208207Y-69449D01*
X-207750Y-68347D01*
Y-67153D01*
X-208207Y-66051D01*
X-209051Y-65207D01*
X-210153Y-64750D01*
D02*
G37*
G36*
X-229155Y-52833D02*
X-230348D01*
X-231451Y-53289D01*
X-232295Y-54133D01*
X-232751Y-55236D01*
Y-56430D01*
X-232295Y-57532D01*
X-231559Y-58268D01*
X-231452Y-58725D01*
X-231458Y-60022D01*
X-232052Y-60616D01*
X-232509Y-61719D01*
Y-62912D01*
X-232052Y-64015D01*
X-231208Y-64859D01*
X-230106Y-65316D01*
X-229724D01*
X-228647Y-66231D01*
X-228503Y-66724D01*
Y-67546D01*
X-228047Y-68649D01*
X-227203Y-69493D01*
X-226100Y-69949D01*
X-224907D01*
X-223804Y-69493D01*
X-222960Y-68649D01*
X-222504Y-67546D01*
Y-66352D01*
X-222960Y-65250D01*
X-223804Y-64406D01*
X-224907Y-63949D01*
X-225365Y-62457D01*
X-225346Y-61901D01*
X-225081Y-61705D01*
X-224994Y-61704D01*
X-223886D01*
X-223529Y-61556D01*
X-222783Y-61247D01*
X-221940Y-60403D01*
X-221483Y-59300D01*
Y-58107D01*
X-221940Y-57004D01*
X-222783Y-56160D01*
X-223886Y-55704D01*
X-225079D01*
X-225227Y-55765D01*
X-226693Y-55256D01*
X-226880Y-54925D01*
X-227208Y-54133D01*
X-228052Y-53289D01*
X-229155Y-52833D01*
D02*
G37*
G36*
X101746Y-64000D02*
X100254D01*
X98876Y-64571D01*
X97821Y-65626D01*
X97250Y-67004D01*
Y-68496D01*
X97821Y-69874D01*
X98876Y-70929D01*
X100254Y-71500D01*
X101746D01*
X103124Y-70929D01*
X104179Y-69874D01*
X104750Y-68496D01*
Y-67004D01*
X104179Y-65626D01*
X103124Y-64571D01*
X101746Y-64000D01*
D02*
G37*
G36*
X62097Y-69500D02*
X60903D01*
X59801Y-69957D01*
X58957Y-70801D01*
X58500Y-71903D01*
Y-73097D01*
X58957Y-74199D01*
X59801Y-75043D01*
X60903Y-75500D01*
X62097D01*
X63199Y-75043D01*
X64043Y-74199D01*
X64500Y-73097D01*
Y-71903D01*
X64043Y-70801D01*
X63199Y-69957D01*
X62097Y-69500D01*
D02*
G37*
G36*
X-229470Y-73172D02*
X-230664D01*
X-231766Y-73628D01*
X-232610Y-74472D01*
X-233067Y-75575D01*
Y-76768D01*
X-232610Y-77871D01*
X-231766Y-78715D01*
X-230664Y-79172D01*
X-229470D01*
X-228368Y-78715D01*
X-227524Y-77871D01*
X-227067Y-76768D01*
Y-75575D01*
X-227524Y-74472D01*
X-228368Y-73628D01*
X-229470Y-73172D01*
D02*
G37*
G36*
X-28805Y-71750D02*
X-30297D01*
X-31675Y-72321D01*
X-32730Y-73376D01*
X-33301Y-74754D01*
Y-76246D01*
X-32730Y-77624D01*
X-31675Y-78679D01*
X-30297Y-79250D01*
X-28805D01*
X-27427Y-78679D01*
X-26372Y-77624D01*
X-25801Y-76246D01*
Y-74754D01*
X-26372Y-73376D01*
X-27427Y-72321D01*
X-28805Y-71750D01*
D02*
G37*
G36*
X-5192Y-74847D02*
X-6684D01*
X-8063Y-75418D01*
X-9118Y-76473D01*
X-9688Y-77851D01*
Y-79343D01*
X-9118Y-80721D01*
X-8063Y-81776D01*
X-6684Y-82347D01*
X-5192D01*
X-3814Y-81776D01*
X-2759Y-80721D01*
X-2189Y-79343D01*
Y-77851D01*
X-2759Y-76473D01*
X-3814Y-75418D01*
X-5192Y-74847D01*
D02*
G37*
G36*
X12597Y-77000D02*
X11403D01*
X10301Y-77457D01*
X9457Y-78301D01*
X9000Y-79403D01*
Y-80597D01*
X9457Y-81699D01*
X10301Y-82543D01*
X11403Y-83000D01*
X12597D01*
X13699Y-82543D01*
X14543Y-81699D01*
X15000Y-80597D01*
Y-79403D01*
X14543Y-78301D01*
X13699Y-77457D01*
X12597Y-77000D01*
D02*
G37*
G36*
X-112653Y-77500D02*
X-113847D01*
X-114949Y-77957D01*
X-115793Y-78801D01*
X-116250Y-79903D01*
Y-81097D01*
X-115793Y-82199D01*
X-114949Y-83043D01*
X-113847Y-83500D01*
X-112653D01*
X-111551Y-83043D01*
X-110707Y-82199D01*
X-110250Y-81097D01*
Y-79903D01*
X-110707Y-78801D01*
X-111551Y-77957D01*
X-112653Y-77500D01*
D02*
G37*
G36*
X62739Y-80358D02*
X61546D01*
X60443Y-80814D01*
X59599Y-81658D01*
X59142Y-82761D01*
Y-83954D01*
X59599Y-85057D01*
X60443Y-85901D01*
X61546Y-86358D01*
X62739D01*
X63842Y-85901D01*
X64686Y-85057D01*
X65142Y-83954D01*
Y-82761D01*
X64686Y-81658D01*
X63842Y-80814D01*
X62739Y-80358D01*
D02*
G37*
G36*
X-17004Y-69250D02*
X-18496D01*
X-19874Y-69821D01*
X-20929Y-70876D01*
X-21500Y-72254D01*
Y-73746D01*
X-20940Y-75096D01*
X-20930Y-75127D01*
X-21310Y-76899D01*
X-21449Y-76957D01*
X-22293Y-77801D01*
X-22750Y-78903D01*
Y-80097D01*
X-22293Y-81199D01*
X-21449Y-82043D01*
X-21328Y-82094D01*
X-21190Y-82392D01*
X-21086Y-83843D01*
X-21543Y-84301D01*
X-22000Y-85403D01*
Y-86597D01*
X-21543Y-87699D01*
X-20699Y-88543D01*
X-19597Y-89000D01*
X-18403D01*
X-17301Y-88543D01*
X-16457Y-87699D01*
X-16000Y-86597D01*
Y-85403D01*
X-16457Y-84301D01*
X-17301Y-83457D01*
X-17422Y-83406D01*
X-17560Y-83108D01*
X-17664Y-81657D01*
X-17207Y-81199D01*
X-16750Y-80097D01*
Y-78903D01*
X-17011Y-78274D01*
X-17007Y-77489D01*
X-16366Y-76486D01*
X-15626Y-76179D01*
X-14571Y-75124D01*
X-14000Y-73746D01*
Y-72254D01*
X-14571Y-70876D01*
X-15626Y-69821D01*
X-17004Y-69250D01*
D02*
G37*
G36*
X-26902Y-83002D02*
X-28394D01*
X-29772Y-83573D01*
X-30827Y-84628D01*
X-31398Y-86006D01*
Y-87498D01*
X-30827Y-88876D01*
X-29772Y-89931D01*
X-28394Y-90502D01*
X-26902D01*
X-25524Y-89931D01*
X-24469Y-88876D01*
X-23898Y-87498D01*
Y-86006D01*
X-24469Y-84628D01*
X-25524Y-83573D01*
X-26902Y-83002D01*
D02*
G37*
G36*
X-113653Y-90500D02*
X-114847D01*
X-115949Y-90957D01*
X-116379Y-91387D01*
X-117077Y-91736D01*
X-118301Y-91457D01*
X-118551Y-91207D01*
X-119653Y-90750D01*
X-120847D01*
X-121949Y-91207D01*
X-122793Y-92051D01*
X-123250Y-93153D01*
Y-94347D01*
X-122793Y-95449D01*
X-121949Y-96293D01*
X-120847Y-96750D01*
X-119653D01*
X-118551Y-96293D01*
X-118121Y-95863D01*
X-117423Y-95514D01*
X-116200Y-95793D01*
X-115949Y-96043D01*
X-114847Y-96500D01*
X-113653D01*
X-112551Y-96043D01*
X-111707Y-95199D01*
X-111250Y-94097D01*
Y-92903D01*
X-111707Y-91801D01*
X-112551Y-90957D01*
X-113653Y-90500D01*
D02*
G37*
G36*
X-5254Y-85250D02*
X-6746D01*
X-8124Y-85821D01*
X-9179Y-86876D01*
X-9750Y-88254D01*
Y-89746D01*
X-9179Y-91124D01*
X-8124Y-92179D01*
X-6746Y-92750D01*
X-5254D01*
X-3876Y-92179D01*
X-2821Y-91124D01*
X-2250Y-89746D01*
Y-88254D01*
X-2821Y-86876D01*
X-3876Y-85821D01*
X-5254Y-85250D01*
D02*
G37*
G36*
X-227700Y-84451D02*
X-228893D01*
X-229996Y-84908D01*
X-230840Y-85752D01*
X-231297Y-86854D01*
Y-87417D01*
X-231986Y-88365D01*
X-232682Y-88685D01*
X-233412D01*
X-234515Y-89141D01*
X-235359Y-89985D01*
X-235816Y-91088D01*
Y-92281D01*
X-235359Y-93384D01*
X-234515Y-94228D01*
X-233412Y-94684D01*
X-232219D01*
X-231116Y-94228D01*
X-230272Y-93384D01*
X-229816Y-92281D01*
Y-91719D01*
X-229126Y-90771D01*
X-228430Y-90451D01*
X-227700D01*
X-226597Y-89994D01*
X-225753Y-89150D01*
X-225296Y-88048D01*
Y-86854D01*
X-225753Y-85752D01*
X-226597Y-84908D01*
X-227700Y-84451D01*
D02*
G37*
G36*
X-262153Y-90000D02*
X-263347D01*
X-264449Y-90457D01*
X-265293Y-91301D01*
X-265750Y-92403D01*
Y-93597D01*
X-265293Y-94699D01*
X-264449Y-95543D01*
X-263347Y-96000D01*
X-262153D01*
X-261051Y-95543D01*
X-260207Y-94699D01*
X-259750Y-93597D01*
Y-92403D01*
X-260207Y-91301D01*
X-261051Y-90457D01*
X-262153Y-90000D01*
D02*
G37*
G36*
X-151403Y-87000D02*
X-152597D01*
X-153699Y-87457D01*
X-154543Y-88301D01*
X-155000Y-89403D01*
Y-89592D01*
X-155314Y-90687D01*
X-156408Y-91000D01*
X-156597D01*
X-157699Y-91457D01*
X-158543Y-92301D01*
X-159000Y-93403D01*
Y-94597D01*
X-158543Y-95699D01*
X-157699Y-96543D01*
X-156597Y-97000D01*
X-155403D01*
X-154301Y-96543D01*
X-153457Y-95699D01*
X-153000Y-94597D01*
Y-94531D01*
X-152799Y-94343D01*
X-152777Y-94336D01*
X-152710Y-94339D01*
X-151250Y-95097D01*
X-150793Y-96199D01*
X-149949Y-97043D01*
X-148847Y-97500D01*
X-147653D01*
X-146551Y-97043D01*
X-145707Y-96199D01*
X-145250Y-95097D01*
Y-93903D01*
X-145707Y-92801D01*
X-146551Y-91957D01*
X-147653Y-91500D01*
X-147725D01*
X-148940Y-90639D01*
X-149000Y-90092D01*
Y-89403D01*
X-149457Y-88301D01*
X-150301Y-87457D01*
X-151403Y-87000D01*
D02*
G37*
G36*
X-72653Y-92000D02*
X-73847D01*
X-74949Y-92457D01*
X-75793Y-93301D01*
X-76250Y-94403D01*
Y-95597D01*
X-75793Y-96699D01*
X-74949Y-97543D01*
X-73847Y-98000D01*
X-72653D01*
X-71551Y-97543D01*
X-70707Y-96699D01*
X-70250Y-95597D01*
Y-94403D01*
X-70707Y-93301D01*
X-71551Y-92457D01*
X-72653Y-92000D01*
D02*
G37*
%LPD*%
D111*
X-35750Y67000D02*
D03*
X-37750Y59250D02*
D03*
X-89000Y95000D02*
D03*
X-69000Y-5000D02*
D03*
X-12988Y88150D02*
D03*
X-11750Y74000D02*
D03*
X-19750Y74750D02*
D03*
X-2500Y87750D02*
D03*
X123476Y-39524D02*
D03*
X118250Y-46000D02*
D03*
X116500Y-29750D02*
D03*
X95000Y75000D02*
D03*
X105000D02*
D03*
X95000Y85000D02*
D03*
X105000D02*
D03*
X115000D02*
D03*
X124000D02*
D03*
X115000Y60000D02*
D03*
X124000D02*
D03*
X115000Y40000D02*
D03*
X124000D02*
D03*
Y50000D02*
D03*
X115000D02*
D03*
Y20000D02*
D03*
X124000D02*
D03*
Y30000D02*
D03*
X115000D02*
D03*
Y0D02*
D03*
X124000D02*
D03*
Y10000D02*
D03*
X115000D02*
D03*
Y-10000D02*
D03*
X124000D02*
D03*
Y-20000D02*
D03*
X115000D02*
D03*
X123500Y-60000D02*
D03*
X96000Y-76000D02*
D03*
X121000Y-85000D02*
D03*
X109000D02*
D03*
X96000D02*
D03*
X-296568Y-11747D02*
D03*
X-254575Y23575D02*
D03*
X-237924Y13756D02*
D03*
X-220750Y30500D02*
D03*
X92000Y36000D02*
D03*
Y20000D02*
D03*
Y4000D02*
D03*
X92060Y-12000D02*
D03*
X43000Y-33087D02*
D03*
X8000Y-26250D02*
D03*
X-264260Y7496D02*
D03*
X-262550Y-5319D02*
D03*
X61665Y-63262D02*
D03*
X33750Y-47250D02*
D03*
X110098Y-60250D02*
D03*
X101000Y-67750D02*
D03*
X-6000Y-89000D02*
D03*
X91000Y-56000D02*
D03*
X76793Y-49975D02*
D03*
X76250Y-44000D02*
D03*
Y-38000D02*
D03*
X76565Y-31934D02*
D03*
X59738Y-14442D02*
D03*
X-5938Y-78597D02*
D03*
X-17750Y-73000D02*
D03*
X110098Y-36000D02*
D03*
X62500Y10750D02*
D03*
X30410Y17410D02*
D03*
X21285Y14535D02*
D03*
X62562Y50250D02*
D03*
X75935Y46684D02*
D03*
X91750Y60250D02*
D03*
X60750Y-45152D02*
D03*
X36750Y57250D02*
D03*
X29250Y83750D02*
D03*
X13535Y71250D02*
D03*
X4752Y76652D02*
D03*
X-21000Y-31000D02*
D03*
X-83193Y78493D02*
D03*
X-30888Y-60362D02*
D03*
X-71755Y-33495D02*
D03*
X-27648Y-86752D02*
D03*
X-29551Y-75500D02*
D03*
X-61500Y82250D02*
D03*
X-73750Y96000D02*
D03*
X-46000D02*
D03*
X-81250Y-45479D02*
D03*
X-91250D02*
D03*
X-81250Y-55479D02*
D03*
X-91250D02*
D03*
X-296934Y6219D02*
D03*
X-297812Y-5878D02*
D03*
X-266283Y-25805D02*
D03*
X-288500Y14250D02*
D03*
X-291125Y26875D02*
D03*
X-202000Y13500D02*
D03*
X-130450Y58100D02*
D03*
X-86355Y54410D02*
D03*
X-80048Y54298D02*
D03*
X-114423Y75423D02*
D03*
X-114951Y42426D02*
D03*
X-132199Y38058D02*
D03*
X-122000Y42798D02*
D03*
X-47250Y-33250D02*
D03*
X-85410Y-8486D02*
D03*
X-77250Y-8000D02*
D03*
X-286500Y39250D02*
D03*
X-185188Y-62000D02*
D03*
X-176000Y-96000D02*
D03*
X-175938Y-89250D02*
D03*
X-176188Y-80500D02*
D03*
X61812Y93500D02*
D03*
X62312Y79750D02*
D03*
X62562Y64000D02*
D03*
X62500Y-95500D02*
D03*
X-42500D02*
D03*
X-117250Y4488D02*
D03*
X-123000Y5000D02*
D03*
X-61000Y6000D02*
D03*
X-136438Y18000D02*
D03*
X-120575Y94641D02*
D03*
X-201200Y-9954D02*
D03*
X-80048Y60232D02*
D03*
X-86057Y60306D02*
D03*
X-252136Y-94583D02*
D03*
X-238000Y-30000D02*
D03*
X-209971Y-23971D02*
D03*
X-221965Y-8924D02*
D03*
X-181000Y77000D02*
D03*
X-219000Y96000D02*
D03*
X-261000Y89000D02*
D03*
Y75000D02*
D03*
Y64000D02*
D03*
X-152000Y96000D02*
D03*
X-165000D02*
D03*
X-21000Y3000D02*
D03*
X-33500Y-96250D02*
D03*
X-153500Y-81500D02*
D03*
X-190750Y-67750D02*
D03*
X-215750Y17750D02*
D03*
X-211000Y20750D02*
D03*
X-205250Y8500D02*
D03*
X-34000Y96250D02*
D03*
X-287750Y-92500D02*
D03*
X-288000Y-78750D02*
D03*
X-202500Y-83750D02*
D03*
X-202750Y-94750D02*
D03*
X-300000Y52022D02*
D03*
X-307000Y92097D02*
D03*
X-302000Y59000D02*
D03*
X-270000Y-58750D02*
D03*
X-80117Y12827D02*
D03*
X-162500Y0D02*
D03*
X-137500D02*
D03*
X-150000D02*
D03*
X-175000D02*
D03*
X-232899Y2149D02*
D03*
X-238750Y-7500D02*
D03*
X-239530Y-64190D02*
D03*
X-259260Y-38524D02*
D03*
X-153500Y-33000D02*
D03*
X-152500Y-39250D02*
D03*
X-296843Y-27159D02*
D03*
X-184000Y40000D02*
D03*
X-180750Y60262D02*
D03*
X-255762Y500D02*
D03*
M02*
