G04*
G04 #@! TF.GenerationSoftware,Altium Limited,Altium Designer,23.3.1 (30)*
G04*
G04 Layer_Color=255*
%FSLAX44Y44*%
%MOMM*%
G71*
G04*
G04 #@! TF.SameCoordinates,9951316E-5AA8-40CD-BDAD-E2DC54E6BB6D*
G04*
G04*
G04 #@! TF.FilePolarity,Positive*
G04*
G01*
G75*
%ADD28R,1.6510X0.9398*%
%ADD29R,1.0414X0.5334*%
%ADD30R,0.6000X0.4000*%
%ADD31R,0.4000X0.6000*%
%ADD32C,1.0000*%
%ADD33R,0.9000X1.0000*%
%ADD34R,0.5121X0.5811*%
%ADD35R,0.5200X0.5600*%
%ADD36R,0.5000X0.6000*%
%ADD37R,0.6725X0.7154*%
%ADD38R,0.8000X0.7000*%
%ADD39R,0.2500X0.4000*%
%ADD40R,0.7000X0.4000*%
%ADD41R,0.5725X0.5654*%
%ADD42R,0.9000X0.6500*%
%ADD43R,0.5500X0.6000*%
%ADD44O,0.5800X0.3000*%
%ADD45O,0.3500X0.6300*%
%ADD46O,0.5800X0.2500*%
%ADD47R,3.1000X2.6000*%
%ADD48R,0.4500X1.2000*%
G04:AMPARAMS|DCode=49|XSize=0.55mm|YSize=0.8mm|CornerRadius=0.0495mm|HoleSize=0mm|Usage=FLASHONLY|Rotation=0.000|XOffset=0mm|YOffset=0mm|HoleType=Round|Shape=RoundedRectangle|*
%AMROUNDEDRECTD49*
21,1,0.5500,0.7010,0,0,0.0*
21,1,0.4510,0.8000,0,0,0.0*
1,1,0.0990,0.2255,-0.3505*
1,1,0.0990,-0.2255,-0.3505*
1,1,0.0990,-0.2255,0.3505*
1,1,0.0990,0.2255,0.3505*
%
%ADD49ROUNDEDRECTD49*%
%ADD50R,1.6000X1.2500*%
%ADD51R,1.4986X3.0988*%
%ADD52R,0.7112X3.0988*%
%ADD53R,0.5000X1.0000*%
%ADD54R,1.4620X0.2794*%
%ADD55R,0.2794X1.4620*%
%ADD56R,1.0000X1.1500*%
%ADD57R,0.6153X0.5725*%
%ADD58R,0.2400X0.6000*%
%ADD59R,0.6000X0.2400*%
%ADD60R,0.6500X0.6500*%
%ADD61R,0.5000X0.4000*%
%ADD62R,0.4000X0.5000*%
%ADD63R,0.7154X0.6725*%
%ADD64R,0.5725X0.5682*%
%ADD65C,0.2260*%
%ADD66R,0.5600X0.5200*%
%ADD67R,0.4682X0.4725*%
%ADD68R,0.4725X0.4682*%
%ADD69R,1.1051X1.0062*%
%ADD70R,0.6500X0.7000*%
%ADD71R,1.0062X1.1051*%
%ADD72R,1.0000X0.9000*%
%ADD73R,0.6000X0.5500*%
%ADD74R,0.5682X0.5725*%
%ADD75R,0.5153X0.4725*%
%ADD76R,0.9000X0.7500*%
%ADD77R,0.5725X0.6153*%
%ADD78R,0.7500X0.9000*%
%ADD81R,1.0500X1.0000*%
%ADD82R,2.2000X1.0500*%
%ADD85R,1.0500X2.2000*%
%ADD86R,1.0000X1.0500*%
%ADD98R,6.0000X6.0000*%
%ADD99R,0.2000X0.7000*%
D28*
X120341Y72500D02*
D03*
Y-72500D02*
D03*
D29*
X101141Y4000D02*
D03*
Y-28000D02*
D03*
Y28000D02*
D03*
Y20000D02*
D03*
Y-4000D02*
D03*
Y12000D02*
D03*
Y52000D02*
D03*
Y60000D02*
D03*
Y36000D02*
D03*
Y44000D02*
D03*
Y-52000D02*
D03*
Y-44000D02*
D03*
Y-60000D02*
D03*
Y-12000D02*
D03*
Y-36000D02*
D03*
Y-20000D02*
D03*
D30*
X-144500Y21250D02*
D03*
Y12250D02*
D03*
X-286000Y-40000D02*
D03*
Y-31000D02*
D03*
D31*
X-210250Y-59500D02*
D03*
X-201250D02*
D03*
D32*
X-118000Y67438D02*
D03*
X-41000Y49000D02*
D03*
X-81000Y45500D02*
D03*
X-79000Y70000D02*
D03*
X-305000Y77000D02*
D03*
X-81000Y87000D02*
D03*
X-100250Y90500D02*
D03*
X-127772Y86250D02*
D03*
D33*
X-70750Y-44250D02*
D03*
X-54750D02*
D03*
X-38750D02*
D03*
D34*
X-96000Y58845D02*
D03*
Y66155D02*
D03*
D35*
X-56750Y-94150D02*
D03*
Y-86350D02*
D03*
X-131000Y70550D02*
D03*
Y62950D02*
D03*
X-73500Y-800D02*
D03*
Y6800D02*
D03*
X-66000Y-93900D02*
D03*
Y-86100D02*
D03*
X-158000Y-53450D02*
D03*
Y-61050D02*
D03*
X-168000Y-60050D02*
D03*
Y-52450D02*
D03*
D36*
X-153750Y23500D02*
D03*
Y12500D02*
D03*
X-48000Y-94000D02*
D03*
Y-83000D02*
D03*
D37*
X-207500Y75536D02*
D03*
Y65964D02*
D03*
X-219400Y66014D02*
D03*
Y75586D02*
D03*
D38*
X-299750Y-77250D02*
D03*
Y-92250D02*
D03*
D39*
X-130250Y-48000D02*
D03*
X-125750D02*
D03*
D40*
X-128000Y-41000D02*
D03*
D41*
X-96500Y21464D02*
D03*
Y30536D02*
D03*
D42*
X-65250Y-74750D02*
D03*
Y-60250D02*
D03*
D43*
X-175500Y27750D02*
D03*
Y36250D02*
D03*
D44*
X-82150Y28250D02*
D03*
X-69350D02*
D03*
X-82150Y18250D02*
D03*
X-69350D02*
D03*
D45*
X-75750Y27600D02*
D03*
Y18900D02*
D03*
D46*
X-82150Y23250D02*
D03*
X-69350D02*
D03*
D47*
X-94500Y-50000D02*
D03*
D48*
X-80250Y-72500D02*
D03*
X-89750D02*
D03*
X-99250D02*
D03*
X-108750D02*
D03*
Y-27500D02*
D03*
X-99250D02*
D03*
X-89750D02*
D03*
X-80250D02*
D03*
D49*
X-128000Y49000D02*
D03*
X-109000D02*
D03*
X-118500D02*
D03*
X-128000Y23500D02*
D03*
X-118500D02*
D03*
X-109000D02*
D03*
D50*
X-279500Y67500D02*
D03*
X-242500D02*
D03*
Y89500D02*
D03*
X-279500D02*
D03*
D51*
X-158000Y61000D02*
D03*
D52*
X-143000D02*
D03*
X-173000D02*
D03*
D53*
X-208900Y52800D02*
D03*
X-219900D02*
D03*
D54*
X42164Y27940D02*
D03*
Y22860D02*
D03*
Y17780D02*
D03*
Y12700D02*
D03*
Y7620D02*
D03*
Y2540D02*
D03*
Y-2540D02*
D03*
Y-7620D02*
D03*
Y-12700D02*
D03*
Y-17780D02*
D03*
Y-22860D02*
D03*
Y-27940D02*
D03*
X-42164D02*
D03*
Y-22860D02*
D03*
Y-17780D02*
D03*
Y-12700D02*
D03*
Y-7620D02*
D03*
Y-2540D02*
D03*
Y2540D02*
D03*
Y7620D02*
D03*
Y12700D02*
D03*
Y17780D02*
D03*
Y22860D02*
D03*
Y27940D02*
D03*
D55*
X27940Y-42164D02*
D03*
X22860D02*
D03*
X17780D02*
D03*
X12700D02*
D03*
X7620D02*
D03*
X2540D02*
D03*
X-2540D02*
D03*
X-7620D02*
D03*
X-12700D02*
D03*
X-17780D02*
D03*
X-22860D02*
D03*
X-27940D02*
D03*
Y42164D02*
D03*
X-22860D02*
D03*
X-17780D02*
D03*
X-12700D02*
D03*
X-7620D02*
D03*
X-2540D02*
D03*
X2540D02*
D03*
X7620D02*
D03*
X12700D02*
D03*
X17780D02*
D03*
X22860D02*
D03*
X27940D02*
D03*
D56*
X-143500Y-25000D02*
D03*
Y-48500D02*
D03*
X-190500Y68750D02*
D03*
Y92250D02*
D03*
D57*
X-163464Y13250D02*
D03*
X-172036D02*
D03*
X-172286Y-8000D02*
D03*
X-163714D02*
D03*
D58*
X-191300Y38200D02*
D03*
X-196300D02*
D03*
X-201300D02*
D03*
X-206300D02*
D03*
X-211300D02*
D03*
X-216300D02*
D03*
X-221300D02*
D03*
X-226300D02*
D03*
X-231300D02*
D03*
X-236300D02*
D03*
X-241300D02*
D03*
X-246300D02*
D03*
X-251300D02*
D03*
X-256300D02*
D03*
X-261300D02*
D03*
X-266300D02*
D03*
Y-49800D02*
D03*
X-261300D02*
D03*
X-256300D02*
D03*
X-251300D02*
D03*
X-246300D02*
D03*
X-241300D02*
D03*
X-236300D02*
D03*
X-231300D02*
D03*
X-226300D02*
D03*
X-221300D02*
D03*
X-216300D02*
D03*
X-211300D02*
D03*
X-206300D02*
D03*
X-201300D02*
D03*
X-196300D02*
D03*
X-191300D02*
D03*
D59*
X-272800Y31709D02*
D03*
Y26708D02*
D03*
Y21707D02*
D03*
Y16706D02*
D03*
Y11704D02*
D03*
Y6703D02*
D03*
Y1702D02*
D03*
Y-3299D02*
D03*
Y-8301D02*
D03*
Y-13302D02*
D03*
Y-18303D02*
D03*
Y-23304D02*
D03*
Y-28306D02*
D03*
Y-33307D02*
D03*
Y-38308D02*
D03*
Y-43309D02*
D03*
X-184800D02*
D03*
Y-38308D02*
D03*
Y-33307D02*
D03*
Y-28306D02*
D03*
Y-23304D02*
D03*
Y-18303D02*
D03*
Y-13302D02*
D03*
Y-8301D02*
D03*
Y-3299D02*
D03*
Y1702D02*
D03*
Y6703D02*
D03*
Y11704D02*
D03*
Y16706D02*
D03*
Y21707D02*
D03*
Y26708D02*
D03*
Y31709D02*
D03*
D60*
X-290000Y-66250D02*
D03*
X-300000D02*
D03*
D61*
X-70000Y46000D02*
D03*
Y54000D02*
D03*
X-90000Y83000D02*
D03*
Y75000D02*
D03*
X-59250Y14000D02*
D03*
Y22000D02*
D03*
X-110750Y6250D02*
D03*
Y14250D02*
D03*
X-177000Y-52000D02*
D03*
Y-60000D02*
D03*
D62*
X-296000Y21500D02*
D03*
X-304000D02*
D03*
X-57750Y-500D02*
D03*
X-65750D02*
D03*
X-192000Y46500D02*
D03*
X-184000D02*
D03*
D63*
X-209614Y88800D02*
D03*
X-219186D02*
D03*
X-281714Y52250D02*
D03*
X-291286D02*
D03*
X-164464Y86500D02*
D03*
X-174036D02*
D03*
X-142464Y86250D02*
D03*
X-152036D02*
D03*
D64*
X-113250Y94522D02*
D03*
Y85478D02*
D03*
X-94000Y49271D02*
D03*
Y40229D02*
D03*
X-100500Y6271D02*
D03*
Y-2772D02*
D03*
D65*
X-58750Y40750D02*
D03*
X-54750D02*
D03*
X-58750Y36750D02*
D03*
X-54750D02*
D03*
X-85000Y6000D02*
D03*
Y2000D02*
D03*
X-89000Y6000D02*
D03*
Y2000D02*
D03*
D66*
X-68550Y-10000D02*
D03*
X-60950D02*
D03*
X-127800Y13750D02*
D03*
X-120200D02*
D03*
X-304800Y31750D02*
D03*
X-297200D02*
D03*
X-185450Y55500D02*
D03*
X-193050D02*
D03*
D67*
X-109228Y-3500D02*
D03*
X-117271D02*
D03*
X-55022Y-60250D02*
D03*
X-46979D02*
D03*
X-129522Y-27000D02*
D03*
X-121479D02*
D03*
X-116522Y-12000D02*
D03*
X-108478D02*
D03*
X-100772D02*
D03*
X-92729D02*
D03*
D68*
X-78250Y-95021D02*
D03*
Y-86979D02*
D03*
D69*
X-91244Y-91250D02*
D03*
X-105256D02*
D03*
X-140256Y-77000D02*
D03*
X-126244D02*
D03*
D70*
X-127750Y-92250D02*
D03*
X-141250D02*
D03*
D71*
X-165000Y-91506D02*
D03*
Y-77494D02*
D03*
D72*
X-306000Y-51500D02*
D03*
Y-35500D02*
D03*
Y-19500D02*
D03*
D73*
X-252500Y53250D02*
D03*
X-244000D02*
D03*
D74*
X-139771Y-64000D02*
D03*
X-130729D02*
D03*
D75*
X-47214Y-68750D02*
D03*
X-54786D02*
D03*
D76*
X-160000Y-39000D02*
D03*
Y-23500D02*
D03*
D77*
X-171500Y-17964D02*
D03*
Y-26536D02*
D03*
D78*
X-153250Y-9500D02*
D03*
X-137750D02*
D03*
D81*
X-45504Y78500D02*
D03*
D82*
X-60754Y63750D02*
D03*
Y93250D02*
D03*
D85*
X-275250Y-86000D02*
D03*
X-245750D02*
D03*
X-187250Y-86000D02*
D03*
X-216750D02*
D03*
D86*
X-260500Y-70750D02*
D03*
X-202000Y-70750D02*
D03*
D98*
X-228800Y-5800D02*
D03*
D99*
X50500Y-64600D02*
D03*
X46500D02*
D03*
X42500D02*
D03*
X38500D02*
D03*
X34500D02*
D03*
X30500D02*
D03*
X26500D02*
D03*
X22500D02*
D03*
X18500D02*
D03*
X14500D02*
D03*
X10500D02*
D03*
X6500D02*
D03*
X2500D02*
D03*
X-1500D02*
D03*
X-5500D02*
D03*
X-9500D02*
D03*
X-13500D02*
D03*
X-17500D02*
D03*
X-21500D02*
D03*
X-25500D02*
D03*
X50500Y-95400D02*
D03*
X46500D02*
D03*
X42500D02*
D03*
X38500D02*
D03*
X34500D02*
D03*
X30500D02*
D03*
X26500D02*
D03*
X22500D02*
D03*
X18500D02*
D03*
X14500D02*
D03*
X10500D02*
D03*
X6500D02*
D03*
X2500D02*
D03*
X-1500D02*
D03*
X-5500D02*
D03*
X-9500D02*
D03*
X-13500D02*
D03*
X-17500D02*
D03*
X-21500D02*
D03*
X-25500D02*
D03*
Y64600D02*
D03*
X-21500D02*
D03*
X-17500D02*
D03*
X-13500D02*
D03*
X-9500D02*
D03*
X-5500D02*
D03*
X-1500D02*
D03*
X2500D02*
D03*
X6500D02*
D03*
X10500D02*
D03*
X14500D02*
D03*
X18500D02*
D03*
X22500D02*
D03*
X26500D02*
D03*
X30500D02*
D03*
X34500D02*
D03*
X38500D02*
D03*
X42500D02*
D03*
X46500D02*
D03*
X50500D02*
D03*
X-25500Y95400D02*
D03*
X-21500D02*
D03*
X-17500D02*
D03*
X-13500D02*
D03*
X-9500D02*
D03*
X-5500D02*
D03*
X-1500D02*
D03*
X2500D02*
D03*
X6500D02*
D03*
X10500D02*
D03*
X14500D02*
D03*
X18500D02*
D03*
X22500D02*
D03*
X26500D02*
D03*
X30500D02*
D03*
X34500D02*
D03*
X38500D02*
D03*
X42500D02*
D03*
X46500D02*
D03*
X50500D02*
D03*
M02*
