G04*
G04 #@! TF.GenerationSoftware,Altium Limited,Altium Designer,23.3.1 (30)*
G04*
G04 Layer_Color=32896*
%FSLAX44Y44*%
%MOMM*%
G71*
G04*
G04 #@! TF.SameCoordinates,9951316E-5AA8-40CD-BDAD-E2DC54E6BB6D*
G04*
G04*
G04 #@! TF.FilePolarity,Positive*
G04*
G01*
G75*
%ADD12C,0.5080*%
%ADD13C,0.2500*%
%ADD14C,0.1000*%
%ADD15C,0.2000*%
%ADD16C,0.1524*%
%ADD17C,0.0800*%
%ADD18C,0.1270*%
%ADD20C,0.1200*%
%ADD21C,0.1500*%
%ADD155C,0.0727*%
%ADD156C,0.0808*%
%ADD157C,0.0500*%
G36*
X-203676Y37684D02*
X-203621D01*
Y37574D01*
X-203676D01*
Y28261D01*
X-203731D01*
Y28206D01*
X-204117D01*
Y28150D01*
X-204282D01*
Y28095D01*
X-204668D01*
Y28040D01*
X-204888D01*
Y27985D01*
X-205109D01*
Y27930D01*
X-205495D01*
Y27875D01*
X-205660D01*
Y27820D01*
X-206046D01*
Y27765D01*
X-206266D01*
Y27710D01*
X-206542D01*
Y27655D01*
X-206762D01*
Y27710D01*
X-206817D01*
Y33220D01*
X-207148D01*
Y33165D01*
X-207368D01*
Y33110D01*
X-207699D01*
Y33055D01*
X-207919D01*
Y33000D01*
X-208250D01*
Y32945D01*
X-208415D01*
Y32890D01*
X-208470D01*
Y27324D01*
X-208526D01*
Y27269D01*
X-208746D01*
Y27214D01*
X-208966D01*
Y27159D01*
X-209352D01*
Y27104D01*
X-209573D01*
Y27048D01*
X-209848D01*
Y26993D01*
X-210124D01*
Y26938D01*
X-210344D01*
Y26883D01*
X-210730D01*
Y26828D01*
X-210895D01*
Y26773D01*
X-211171D01*
Y26718D01*
X-211226D01*
Y26773D01*
X-211336D01*
Y32339D01*
X-211556D01*
Y32284D01*
X-211832D01*
Y32229D01*
X-212052D01*
Y32173D01*
X-212383D01*
Y32118D01*
X-212603D01*
Y32063D01*
X-212934D01*
Y32008D01*
X-212989D01*
Y23356D01*
X-213044D01*
Y23246D01*
X-212989D01*
Y23191D01*
X-212548D01*
Y23246D01*
X-212383D01*
Y23301D01*
X-212052D01*
Y23356D01*
X-211777D01*
Y23411D01*
X-211556D01*
Y23466D01*
X-211171D01*
Y23521D01*
X-211005D01*
Y23577D01*
X-210620D01*
Y23632D01*
X-210454D01*
Y23687D01*
X-210179D01*
Y23742D01*
X-209848D01*
Y23797D01*
X-209628D01*
Y23852D01*
X-209242D01*
Y23907D01*
X-209077D01*
Y23962D01*
X-208746D01*
Y24018D01*
X-208470D01*
Y24073D01*
X-208250D01*
Y24128D01*
X-207919D01*
Y24183D01*
X-207699D01*
Y24238D01*
X-207313D01*
Y24293D01*
X-207148D01*
Y24348D01*
X-206872D01*
Y24403D01*
X-206542D01*
Y24458D01*
X-206321D01*
Y24513D01*
X-205991D01*
Y24569D01*
X-205770D01*
Y24624D01*
X-205495D01*
Y24679D01*
X-205164D01*
Y24734D01*
X-204999D01*
Y24789D01*
X-204613D01*
Y24844D01*
X-204448D01*
Y24899D01*
X-204062D01*
Y24954D01*
X-203841D01*
Y25009D01*
X-203676D01*
Y21262D01*
X-203621D01*
Y21152D01*
X-203676D01*
Y21097D01*
X-203731D01*
Y21042D01*
X-203952D01*
Y20986D01*
X-204117D01*
Y20931D01*
X-204558D01*
Y20876D01*
X-204723D01*
Y20821D01*
X-205109D01*
Y20766D01*
X-205329D01*
Y20711D01*
X-205550D01*
Y20656D01*
X-205935D01*
Y20601D01*
X-206046D01*
Y20546D01*
X-206487D01*
Y20491D01*
X-206652D01*
Y20436D01*
X-206982D01*
Y20380D01*
X-207258D01*
Y20325D01*
X-207423D01*
Y20270D01*
X-207864D01*
Y20215D01*
X-208030D01*
Y20160D01*
X-208415D01*
Y20105D01*
X-208636D01*
Y20050D01*
X-208856D01*
Y19995D01*
X-209187D01*
Y19940D01*
X-209352D01*
Y19884D01*
X-209738D01*
Y19829D01*
X-209958D01*
Y19774D01*
X-210234D01*
Y19719D01*
X-210509D01*
Y19664D01*
X-210730D01*
Y19609D01*
X-211116D01*
Y19554D01*
X-211336D01*
Y19499D01*
X-211667D01*
Y19444D01*
X-211887D01*
Y19388D01*
X-212108D01*
Y19333D01*
X-212493D01*
Y19278D01*
X-212659D01*
Y19223D01*
X-212934D01*
Y19168D01*
X-212989D01*
Y15972D01*
X-212769D01*
Y16027D01*
X-212493D01*
Y16082D01*
X-212218D01*
Y16137D01*
X-211997D01*
Y16192D01*
X-211611D01*
Y16247D01*
X-211446D01*
Y16302D01*
X-211116D01*
Y16358D01*
X-210895D01*
Y16413D01*
X-210620D01*
Y16468D01*
X-210289D01*
Y16523D01*
X-210068D01*
Y16578D01*
X-209738D01*
Y16633D01*
X-209517D01*
Y16688D01*
X-209242D01*
Y16743D01*
X-208911D01*
Y16798D01*
X-208691D01*
Y16853D01*
X-208360D01*
Y16909D01*
X-208140D01*
Y16964D01*
X-207809D01*
Y17019D01*
X-207589D01*
Y17074D01*
X-207313D01*
Y17129D01*
X-206982D01*
Y17184D01*
X-206762D01*
Y17239D01*
X-206431D01*
Y17294D01*
X-206211D01*
Y17349D01*
X-205935D01*
Y17405D01*
X-205660D01*
Y17460D01*
X-205384D01*
Y17515D01*
X-205054D01*
Y17570D01*
X-204833D01*
Y17625D01*
X-204503D01*
Y17680D01*
X-204282D01*
Y17735D01*
X-204007D01*
Y17790D01*
X-203676D01*
Y17680D01*
X-203621D01*
Y17570D01*
X-203676D01*
Y14098D01*
X-203621D01*
Y13988D01*
X-203676D01*
Y13878D01*
X-203786D01*
Y13823D01*
X-204172D01*
Y13767D01*
X-204393D01*
Y13712D01*
X-204613D01*
Y13657D01*
X-204944D01*
Y13602D01*
X-205164D01*
Y13547D01*
X-205550D01*
Y13492D01*
X-205770D01*
Y13437D01*
X-206046D01*
Y13382D01*
X-206321D01*
Y13327D01*
X-206542D01*
Y13271D01*
X-206927D01*
Y13216D01*
X-207093D01*
Y13161D01*
X-207479D01*
Y13106D01*
X-207699D01*
Y13051D01*
X-207919D01*
Y12996D01*
X-208305D01*
Y12941D01*
X-208415D01*
Y12886D01*
X-208470D01*
Y10241D01*
X-208415D01*
Y10186D01*
X-208195D01*
Y10241D01*
X-207864D01*
Y10296D01*
X-207644D01*
Y10351D01*
X-207313D01*
Y10406D01*
X-207093D01*
Y10461D01*
X-206817D01*
Y10516D01*
X-206487D01*
Y10571D01*
X-206321D01*
Y10626D01*
X-205935D01*
Y10681D01*
X-205715D01*
Y10737D01*
X-205384D01*
Y10792D01*
X-205164D01*
Y10847D01*
X-204888D01*
Y10902D01*
X-204558D01*
Y10957D01*
X-204393D01*
Y11012D01*
X-204007D01*
Y11067D01*
X-203841D01*
Y11122D01*
X-203676D01*
Y10902D01*
X-203621D01*
Y10847D01*
X-203676D01*
Y7375D01*
X-203621D01*
Y7265D01*
X-203676D01*
Y7155D01*
X-203897D01*
Y7099D01*
X-204117D01*
Y7044D01*
X-204448D01*
Y6989D01*
X-204668D01*
Y6934D01*
X-204999D01*
Y6879D01*
X-205219D01*
Y6824D01*
X-205495D01*
Y6769D01*
X-205825D01*
Y6714D01*
X-206046D01*
Y6659D01*
X-206376D01*
Y6604D01*
X-206597D01*
Y6548D01*
X-206927D01*
Y6493D01*
X-207203D01*
Y6438D01*
X-207423D01*
Y6383D01*
X-207754D01*
Y6328D01*
X-207974D01*
Y6273D01*
X-208305D01*
Y6218D01*
X-208526D01*
Y6163D01*
X-208746D01*
Y6108D01*
X-209077D01*
Y6052D01*
X-209297D01*
Y5997D01*
X-209683D01*
Y5942D01*
X-209848D01*
Y5887D01*
X-210179D01*
Y5832D01*
X-210454D01*
Y5777D01*
X-210675D01*
Y5722D01*
X-211061D01*
Y5667D01*
X-211226D01*
Y5612D01*
X-211611D01*
Y5556D01*
X-211777D01*
Y5501D01*
X-212052D01*
Y5446D01*
X-212383D01*
Y5391D01*
X-212603D01*
Y5336D01*
X-212989D01*
Y5281D01*
X-213155D01*
Y5226D01*
X-213485D01*
Y5171D01*
X-213761D01*
Y5116D01*
X-213981D01*
Y5060D01*
X-214367D01*
Y5005D01*
X-214532D01*
Y4950D01*
X-214918D01*
Y4895D01*
X-215083D01*
Y4840D01*
X-215359D01*
Y4785D01*
X-215690D01*
Y4730D01*
X-215855D01*
Y4675D01*
X-216185D01*
Y8587D01*
X-216130D01*
Y8643D01*
X-215745D01*
Y8698D01*
X-215579D01*
Y8753D01*
X-215304D01*
Y8808D01*
X-215028D01*
Y8863D01*
X-214808D01*
Y8918D01*
X-214422D01*
Y8973D01*
X-214257D01*
Y9028D01*
X-213871D01*
Y9083D01*
X-213706D01*
Y9138D01*
X-213430D01*
Y9194D01*
X-213099D01*
Y9249D01*
X-212934D01*
Y9304D01*
X-212548D01*
Y9359D01*
X-212328D01*
Y9414D01*
X-212052D01*
Y9469D01*
X-211777D01*
Y9524D01*
X-211556D01*
Y9579D01*
X-211336D01*
Y12335D01*
X-211611D01*
Y12280D01*
X-211832D01*
Y12225D01*
X-212163D01*
Y12169D01*
X-212383D01*
Y12114D01*
X-212659D01*
Y12059D01*
X-212934D01*
Y12004D01*
X-213155D01*
Y11949D01*
X-213540D01*
Y11894D01*
X-213706D01*
Y11839D01*
X-214036D01*
Y11784D01*
X-214257D01*
Y11729D01*
X-214477D01*
Y11673D01*
X-214863D01*
Y11618D01*
X-215028D01*
Y11563D01*
X-215469D01*
Y11508D01*
X-215634D01*
Y11453D01*
X-215855D01*
Y11398D01*
X-216130D01*
Y11453D01*
X-216185D01*
Y35315D01*
X-216075D01*
Y35370D01*
X-215690D01*
Y35425D01*
X-215524D01*
Y35480D01*
X-215138D01*
Y35535D01*
X-214918D01*
Y35590D01*
X-214643D01*
Y35645D01*
X-214367D01*
Y35700D01*
X-214146D01*
Y35755D01*
X-213761D01*
Y35810D01*
X-213595D01*
Y35866D01*
X-213210D01*
Y35921D01*
X-212989D01*
Y35976D01*
X-212769D01*
Y36031D01*
X-212383D01*
Y36086D01*
X-212218D01*
Y36141D01*
X-211832D01*
Y36196D01*
X-211611D01*
Y36251D01*
X-211391D01*
Y36307D01*
X-211061D01*
Y36361D01*
X-210895D01*
Y36417D01*
X-210454D01*
Y36472D01*
X-210289D01*
Y36527D01*
X-209958D01*
Y36582D01*
X-209683D01*
Y36637D01*
X-209517D01*
Y36692D01*
X-209077D01*
Y36747D01*
X-208911D01*
Y36802D01*
X-208581D01*
Y36858D01*
X-208305D01*
Y36913D01*
X-208085D01*
Y36968D01*
X-207754D01*
Y37023D01*
X-207589D01*
Y37078D01*
X-207203D01*
Y37133D01*
X-206982D01*
Y37188D01*
X-206652D01*
Y37243D01*
X-206376D01*
Y37298D01*
X-206211D01*
Y37353D01*
X-205770D01*
Y37409D01*
X-205605D01*
Y37464D01*
X-205274D01*
Y37519D01*
X-204999D01*
Y37574D01*
X-204778D01*
Y37629D01*
X-204448D01*
Y37684D01*
X-204282D01*
Y37739D01*
X-203841D01*
Y37794D01*
X-203676D01*
Y37684D01*
D02*
G37*
G36*
X128508Y-90978D02*
X120866D01*
X120373Y-88878D01*
X124857D01*
X124627Y-87892D01*
X120337D01*
X119880Y-85953D01*
X124174D01*
X123948Y-85000D01*
X117000D01*
X118410Y-90978D01*
X115251D01*
X113845Y-85000D01*
X111183D01*
X112585Y-90978D01*
X109604D01*
X108877Y-87880D01*
X106809D01*
X107536Y-90978D01*
X104555D01*
X102656Y-82900D01*
X105637D01*
X106352Y-85941D01*
X108420D01*
X107709Y-82900D01*
X126610D01*
X128508Y-90978D01*
D02*
G37*
G36*
X91846Y-90914D02*
X91184D01*
X90941Y-89811D01*
X90804Y-89484D01*
X90643Y-89193D01*
X90481Y-88934D01*
X90319Y-88765D01*
X90190Y-88676D01*
X90061Y-88611D01*
X89964D01*
X89867Y-88644D01*
X89802Y-88708D01*
X89786Y-88805D01*
Y-88934D01*
X89802Y-89047D01*
X90218Y-90914D01*
X89499D01*
X89188Y-89484D01*
X89071Y-88951D01*
X89059Y-88708D01*
X89091Y-88482D01*
X89156Y-88288D01*
X89285Y-88159D01*
X89447Y-88062D01*
X89576Y-88030D01*
X89835D01*
X90093Y-88094D01*
X90319Y-88223D01*
X90489Y-88393D01*
X90675Y-88611D01*
X90267Y-86773D01*
X90929D01*
X91846Y-90914D01*
D02*
G37*
G36*
X92703Y-88094D02*
X93010Y-88167D01*
X93268Y-88296D01*
X93478Y-88458D01*
X93608Y-88587D01*
X93737Y-88749D01*
X93850Y-88942D01*
X93931Y-89136D01*
X94011Y-89363D01*
X94060Y-89573D01*
X94092Y-89783D01*
Y-90057D01*
X94060Y-90300D01*
X94011Y-90461D01*
X93931Y-90623D01*
X93834Y-90752D01*
X93705Y-90849D01*
X93559Y-90914D01*
X93414Y-90946D01*
X93090Y-90978D01*
X92929D01*
X92638Y-90946D01*
X92456Y-90902D01*
X92380Y-90882D01*
X92311Y-90247D01*
X92460Y-90300D01*
X92670Y-90348D01*
X92832Y-90364D01*
X92945D01*
X93074Y-90332D01*
X93187Y-90267D01*
X93252Y-90203D01*
X93301Y-90106D01*
X93333Y-89993D01*
X93349Y-89880D01*
Y-89734D01*
X93317Y-89524D01*
X93252Y-89314D01*
X93171Y-89136D01*
X93074Y-88991D01*
X92929Y-88813D01*
X92800Y-88733D01*
X92670Y-88684D01*
X92541Y-88668D01*
X92347D01*
X92170Y-88684D01*
X92089Y-88700D01*
X91976Y-88733D01*
X91846Y-88147D01*
X91992Y-88094D01*
X92153Y-88070D01*
X92412D01*
X92703Y-88094D01*
D02*
G37*
G36*
X100555Y-89524D02*
X100673Y-90057D01*
X100685Y-90300D01*
X100652Y-90526D01*
X100588Y-90720D01*
X100458Y-90849D01*
X100297Y-90946D01*
X100168Y-90978D01*
X99909D01*
X99650Y-90914D01*
X99424Y-90785D01*
X99255Y-90615D01*
X99069Y-90397D01*
X99182Y-90914D01*
X98439D01*
X97813Y-88094D01*
X98560D01*
X98802Y-89197D01*
X98940Y-89524D01*
X99101Y-89815D01*
X99263Y-90074D01*
X99424Y-90243D01*
X99554Y-90332D01*
X99683Y-90397D01*
X99780D01*
X99877Y-90364D01*
X99941Y-90300D01*
X99958Y-90203D01*
Y-90074D01*
X99941Y-89960D01*
X99525Y-88094D01*
X100244D01*
X100555Y-89524D01*
D02*
G37*
G36*
X103205Y-87771D02*
X101727D01*
X103807Y-90482D01*
X103900Y-90914D01*
X101460D01*
X101311Y-90243D01*
X102793D01*
X100705Y-87521D01*
X100612Y-87100D01*
X103056D01*
X103205Y-87771D01*
D02*
G37*
G36*
X95837Y-88070D02*
X95983Y-88135D01*
X96080Y-88199D01*
X96209Y-88312D01*
X96322Y-88426D01*
X96451Y-88619D01*
X96576Y-88878D01*
X96403Y-88094D01*
X97065D01*
X97691Y-90914D01*
X97029D01*
X96928Y-90457D01*
X96775Y-89960D01*
X96597Y-89524D01*
X96451Y-89249D01*
X96249Y-88983D01*
X96112Y-88846D01*
X95999Y-88765D01*
X95886Y-88716D01*
X95805D01*
X95696Y-88745D01*
X95547Y-88070D01*
X95643Y-88054D01*
X95740D01*
X95837Y-88070D01*
D02*
G37*
G36*
X95676Y-90914D02*
X95013D01*
X94387Y-88094D01*
X95050D01*
X95676Y-90914D01*
D02*
G37*
D12*
X106641Y70250D02*
G03*
X106641Y70250I-2000J0D01*
G01*
D13*
X-169500Y82854D02*
G03*
X-169500Y82854I-1250J0D01*
G01*
X-53250Y53250D02*
G03*
X-53250Y53250I-1250J0D01*
G01*
D14*
X-105250Y-65978D02*
G03*
X-105250Y-65978I-500J0D01*
G01*
D15*
X-263500Y41700D02*
G03*
X-263500Y41700I-500J0D01*
G01*
X-120630Y72880D02*
G03*
X-120630Y72880I-1000J0D01*
G01*
X5000Y18000D02*
G03*
X5000Y18000I-1000J0D01*
G01*
X-266250Y-81250D02*
G03*
X-266250Y-81250I-1000J0D01*
G01*
X-264803Y-24980D02*
G03*
X-264803Y-24980I-1000J0D01*
G01*
X-135880Y91130D02*
G03*
X-135880Y91130I-1000J0D01*
G01*
X-71870Y79120D02*
G03*
X-71870Y79120I-1000J0D01*
G01*
X-190250Y-30000D02*
X-178750D01*
X-190250Y-42500D02*
X-178750D01*
X-85638Y79138D02*
Y93862D01*
X-99362Y79138D02*
Y93862D01*
X5850Y85500D02*
X10250D01*
Y82750D02*
Y85500D01*
X5850Y68500D02*
X10250D01*
Y71250D01*
X-135250Y-86000D02*
X-128750D01*
X-135250Y-54000D02*
X-128750D01*
X-68031Y42500D02*
Y45000D01*
X-70531Y42500D02*
X-68031D01*
Y70000D02*
Y72500D01*
X-70531D02*
X-68031D01*
X-98031Y42500D02*
Y45000D01*
Y42500D02*
X-95531D01*
X-98031Y70000D02*
Y72500D01*
X-95531D01*
X-146750Y59543D02*
Y60457D01*
X-175750D02*
X-146750D01*
X-175750Y59543D02*
X-146750D01*
X-175750D02*
Y60457D01*
X-117000Y72880D02*
X-102370D01*
Y58620D02*
Y72880D01*
X-121630Y68250D02*
X-117000Y72880D01*
X-121630Y58620D02*
X-102370D01*
X-121630D02*
Y68250D01*
X-74500Y-34978D02*
X-70750D01*
X-101750D02*
X-98000D01*
X-74500Y-65978D02*
X-70750D01*
X-101750D02*
X-98000D01*
X-70750Y-35229D02*
Y-34978D01*
Y-65978D02*
Y-65729D01*
X-101750Y-35229D02*
Y-34978D01*
Y-65978D02*
Y-65729D01*
X-176750Y-58880D02*
X-172120Y-54250D01*
X-185380Y-58880D02*
X-176750D01*
X-185380D02*
Y-45620D01*
X-172120D01*
Y-54250D02*
Y-45620D01*
X28500Y14500D02*
X43500D01*
X28500Y-31500D02*
Y14500D01*
Y-31500D02*
X28500Y-31500D01*
X43500D01*
Y14500D01*
X-136880Y76870D02*
Y86500D01*
Y76870D02*
X-117620D01*
X-136880Y86500D02*
X-132250Y91130D01*
X-117620Y76870D02*
Y91130D01*
X-132250D02*
X-117620D01*
X-135250Y-44000D02*
X-128750D01*
X-135250Y-12000D02*
X-128750D01*
X-22500Y32250D02*
Y42250D01*
X-53500D02*
X-22500D01*
X-53500Y32250D02*
X-22500D01*
X-53500D02*
Y42250D01*
X-86130Y79120D02*
X-77500D01*
X-86130D02*
Y92380D01*
X-77500Y79120D02*
X-72870Y83750D01*
X-86130Y92380D02*
X-72870D01*
Y83750D02*
Y92380D01*
D16*
X97871Y65994D02*
Y77216D01*
X108759D01*
X97871Y-77216D02*
Y-65994D01*
X130129Y-64848D02*
Y64848D01*
X97871Y-77216D02*
X108759D01*
X-64963Y-31484D02*
Y-28634D01*
X-85537Y-14973D02*
X-64963D01*
Y-17823D02*
Y-14973D01*
X-85537Y-31484D02*
X-64963D01*
X-85537D02*
Y-28634D01*
Y-17823D02*
Y-14973D01*
X-274379Y-67300D02*
Y-57889D01*
X-305621Y54950D02*
X-274379D01*
X-305621Y-67300D02*
Y-57889D01*
Y-67300D02*
X-274379D01*
Y46289D02*
Y54950D01*
X-305621Y46289D02*
Y54950D01*
D17*
X75500Y-59946D02*
X95000Y-60000D01*
X75500Y19804D02*
X95000Y19750D01*
X75500Y51804D02*
X95000Y51750D01*
X75500Y35804D02*
X95000Y35750D01*
X75500Y-44196D02*
X95000Y-44250D01*
X75500Y-28196D02*
X95000Y-28250D01*
X75500Y-12196D02*
X95000Y-12250D01*
X75500Y3804D02*
X95000Y3750D01*
X71500Y-28900D02*
Y-26900D01*
Y-12900D02*
Y-10900D01*
Y3100D02*
Y5100D01*
X73500Y-46000D02*
Y-42000D01*
Y-30000D02*
Y-26000D01*
Y2000D02*
Y6000D01*
Y-14000D02*
Y-10000D01*
X71500Y-44900D02*
Y-42900D01*
X73500Y-61750D02*
Y-57750D01*
X71500Y-60650D02*
Y-58650D01*
X75500Y-62946D02*
Y-56946D01*
X71500Y19100D02*
Y21100D01*
X73500Y34000D02*
Y38000D01*
X71500Y35100D02*
Y37100D01*
X75500Y-47196D02*
Y-41196D01*
Y-31196D02*
Y-25196D01*
Y-15196D02*
Y-9196D01*
Y804D02*
Y6804D01*
Y16804D02*
Y22804D01*
X73500Y18000D02*
Y22000D01*
X75500Y48804D02*
Y54804D01*
X73500Y50000D02*
Y54000D01*
X75500Y32804D02*
Y38804D01*
X71500Y51100D02*
Y53100D01*
D18*
X13217Y19021D02*
Y19758D01*
Y19021D02*
X37601D01*
Y28770D01*
Y54230D02*
Y63979D01*
X13217Y63242D02*
Y63979D01*
X37601D01*
X-239950Y-88550D02*
Y-84050D01*
X-258550Y-88550D02*
Y-84050D01*
X-239950Y-66450D02*
Y-61950D01*
X-258550Y-66450D02*
Y-61950D01*
X-239950Y-32050D02*
Y-27550D01*
X-258550Y-32050D02*
Y-27550D01*
X-239950Y-9950D02*
Y-5450D01*
X-258550Y-9950D02*
Y-5450D01*
D20*
X90301Y-50108D02*
X91301Y-49108D01*
X93300D01*
X94300Y-50108D01*
Y-54107D01*
X93300Y-55106D01*
X91301D01*
X90301Y-54107D01*
X88302Y-49108D02*
Y-55106D01*
Y-52107D01*
X84303D01*
Y-49108D01*
Y-55106D01*
X82304D02*
X80304D01*
X81304D01*
Y-49108D01*
X82304Y-50108D01*
X73307Y-49108D02*
X77305D01*
Y-52107D01*
X75306Y-51108D01*
X74307D01*
X73307Y-52107D01*
Y-54107D01*
X74307Y-55106D01*
X76306D01*
X77305Y-54107D01*
X90301Y-34108D02*
X91301Y-33108D01*
X93300D01*
X94300Y-34108D01*
Y-38107D01*
X93300Y-39106D01*
X91301D01*
X90301Y-38107D01*
X88302Y-33108D02*
Y-39106D01*
Y-36107D01*
X84303D01*
Y-33108D01*
Y-39106D01*
X82304D02*
X80304D01*
X81304D01*
Y-33108D01*
X82304Y-34108D01*
X74307Y-39106D02*
Y-33108D01*
X77305Y-36107D01*
X73307D01*
X90301Y-18108D02*
X91301Y-17108D01*
X93300D01*
X94300Y-18108D01*
Y-22107D01*
X93300Y-23106D01*
X91301D01*
X90301Y-22107D01*
X88302Y-17108D02*
Y-23106D01*
Y-20107D01*
X84303D01*
Y-17108D01*
Y-23106D01*
X82304D02*
X80304D01*
X81304D01*
Y-17108D01*
X82304Y-18108D01*
X77305D02*
X76306Y-17108D01*
X74307D01*
X73307Y-18108D01*
Y-19108D01*
X74307Y-20107D01*
X75306D01*
X74307D01*
X73307Y-21107D01*
Y-22107D01*
X74307Y-23106D01*
X76306D01*
X77305Y-22107D01*
X90301Y-2108D02*
X91301Y-1108D01*
X93300D01*
X94300Y-2108D01*
Y-6107D01*
X93300Y-7106D01*
X91301D01*
X90301Y-6107D01*
X88302Y-1108D02*
Y-7106D01*
Y-4107D01*
X84303D01*
Y-1108D01*
Y-7106D01*
X82304D02*
X80304D01*
X81304D01*
Y-1108D01*
X82304Y-2108D01*
X73307Y-7106D02*
X77305D01*
X73307Y-3108D01*
Y-2108D01*
X74307Y-1108D01*
X76306D01*
X77305Y-2108D01*
X90301Y13892D02*
X91301Y14892D01*
X93300D01*
X94300Y13892D01*
Y9893D01*
X93300Y8894D01*
X91301D01*
X90301Y9893D01*
X88302Y14892D02*
Y8894D01*
Y11893D01*
X84303D01*
Y14892D01*
Y8894D01*
X82304D02*
X80304D01*
X81304D01*
Y14892D01*
X82304Y13892D01*
X77305Y8894D02*
X75306D01*
X76306D01*
Y14892D01*
X77305Y13892D01*
X90301Y29892D02*
X91301Y30892D01*
X93300D01*
X94300Y29892D01*
Y25893D01*
X93300Y24894D01*
X91301D01*
X90301Y25893D01*
X88302Y30892D02*
Y24894D01*
Y27893D01*
X84303D01*
Y30892D01*
Y24894D01*
X82304D02*
X80304D01*
X81304D01*
Y30892D01*
X82304Y29892D01*
X77305D02*
X76306Y30892D01*
X74307D01*
X73307Y29892D01*
Y25893D01*
X74307Y24894D01*
X76306D01*
X77305Y25893D01*
Y29892D01*
X90301Y45892D02*
X91301Y46892D01*
X93300D01*
X94300Y45892D01*
Y41893D01*
X93300Y40894D01*
X91301D01*
X90301Y41893D01*
X88302Y46892D02*
Y40894D01*
Y43893D01*
X84303D01*
Y46892D01*
Y40894D01*
X82304Y41893D02*
X81304Y40894D01*
X79305D01*
X78305Y41893D01*
Y45892D01*
X79305Y46892D01*
X81304D01*
X82304Y45892D01*
Y44892D01*
X81304Y43893D01*
X78305D01*
X90301Y61892D02*
X91301Y62892D01*
X93300D01*
X94300Y61892D01*
Y57893D01*
X93300Y56894D01*
X91301D01*
X90301Y57893D01*
X88302Y62892D02*
Y56894D01*
Y59893D01*
X84303D01*
Y62892D01*
Y56894D01*
X82304Y61892D02*
X81304Y62892D01*
X79305D01*
X78305Y61892D01*
Y60892D01*
X79305Y59893D01*
X78305Y58893D01*
Y57893D01*
X79305Y56894D01*
X81304D01*
X82304Y57893D01*
Y58893D01*
X81304Y59893D01*
X82304Y60892D01*
Y61892D01*
X81304Y59893D02*
X79305D01*
X-74502Y100999D02*
Y96001D01*
X-75501Y95001D01*
X-77501D01*
X-78500Y96001D01*
Y100999D01*
X-84498D02*
X-82499Y99999D01*
X-80500Y98000D01*
Y96001D01*
X-81499Y95001D01*
X-83499D01*
X-84498Y96001D01*
Y97000D01*
X-83499Y98000D01*
X-80500D01*
D21*
X-63250Y71250D02*
G03*
X-63250Y71250I-1250J0D01*
G01*
X-173750Y-61750D02*
G03*
X-173750Y-61750I-1000J0D01*
G01*
X-96000Y-17414D02*
X-90668Y-12083D01*
X-96000D02*
X-90668Y-17414D01*
X-96000Y-14749D02*
X-90668D01*
X-93334Y-12083D02*
Y-17414D01*
X-229247Y36000D02*
X-222583D01*
X-221250Y34667D01*
Y32001D01*
X-222583Y30668D01*
X-229247D01*
X-227915Y22671D02*
X-229247Y24004D01*
Y26670D01*
X-227915Y28003D01*
X-226582D01*
X-225249Y26670D01*
Y24004D01*
X-223916Y22671D01*
X-222583D01*
X-221250Y24004D01*
Y26670D01*
X-222583Y28003D01*
X-221250Y12008D02*
Y8009D01*
X-222583Y6676D01*
X-223916Y8009D01*
Y10675D01*
X-225249Y12008D01*
X-226582Y10675D01*
Y6676D01*
X-229247Y4010D02*
X-221250D01*
X-225249D01*
X-226582Y2677D01*
Y12D01*
X-225249Y-1321D01*
X-221250D01*
Y-3987D02*
Y-6653D01*
Y-5320D01*
X-226582D01*
Y-3987D01*
X-221250Y-14650D02*
Y-11984D01*
X-222583Y-10652D01*
X-225249D01*
X-226582Y-11984D01*
Y-14650D01*
X-225249Y-15983D01*
X-223916D01*
Y-10652D01*
X-221250Y-18649D02*
Y-21315D01*
Y-19982D01*
X-229247D01*
Y-18649D01*
Y-30645D02*
X-221250D01*
Y-26646D01*
X-222583Y-25314D01*
X-225249D01*
X-226582Y-26646D01*
Y-30645D01*
Y-41308D02*
X-221250Y-43974D01*
X-226582Y-46640D01*
X-221250Y-49306D02*
Y-51972D01*
Y-50639D01*
X-229247D01*
X-227915Y-49306D01*
X-221250Y-55970D02*
X-222583D01*
Y-57303D01*
X-221250D01*
Y-55970D01*
X-227915Y-62635D02*
X-229247Y-63968D01*
Y-66634D01*
X-227915Y-67966D01*
X-222583D01*
X-221250Y-66634D01*
Y-63968D01*
X-222583Y-62635D01*
X-227915D01*
X-212497Y1750D02*
Y-3582D01*
X-211164D01*
X-205833Y1750D01*
X-204500D01*
Y-3582D01*
X-212497Y-6247D02*
X-205833D01*
X-204500Y-7580D01*
Y-10246D01*
X-205833Y-11579D01*
X-212497D01*
X-204500Y-14245D02*
X-212497D01*
Y-18244D01*
X-211164Y-19576D01*
X-208499D01*
X-207166Y-18244D01*
Y-14245D01*
Y-16911D02*
X-204500Y-19576D01*
X-212497Y-22242D02*
Y-24908D01*
Y-23575D01*
X-204500D01*
Y-22242D01*
Y-24908D01*
X-211164Y-34238D02*
X-212497Y-32905D01*
Y-30240D01*
X-211164Y-28907D01*
X-205833D01*
X-204500Y-30240D01*
Y-32905D01*
X-205833Y-34238D01*
X-212497Y-36904D02*
X-204500D01*
X-208499D01*
Y-42236D01*
X-212497D01*
X-204500D01*
X63249Y4250D02*
Y9582D01*
X65915Y6916D02*
X60583D01*
X67247Y12247D02*
X59250D01*
X63249D01*
Y17579D01*
X67247D01*
X59250D01*
X67247Y20245D02*
X61916D01*
X59250Y22911D01*
X61916Y25576D01*
X67247D01*
X67664Y-92668D02*
X68997Y-94001D01*
Y-96667D01*
X67664Y-98000D01*
X62333D01*
X61000Y-96667D01*
Y-94001D01*
X62333Y-92668D01*
X64999D01*
Y-95334D01*
X61000Y-90003D02*
X68997D01*
X61000Y-84671D01*
X68997D01*
Y-82005D02*
X61000D01*
Y-78007D01*
X62333Y-76674D01*
X67664D01*
X68997Y-78007D01*
Y-82005D01*
X64499Y-46000D02*
Y-40668D01*
X68497Y-38003D02*
X60500D01*
X64499D01*
Y-32671D01*
X68497D01*
X60500D01*
X68497Y-30005D02*
X63166D01*
X60500Y-27339D01*
X63166Y-24674D01*
X68497D01*
X62413Y102499D02*
X57081D01*
X59747D01*
Y94501D01*
X54415D02*
Y102499D01*
X50416D01*
X49083Y101166D01*
Y98500D01*
X50416Y97167D01*
X54415D01*
X46418Y94501D02*
X43752D01*
X45085D01*
Y102499D01*
X46418Y101166D01*
X39753Y94501D02*
X37087D01*
X38420D01*
Y102499D01*
X39753Y101166D01*
X-105754Y5999D02*
X-111086D01*
X-108420D01*
Y-1999D01*
X-113752D02*
Y5999D01*
X-117751D01*
X-119084Y4666D01*
Y2000D01*
X-117751Y667D01*
X-113752D01*
X-121749Y-1999D02*
X-124415D01*
X-123082D01*
Y5999D01*
X-121749Y4666D01*
X-128414D02*
X-129747Y5999D01*
X-132413D01*
X-133745Y4666D01*
Y-666D01*
X-132413Y-1999D01*
X-129747D01*
X-128414Y-666D01*
Y4666D01*
X-151004Y99999D02*
X-156336D01*
X-153670D01*
Y92001D01*
X-159002D02*
Y99999D01*
X-163001D01*
X-164334Y98666D01*
Y96000D01*
X-163001Y94667D01*
X-159002D01*
X-166999Y92001D02*
X-169665D01*
X-168332D01*
Y99999D01*
X-166999Y98666D01*
X-173664D02*
X-174997Y99999D01*
X-177663D01*
X-178995Y98666D01*
Y97333D01*
X-177663Y96000D01*
X-176330D01*
X-177663D01*
X-178995Y94667D01*
Y93334D01*
X-177663Y92001D01*
X-174997D01*
X-173664Y93334D01*
X-163255Y-90001D02*
X-168586D01*
X-165920D01*
Y-97999D01*
X-171252D02*
Y-90001D01*
X-175251D01*
X-176583Y-91334D01*
Y-94000D01*
X-175251Y-95333D01*
X-171252D01*
X-179249Y-97999D02*
X-181915D01*
X-180582D01*
Y-90001D01*
X-179249Y-91334D01*
X-191245Y-97999D02*
X-185914D01*
X-191245Y-92667D01*
Y-91334D01*
X-189913Y-90001D01*
X-187247D01*
X-185914Y-91334D01*
X-126837Y19749D02*
X-132168D01*
X-129503D01*
Y11751D01*
X-134834D02*
Y19749D01*
X-138833D01*
X-140166Y18416D01*
Y15750D01*
X-138833Y14417D01*
X-134834D01*
X-142832Y13084D02*
X-144164Y11751D01*
X-146830D01*
X-148163Y13084D01*
Y18416D01*
X-146830Y19749D01*
X-144164D01*
X-142832Y18416D01*
Y17083D01*
X-144164Y15750D01*
X-148163D01*
X-239003Y-93501D02*
Y-100166D01*
X-240336Y-101499D01*
X-243002D01*
X-244335Y-100166D01*
Y-93501D01*
X-247001Y-101499D02*
X-249667D01*
X-248334D01*
Y-93501D01*
X-247001Y-94834D01*
X-253665Y-93501D02*
X-258997D01*
Y-94834D01*
X-253665Y-100166D01*
Y-101499D01*
X56999Y10167D02*
Y7501D01*
Y8834D01*
X50334D01*
X49001Y7501D01*
Y6168D01*
X50334Y4836D01*
Y12833D02*
X49001Y14166D01*
Y16832D01*
X50334Y18164D01*
X55666D01*
X56999Y16832D01*
Y14166D01*
X55666Y12833D01*
X54333D01*
X53000Y14166D01*
Y18164D01*
X-269251Y74668D02*
Y69337D01*
X-273250D01*
Y72003D01*
Y69337D01*
X-277249D01*
X-269251Y77334D02*
X-277249D01*
Y81333D01*
X-275916Y82666D01*
X-274583D01*
X-273250Y81333D01*
Y77334D01*
Y81333D01*
X-271917Y82666D01*
X-270584D01*
X-269251Y81333D01*
Y77334D01*
X-270584Y85332D02*
X-269251Y86664D01*
Y89330D01*
X-270584Y90663D01*
X-271917D01*
X-273250Y89330D01*
Y87997D01*
Y89330D01*
X-274583Y90663D01*
X-275916D01*
X-277249Y89330D01*
Y86664D01*
X-275916Y85332D01*
X-240003Y-36751D02*
Y-43416D01*
X-241336Y-44749D01*
X-244002D01*
X-245335Y-43416D01*
Y-36751D01*
X-248001Y-44749D02*
X-250667D01*
X-249334D01*
Y-36751D01*
X-248001Y-38084D01*
X-254665D02*
X-255998Y-36751D01*
X-258664D01*
X-259997Y-38084D01*
Y-39417D01*
X-258664Y-40750D01*
X-259997Y-42083D01*
Y-43416D01*
X-258664Y-44749D01*
X-255998D01*
X-254665Y-43416D01*
Y-42083D01*
X-255998Y-40750D01*
X-254665Y-39417D01*
Y-38084D01*
X-255998Y-40750D02*
X-258664D01*
X-148003Y-46501D02*
Y-53166D01*
X-149336Y-54499D01*
X-152002D01*
X-153335Y-53166D01*
Y-46501D01*
X-156001Y-54499D02*
X-158666D01*
X-157333D01*
Y-46501D01*
X-156001Y-47834D01*
X-167997Y-46501D02*
X-165331Y-47834D01*
X-162665Y-50500D01*
Y-53166D01*
X-163998Y-54499D01*
X-166664D01*
X-167997Y-53166D01*
Y-51833D01*
X-166664Y-50500D01*
X-162665D01*
X-55501Y-66247D02*
X-62166D01*
X-63499Y-64914D01*
Y-62248D01*
X-62166Y-60915D01*
X-55501D01*
X-63499Y-58249D02*
Y-55584D01*
Y-56916D01*
X-55501D01*
X-56834Y-58249D01*
X-55501Y-46253D02*
Y-51585D01*
X-59500D01*
X-58167Y-48919D01*
Y-47586D01*
X-59500Y-46253D01*
X-62166D01*
X-63499Y-47586D01*
Y-50252D01*
X-62166Y-51585D01*
X-178335Y75249D02*
Y68584D01*
X-179668Y67251D01*
X-182334D01*
X-183667Y68584D01*
Y75249D01*
X-191665D02*
X-186333D01*
Y71250D01*
X-188999Y72583D01*
X-190332D01*
X-191665Y71250D01*
Y68584D01*
X-190332Y67251D01*
X-187666D01*
X-186333Y68584D01*
X-120336Y101749D02*
Y95084D01*
X-121668Y93751D01*
X-124334D01*
X-125667Y95084D01*
Y101749D01*
X-132332Y93751D02*
Y101749D01*
X-128333Y97750D01*
X-133665D01*
X-7085Y27249D02*
Y20584D01*
X-8418Y19251D01*
X-11084D01*
X-12417Y20584D01*
Y27249D01*
X-20415Y19251D02*
X-15083D01*
X-20415Y24583D01*
Y25916D01*
X-19082Y27249D01*
X-16416D01*
X-15083Y25916D01*
X-77944Y38237D02*
Y31573D01*
X-79277Y30240D01*
X-81943D01*
X-83276Y31573D01*
Y38237D01*
X-85942Y30240D02*
X-88608D01*
X-87275D01*
Y38237D01*
X-85942Y36904D01*
X-127086Y-90251D02*
Y-98249D01*
X-132417D01*
X-135083Y-91584D02*
X-136416Y-90251D01*
X-139082D01*
X-140414Y-91584D01*
Y-92917D01*
X-139082Y-94250D01*
X-137749D01*
X-139082D01*
X-140414Y-95583D01*
Y-96916D01*
X-139082Y-98249D01*
X-136416D01*
X-135083Y-96916D01*
X-285585Y-73001D02*
X-282919D01*
X-284252D01*
Y-79666D01*
X-282919Y-80999D01*
X-281586D01*
X-280253Y-79666D01*
X-288251Y-80999D02*
X-290916D01*
X-289583D01*
Y-73001D01*
X-288251Y-74334D01*
X-300247Y-80999D02*
X-294915D01*
X-300247Y-75667D01*
Y-74334D01*
X-298914Y-73001D01*
X-296248D01*
X-294915Y-74334D01*
X102333Y89999D02*
X104999D01*
X103666D01*
Y83334D01*
X104999Y82001D01*
X106332D01*
X107664Y83334D01*
X94335Y89999D02*
X97001Y88666D01*
X99667Y86000D01*
Y83334D01*
X98334Y82001D01*
X95668D01*
X94335Y83334D01*
Y84667D01*
X95668Y86000D01*
X99667D01*
X-238918Y76749D02*
X-233587D01*
Y72750D01*
X-236253D01*
X-233587D01*
Y68751D01*
X-241584Y76749D02*
Y68751D01*
X-245583D01*
X-246916Y70084D01*
Y71417D01*
X-245583Y72750D01*
X-241584D01*
X-245583D01*
X-246916Y74083D01*
Y75416D01*
X-245583Y76749D01*
X-241584D01*
X-253580Y68751D02*
Y76749D01*
X-249582Y72750D01*
X-254913D01*
X19999Y-24001D02*
X25330D01*
Y-28000D01*
X22664D01*
X25330D01*
Y-31999D01*
X17333Y-24001D02*
Y-31999D01*
X13334D01*
X12001Y-30666D01*
Y-29333D01*
X13334Y-28000D01*
X17333D01*
X13334D01*
X12001Y-26667D01*
Y-25334D01*
X13334Y-24001D01*
X17333D01*
X9336Y-31999D02*
X6670D01*
X8002D01*
Y-24001D01*
X9336Y-25334D01*
X-69085Y-3001D02*
Y-10999D01*
X-73084D01*
X-74417Y-9666D01*
Y-4334D01*
X-73084Y-3001D01*
X-69085D01*
X-77083Y-4334D02*
X-78416Y-3001D01*
X-81082D01*
X-82415Y-4334D01*
Y-5667D01*
X-81082Y-7000D01*
X-79749D01*
X-81082D01*
X-82415Y-8333D01*
Y-9666D01*
X-81082Y-10999D01*
X-78416D01*
X-77083Y-9666D01*
X-152336Y-14751D02*
Y-22749D01*
X-157667D01*
X-164332D02*
Y-14751D01*
X-160333Y-18750D01*
X-165665D01*
D155*
X99525Y-87238D02*
G03*
X99525Y-87238I-4J0D01*
G01*
X98370D02*
G03*
X98370Y-87238I-4J0D01*
G01*
D156*
X94585Y-87282D02*
G03*
X94585Y-87282I-4J0D01*
G01*
D157*
X-66000Y-69000D02*
G03*
X-65500Y-69000I250J0D01*
G01*
D02*
G03*
X-66000Y-69000I-250J0D01*
G01*
X-67000Y-41250D02*
G03*
X-67000Y-41750I0J-250D01*
G01*
D02*
G03*
X-67000Y-41250I0J250D01*
G01*
X-74250Y-68750D02*
G03*
X-74750Y-68750I-250J0D01*
G01*
D02*
G03*
X-74250Y-68750I250J0D01*
G01*
X-40012Y-24001D02*
G03*
X-40512Y-24001I-250J0D01*
G01*
D02*
G03*
X-40012Y-24001I250J0D01*
G01*
M02*
